Exo2-Thin.ufo
<glyph name="exclam" format="2">
  <advance width="253"/>
  <unicode hex="0021"/>
  <outline>
    <contour>
      <point x="139" y="695" type="line"/>
      <point x="114" y="695" type="line"/>
      <point x="114" y="354" type="line"/>
      <point x="116" y="203" type="line"/>
      <point x="137" y="203" type="line"/>
      <point x="139" y="354" type="line"/>
    </contour>
    <contour>
      <point x="132" y="86" type="curve" smooth="yes"/>
      <point x="122" y="86" type="line" smooth="yes"/>
      <point x="114" y="86"/>
      <point x="110" y="82"/>
      <point x="110" y="74" type="curve" smooth="yes"/>
      <point x="110" y="12" type="line" smooth="yes"/>
      <point x="110" y="4"/>
      <point x="114" y="0"/>
      <point x="122" y="0" type="curve" smooth="yes"/>
      <point x="132" y="0" type="line" smooth="yes"/>
      <point x="140" y="0"/>
      <point x="144" y="4"/>
      <point x="144" y="12" type="curve" smooth="yes"/>
      <point x="144" y="74" type="line" smooth="yes"/>
      <point x="144" y="82"/>
      <point x="140" y="86"/>
    </contour>
  </outline>
</glyph>
<glyph name="numbersign" format="2">
  <advance width="667"/>
  <unicode hex="0023"/>
  <outline>
    <contour>
      <point x="281" y="690" type="line"/>
      <point x="256" y="690" type="line"/>
      <point x="136" y="0" type="line"/>
      <point x="161" y="0" type="line"/>
    </contour>
    <contour>
      <point x="532" y="690" type="line"/>
      <point x="507" y="690" type="line"/>
      <point x="387" y="0" type="line"/>
      <point x="412" y="0" type="line"/>
    </contour>
    <contour>
      <point x="607" y="492" type="line"/>
      <point x="106" y="492" type="line"/>
      <point x="102" y="470" type="line"/>
      <point x="603" y="470" type="line"/>
    </contour>
    <contour>
      <point x="565" y="250" type="line"/>
      <point x="64" y="250" type="line"/>
      <point x="60" y="228" type="line"/>
      <point x="561" y="228" type="line"/>
    </contour>
  </outline>
</glyph>
<glyph name="dollar" format="2">
  <advance width="559"/>
  <unicode hex="0024"/>
  <outline>
    <contour>
      <point x="277" y="701" type="curve" smooth="yes"/>
      <point x="137" y="703"/>
      <point x="69" y="690"/>
      <point x="69" y="524" type="curve" smooth="yes"/>
      <point x="69" y="412"/>
      <point x="106" y="358"/>
      <point x="203" y="347" type="curve" smooth="yes"/>
      <point x="356" y="326" type="line" smooth="yes"/>
      <point x="439" y="315"/>
      <point x="470" y="278"/>
      <point x="470" y="169" type="curve" smooth="yes"/>
      <point x="470" y="32"/>
      <point x="419" y="14"/>
      <point x="286" y="12" type="curve" smooth="yes"/>
      <point x="210" y="11"/>
      <point x="159" y="13"/>
      <point x="84" y="19" type="curve"/>
      <point x="81" y="0" type="line"/>
      <point x="166" y="-10"/>
      <point x="230" y="-11"/>
      <point x="285" y="-11" type="curve" smooth="yes"/>
      <point x="420" y="-11"/>
      <point x="495" y="5"/>
      <point x="495" y="169" type="curve" smooth="yes"/>
      <point x="495" y="290"/>
      <point x="457" y="338"/>
      <point x="356" y="350" type="curve" smooth="yes"/>
      <point x="203" y="371" type="line" smooth="yes"/>
      <point x="124" y="382"/>
      <point x="94" y="423"/>
      <point x="94" y="524" type="curve" smooth="yes"/>
      <point x="94" y="675"/>
      <point x="149" y="678"/>
      <point x="277" y="678" type="curve" smooth="yes"/>
      <point x="339" y="678"/>
      <point x="401" y="674"/>
      <point x="461" y="670" type="curve"/>
      <point x="464" y="689" type="line"/>
      <point x="404" y="696"/>
      <point x="340" y="700"/>
    </contour>
    <contour>
      <point x="273" y="349" type="line"/>
      <point x="247" y="-135" type="line"/>
      <point x="268" y="-135" type="line"/>
      <point x="294" y="345" type="line"/>
    </contour>
    <contour>
      <point x="318" y="804" type="line"/>
      <point x="297" y="804" type="line"/>
      <point x="273" y="349" type="line"/>
      <point x="294" y="345" type="line"/>
    </contour>
  </outline>
</glyph>
<glyph name="percent" format="2">
  <advance width="883"/>
  <unicode hex="0025"/>
  <outline>
    <contour>
      <point x="211" y="702" type="curve" smooth="yes"/>
      <point x="99" y="702"/>
      <point x="61" y="638"/>
      <point x="61" y="498" type="curve" smooth="yes"/>
      <point x="61" y="358"/>
      <point x="99" y="294"/>
      <point x="211" y="294" type="curve" smooth="yes"/>
      <point x="323" y="294"/>
      <point x="361" y="358"/>
      <point x="361" y="498" type="curve" smooth="yes"/>
      <point x="361" y="638"/>
      <point x="323" y="702"/>
    </contour>
    <contour>
      <point x="211" y="683" type="curve" smooth="yes"/>
      <point x="307" y="683"/>
      <point x="338" y="626"/>
      <point x="338" y="498" type="curve" smooth="yes"/>
      <point x="338" y="370"/>
      <point x="307" y="313"/>
      <point x="211" y="313" type="curve" smooth="yes"/>
      <point x="115" y="313"/>
      <point x="84" y="370"/>
      <point x="84" y="498" type="curve" smooth="yes"/>
      <point x="84" y="626"/>
      <point x="115" y="683"/>
    </contour>
    <contour>
      <point x="692" y="690" type="line"/>
      <point x="668" y="690" type="line"/>
      <point x="188" y="0" type="line"/>
      <point x="212" y="0" type="line"/>
    </contour>
    <contour>
      <point x="672" y="401" type="curve" smooth="yes"/>
      <point x="560" y="401"/>
      <point x="522" y="337"/>
      <point x="522" y="197" type="curve" smooth="yes"/>
      <point x="522" y="57"/>
      <point x="560" y="-7"/>
      <point x="672" y="-7" type="curve" smooth="yes"/>
      <point x="784" y="-7"/>
      <point x="822" y="57"/>
      <point x="822" y="197" type="curve" smooth="yes"/>
      <point x="822" y="337"/>
      <point x="784" y="401"/>
    </contour>
    <contour>
      <point x="672" y="382" type="curve" smooth="yes"/>
      <point x="768" y="382"/>
      <point x="799" y="325"/>
      <point x="799" y="197" type="curve" smooth="yes"/>
      <point x="799" y="69"/>
      <point x="768" y="12"/>
      <point x="672" y="12" type="curve" smooth="yes"/>
      <point x="576" y="12"/>
      <point x="545" y="69"/>
      <point x="545" y="197" type="curve" smooth="yes"/>
      <point x="545" y="325"/>
      <point x="576" y="382"/>
    </contour>
  </outline>
</glyph>
<glyph name="ampersand" format="2">
  <advance width="783"/>
  <unicode hex="0026"/>
  <outline>
    <contour>
      <point x="357" y="698" type="curve" smooth="yes"/>
      <point x="180" y="698"/>
      <point x="100" y="681"/>
      <point x="100" y="521" type="curve" smooth="yes"/>
      <point x="100" y="423"/>
      <point x="130" y="367"/>
      <point x="217" y="360" type="curve"/>
      <point x="217" y="356" type="line"/>
      <point x="113" y="347"/>
      <point x="80" y="280"/>
      <point x="80" y="174" type="curve" smooth="yes"/>
      <point x="80" y="35"/>
      <point x="136" y="-8"/>
      <point x="279" y="-8" type="curve" smooth="yes"/>
      <point x="402" y="-8"/>
      <point x="480" y="24"/>
      <point x="552" y="123" type="curve"/>
      <point x="538" y="139" type="line"/>
      <point x="475" y="54"/>
      <point x="405" y="15"/>
      <point x="277" y="15" type="curve" smooth="yes"/>
      <point x="150" y="15"/>
      <point x="106" y="53"/>
      <point x="106" y="174" type="curve" smooth="yes"/>
      <point x="106" y="309"/>
      <point x="160" y="347"/>
      <point x="302" y="347" type="curve" smooth="yes"/>
      <point x="693" y="347" type="line"/>
      <point x="696" y="368" type="line"/>
      <point x="302" y="368" type="line" smooth="yes"/>
      <point x="172" y="368"/>
      <point x="126" y="398"/>
      <point x="126" y="520" type="curve" smooth="yes"/>
      <point x="126" y="656"/>
      <point x="184" y="675"/>
      <point x="356" y="675" type="curve" smooth="yes"/>
      <point x="395" y="675"/>
      <point x="493" y="674"/>
      <point x="512" y="672" type="curve"/>
      <point x="516" y="690" type="line"/>
      <point x="454" y="697"/>
      <point x="400" y="698"/>
    </contour>
    <contour>
      <point x="555" y="524" type="line"/>
      <point x="537" y="524" type="line"/>
      <point x="531" y="363" type="line"/>
      <point x="531" y="95" type="line" smooth="yes"/>
      <point x="531" y="30"/>
      <point x="567" y="-6"/>
      <point x="641" y="-6" type="curve" smooth="yes"/>
      <point x="658" y="-6"/>
      <point x="699" y="-4"/>
      <point x="726" y="0" type="curve"/>
      <point x="723" y="16" type="line"/>
      <point x="635" y="16" type="line" smooth="yes"/>
      <point x="584" y="16"/>
      <point x="555" y="43"/>
      <point x="555" y="96" type="curve" smooth="yes"/>
    </contour>
  </outline>
</glyph>
<glyph name="plus" format="2">
  <advance width="553"/>
  <unicode hex="002B"/>
  <outline>
    <contour>
      <point x="485" y="308" type="line"/>
      <point x="68" y="308" type="line"/>
      <point x="68" y="286" type="line"/>
      <point x="485" y="286" type="line"/>
    </contour>
    <contour>
      <point x="288" y="495" type="line"/>
      <point x="265" y="495" type="line"/>
      <point x="266" y="99" type="line"/>
      <point x="287" y="99" type="line"/>
    </contour>
  </outline>
</glyph>
<glyph name="comma" format="2">
  <advance width="208"/>
  <unicode hex="002C"/>
  <outline>
    <contour>
      <point x="109" y="86" type="curve" smooth="yes"/>
      <point x="100" y="86" type="line" smooth="yes"/>
      <point x="92" y="86"/>
      <point x="88" y="82"/>
      <point x="89" y="74" type="curve" smooth="yes"/>
      <point x="88" y="10" type="line" smooth="yes"/>
      <point x="87" y="4"/>
      <point x="91" y="0"/>
      <point x="95" y="0" type="curve"/>
      <point x="95" y="-51"/>
      <point x="94" y="-72"/>
      <point x="91" y="-112" type="curve"/>
      <point x="103" y="-117" type="line"/>
      <point x="114" y="-78"/>
      <point x="120" y="-26"/>
      <point x="121" y="10" type="curve" smooth="yes"/>
      <point x="122" y="74" type="line" smooth="yes"/>
      <point x="121" y="82"/>
      <point x="117" y="86"/>
    </contour>
  </outline>
</glyph>
<glyph name="hyphen" format="2">
  <advance width="483"/>
  <unicode hex="002D"/>
  <outline>
    <contour>
      <point x="397" y="262" type="line"/>
      <point x="86" y="262" type="line"/>
      <point x="86" y="240" type="line"/>
      <point x="397" y="240" type="line"/>
    </contour>
  </outline>
</glyph>
<glyph name="period" format="2">
  <advance width="206"/>
  <unicode hex="002E"/>
  <outline>
    <contour>
      <point x="108" y="86" type="curve" smooth="yes"/>
      <point x="98" y="86" type="line" smooth="yes"/>
      <point x="90" y="86"/>
      <point x="86" y="82"/>
      <point x="86" y="74" type="curve" smooth="yes"/>
      <point x="86" y="12" type="line" smooth="yes"/>
      <point x="86" y="4"/>
      <point x="90" y="0"/>
      <point x="98" y="0" type="curve" smooth="yes"/>
      <point x="108" y="0" type="line" smooth="yes"/>
      <point x="116" y="0"/>
      <point x="120" y="4"/>
      <point x="120" y="12" type="curve" smooth="yes"/>
      <point x="120" y="74" type="line" smooth="yes"/>
      <point x="120" y="82"/>
      <point x="116" y="86"/>
    </contour>
  </outline>
</glyph>
<glyph name="one" format="2">
  <advance width="378"/>
  <unicode hex="0031"/>
  <outline>
    <contour>
      <point x="251" y="690" type="line"/>
      <point x="226" y="690" type="line"/>
      <point x="37" y="617" type="line"/>
      <point x="42" y="601" type="line"/>
      <point x="229" y="664" type="line"/>
      <point x="227" y="649"/>
      <point x="226" y="633"/>
      <point x="226" y="618" type="curve" smooth="yes"/>
      <point x="226" y="0" type="line"/>
      <point x="251" y="0" type="line"/>
    </contour>
  </outline>
</glyph>
<glyph name="two" format="2">
  <advance width="557"/>
  <unicode hex="0032"/>
  <outline>
    <contour>
      <point x="264" y="702" type="curve" smooth="yes"/>
      <point x="208" y="702"/>
      <point x="163" y="698"/>
      <point x="68" y="675" type="curve"/>
      <point x="74" y="657" type="line"/>
      <point x="159" y="675"/>
      <point x="206" y="679"/>
      <point x="269" y="679" type="curve" smooth="yes"/>
      <point x="367" y="679"/>
      <point x="434" y="669"/>
      <point x="438" y="572" type="curve" smooth="yes"/>
      <point x="441" y="489"/>
      <point x="400" y="413"/>
      <point x="307" y="305" type="curve" smooth="yes"/>
      <point x="67" y="28" type="line" smooth="yes"/>
      <point x="64" y="24"/>
      <point x="62" y="20"/>
      <point x="62" y="14" type="curve" smooth="yes"/>
      <point x="62" y="0" type="line"/>
      <point x="496" y="0" type="line"/>
      <point x="496" y="22" type="line"/>
      <point x="214" y="22" type="line"/>
      <point x="174" y="22"/>
      <point x="134" y="22"/>
      <point x="94" y="22" type="curve"/>
      <point x="326" y="290" type="line" smooth="yes"/>
      <point x="419" y="398"/>
      <point x="465" y="470"/>
      <point x="465" y="564" type="curve" smooth="yes"/>
      <point x="465" y="682"/>
      <point x="392" y="702"/>
    </contour>
  </outline>
</glyph>
<glyph name="three" format="2">
  <advance width="552"/>
  <unicode hex="0033"/>
  <outline>
    <contour>
      <point x="247" y="702" type="curve" smooth="yes"/>
      <point x="187" y="702"/>
      <point x="134" y="696"/>
      <point x="71" y="685" type="curve"/>
      <point x="78" y="667" type="line"/>
      <point x="123" y="673"/>
      <point x="185" y="679"/>
      <point x="248" y="679" type="curve" smooth="yes"/>
      <point x="382" y="679"/>
      <point x="426" y="649"/>
      <point x="429" y="542" type="curve" smooth="yes"/>
      <point x="429" y="476"/>
      <point x="415" y="380"/>
      <point x="276" y="377" type="curve" smooth="yes"/>
      <point x="147" y="374" type="line"/>
      <point x="147" y="356" type="line"/>
      <point x="276" y="355" type="line" smooth="yes"/>
      <point x="419" y="354"/>
      <point x="447" y="275"/>
      <point x="447" y="192" type="curve" smooth="yes"/>
      <point x="447" y="61"/>
      <point x="393" y="11"/>
      <point x="264" y="11" type="curve" smooth="yes"/>
      <point x="194" y="11"/>
      <point x="124" y="17"/>
      <point x="67" y="23" type="curve"/>
      <point x="61" y="5" type="line"/>
      <point x="126" y="-4"/>
      <point x="196" y="-12"/>
      <point x="266" y="-12" type="curve" smooth="yes"/>
      <point x="421" y="-12"/>
      <point x="475" y="56"/>
      <point x="472" y="192" type="curve" smooth="yes"/>
      <point x="470" y="280"/>
      <point x="440" y="350"/>
      <point x="344" y="365" type="curve"/>
      <point x="344" y="369" type="line"/>
      <point x="427" y="386"/>
      <point x="453" y="461"/>
      <point x="453" y="543" type="curve" smooth="yes"/>
      <point x="453" y="664"/>
      <point x="400" y="702"/>
    </contour>
  </outline>
</glyph>
<glyph name="five" format="2">
  <advance width="526"/>
  <unicode hex="0035"/>
  <outline>
    <contour>
      <point x="438" y="690" type="line"/>
      <point x="104" y="690" type="line"/>
      <point x="90" y="395" type="line" smooth="yes"/>
      <point x="89" y="387"/>
      <point x="95" y="381"/>
      <point x="103" y="381" type="curve" smooth="yes"/>
      <point x="117" y="381" type="line" smooth="yes"/>
      <point x="345" y="381"/>
      <point x="434" y="371"/>
      <point x="434" y="203" type="curve" smooth="yes"/>
      <point x="434" y="89"/>
      <point x="406" y="10"/>
      <point x="245" y="10" type="curve" smooth="yes"/>
      <point x="199" y="10"/>
      <point x="132" y="19"/>
      <point x="71" y="34" type="curve"/>
      <point x="65" y="16" type="line"/>
      <point x="133" y="-3"/>
      <point x="199" y="-12"/>
      <point x="247" y="-12" type="curve" smooth="yes"/>
      <point x="437" y="-12"/>
      <point x="458" y="95"/>
      <point x="458" y="203" type="curve" smooth="yes"/>
      <point x="458" y="377"/>
      <point x="369" y="400"/>
      <point x="169" y="403" type="curve" smooth="yes"/>
      <point x="114" y="403" type="line"/>
      <point x="126" y="668" type="line"/>
      <point x="435" y="668" type="line"/>
    </contour>
  </outline>
</glyph>
<glyph name="eight" format="2">
  <advance width="611"/>
  <unicode hex="0038"/>
  <outline>
    <contour>
      <point x="306" y="698" type="curve" smooth="yes"/>
      <point x="142" y="698"/>
      <point x="99" y="642"/>
      <point x="99" y="518" type="curve" smooth="yes"/>
      <point x="99" y="419"/>
      <point x="128" y="368"/>
      <point x="198" y="360" type="curve"/>
      <point x="198" y="356" type="line"/>
      <point x="114" y="347"/>
      <point x="85" y="289"/>
      <point x="85" y="172" type="curve" smooth="yes"/>
      <point x="85" y="41"/>
      <point x="131" y="-8"/>
      <point x="306" y="-8" type="curve" smooth="yes"/>
      <point x="484" y="-8"/>
      <point x="526" y="41"/>
      <point x="526" y="172" type="curve" smooth="yes"/>
      <point x="526" y="289"/>
      <point x="497" y="347"/>
      <point x="413" y="356" type="curve"/>
      <point x="413" y="360" type="line"/>
      <point x="483" y="368"/>
      <point x="512" y="419"/>
      <point x="512" y="518" type="curve" smooth="yes"/>
      <point x="512" y="642"/>
      <point x="471" y="699"/>
    </contour>
    <contour>
      <point x="307" y="347" type="curve" smooth="yes"/>
      <point x="463" y="347"/>
      <point x="501" y="326"/>
      <point x="501" y="172" type="curve" smooth="yes"/>
      <point x="501" y="59"/>
      <point x="465" y="16"/>
      <point x="306" y="16" type="curve" smooth="yes"/>
      <point x="149" y="16"/>
      <point x="110" y="59"/>
      <point x="110" y="172" type="curve" smooth="yes"/>
      <point x="110" y="324"/>
      <point x="147" y="346"/>
    </contour>
    <contour>
      <point x="306" y="675" type="curve" smooth="yes"/>
      <point x="455" y="675"/>
      <point x="487" y="634"/>
      <point x="487" y="518" type="curve" smooth="yes"/>
      <point x="487" y="391"/>
      <point x="458" y="369"/>
      <point x="307" y="369" type="curve" smooth="yes"/>
      <point x="160" y="369"/>
      <point x="124" y="389"/>
      <point x="124" y="518" type="curve" smooth="yes"/>
      <point x="124" y="634"/>
      <point x="159" y="675"/>
    </contour>
  </outline>
</glyph>
<glyph name="equal" format="2">
  <advance width="589"/>
  <unicode hex="003D"/>
  <outline>
    <contour>
      <point x="503" y="407" type="line"/>
      <point x="86" y="407" type="line"/>
      <point x="86" y="385" type="line"/>
      <point x="503" y="385" type="line"/>
    </contour>
    <contour>
      <point x="503" y="195" type="line"/>
      <point x="86" y="195" type="line"/>
      <point x="86" y="173" type="line"/>
      <point x="503" y="173" type="line"/>
    </contour>
  </outline>
</glyph>
<glyph name="at" format="2">
  <advance width="693"/>
  <unicode hex="0040"/>
  <outline>
    <contour>
      <point x="477" y="567" type="curve" smooth="yes"/>
      <point x="337" y="567" type="line" smooth="yes"/>
      <point x="118" y="565"/>
      <point x="94" y="533"/>
      <point x="94" y="264" type="curve" smooth="yes"/>
      <point x="94" y="-16"/>
      <point x="121" y="-51"/>
      <point x="363" y="-47" type="curve" smooth="yes"/>
      <point x="443" y="-47"/>
      <point x="523" y="-46"/>
      <point x="603" y="-44" type="curve"/>
      <point x="603" y="-25" type="line"/>
      <point x="362" y="-25" type="line" smooth="yes"/>
      <point x="143" y="-25"/>
      <point x="118" y="-8"/>
      <point x="118" y="265" type="curve" smooth="yes"/>
      <point x="118" y="529"/>
      <point x="144" y="545"/>
      <point x="338" y="545" type="curve" smooth="yes"/>
      <point x="476" y="545" type="line" smooth="yes"/>
      <point x="562" y="546"/>
      <point x="586" y="503"/>
      <point x="586" y="450" type="curve" smooth="yes"/>
      <point x="586" y="381" type="line"/>
      <point x="345" y="381" type="line" smooth="yes"/>
      <point x="273" y="381"/>
      <point x="231" y="346"/>
      <point x="231" y="283" type="curve" smooth="yes"/>
      <point x="231" y="229" type="line" smooth="yes"/>
      <point x="231" y="162"/>
      <point x="277" y="124"/>
      <point x="355" y="124" type="curve" smooth="yes"/>
      <point x="446" y="124"/>
      <point x="545" y="174"/>
      <point x="586" y="210" type="curve"/>
      <point x="591" y="129" type="line"/>
      <point x="608" y="129" type="line"/>
      <point x="608" y="450" type="line" smooth="yes"/>
      <point x="608" y="534"/>
      <point x="558" y="567"/>
    </contour>
    <contour>
      <point x="586" y="364" type="line"/>
      <point x="586" y="231" type="line"/>
      <point x="529" y="185"/>
      <point x="430" y="145"/>
      <point x="354" y="146" type="curve" smooth="yes"/>
      <point x="289" y="147"/>
      <point x="255" y="176"/>
      <point x="255" y="230" type="curve" smooth="yes"/>
      <point x="255" y="283" type="line" smooth="yes"/>
      <point x="255" y="332"/>
      <point x="287" y="358"/>
      <point x="345" y="360" type="curve" smooth="yes"/>
    </contour>
  </outline>
</glyph>
<glyph name="D" format="2">
  <advance width="659"/>
  <unicode hex="0044"/>
  <anchor x="321" y="-12" name="bottom"/>
  <anchor x="324" y="740" name="top"/>
  <outline>
    <contour>
      <point x="332" y="699" type="curve" smooth="yes"/>
      <point x="245" y="699"/>
      <point x="169" y="695"/>
      <point x="103" y="690" type="curve"/>
      <point x="113" y="672" type="line"/>
      <point x="178" y="674"/>
      <point x="246" y="676"/>
      <point x="332" y="676" type="curve" smooth="yes"/>
      <point x="498" y="676"/>
      <point x="557" y="590"/>
      <point x="557" y="345" type="curve" smooth="yes"/>
      <point x="557" y="100"/>
      <point x="498" y="14"/>
      <point x="332" y="14" type="curve" smooth="yes"/>
      <point x="247" y="14"/>
      <point x="180" y="16"/>
      <point x="116" y="17" type="curve"/>
      <point x="103" y="0" type="line"/>
      <point x="170" y="-5"/>
      <point x="244" y="-9"/>
      <point x="332" y="-9" type="curve" smooth="yes"/>
      <point x="517" y="-9"/>
      <point x="583" y="85"/>
      <point x="583" y="345" type="curve" smooth="yes"/>
      <point x="583" y="605"/>
      <point x="517" y="699"/>
    </contour>
    <contour>
      <point x="128" y="690" type="line"/>
      <point x="103" y="690" type="line"/>
      <point x="103" y="0" type="line"/>
      <point x="128" y="0" type="line"/>
    </contour>
  </outline>
</glyph>
<glyph name="G" format="2">
  <advance width="622"/>
  <unicode hex="0047"/>
  <anchor x="319" y="-12" name="bottom"/>
  <anchor x="324" y="740" name="top"/>
  <outline>
    <contour>
      <point x="334" y="702" type="curve" smooth="yes"/>
      <point x="143" y="702"/>
      <point x="76" y="608"/>
      <point x="76" y="345" type="curve" smooth="yes"/>
      <point x="76" y="95"/>
      <point x="140" y="-12"/>
      <point x="304" y="-12" type="curve" smooth="yes"/>
      <point x="395" y="-12"/>
      <point x="470" y="34"/>
      <point x="524" y="96" type="curve"/>
      <point x="518" y="114" type="line"/>
      <point x="465" y="66"/>
      <point x="405" y="11"/>
      <point x="306" y="11" type="curve" smooth="yes"/>
      <point x="158" y="11"/>
      <point x="102" y="111"/>
      <point x="102" y="345" type="curve" smooth="yes"/>
      <point x="102" y="593"/>
      <point x="161" y="679"/>
      <point x="334" y="679" type="curve" smooth="yes"/>
      <point x="418" y="679"/>
      <point x="461" y="676"/>
      <point x="524" y="667" type="curve"/>
      <point x="530" y="685" type="line"/>
      <point x="471" y="697"/>
      <point x="424" y="702"/>
    </contour>
    <contour>
      <point x="541" y="400" type="line"/>
      <point x="516" y="400" type="line"/>
      <point x="516" y="111" type="line"/>
      <point x="517" y="99" type="line"/>
      <point x="524" y="0" type="line"/>
      <point x="541" y="0" type="line"/>
    </contour>
  </outline>
</glyph>
<glyph name="H" format="2">
  <advance width="657"/>
  <unicode hex="0048"/>
  <anchor x="330" y="0" name="bottom"/>
  <anchor x="329" y="345" name="center"/>
  <anchor x="330" y="745" name="top"/>
  <outline>
    <contour>
      <point x="128" y="690" type="line"/>
      <point x="103" y="690" type="line"/>
      <point x="103" y="0" type="line"/>
      <point x="128" y="0" type="line"/>
    </contour>
    <contour>
      <point x="540" y="381" type="line"/>
      <point x="120" y="381" type="line"/>
      <point x="120" y="359" type="line"/>
      <point x="540" y="359" type="line"/>
    </contour>
    <contour>
      <point x="554" y="690" type="line"/>
      <point x="529" y="690" type="line"/>
      <point x="529" y="0" type="line"/>
      <point x="554" y="0" type="line"/>
    </contour>
  </outline>
</glyph>
<glyph name="J" format="2">
  <advance width="324"/>
  <unicode hex="004A"/>
  <anchor x="204" y="-1" name="bottom"/>
  <anchor x="208" y="745" name="top"/>
  <outline>
    <contour>
      <point x="224" y="690" type="line"/>
      <point x="199" y="690" type="line"/>
      <point x="199" y="116" type="line" smooth="yes"/>
      <point x="199" y="49"/>
      <point x="166" y="16"/>
      <point x="99" y="16" type="curve" smooth="yes"/>
      <point x="41" y="16" type="line"/>
      <point x="38" y="0" type="line"/>
      <point x="56" y="-3"/>
      <point x="84" y="-6"/>
      <point x="102" y="-6" type="curve" smooth="yes"/>
      <point x="184" y="-7"/>
      <point x="224" y="35"/>
      <point x="224" y="115" type="curve" smooth="yes"/>
    </contour>
  </outline>
</glyph>
<glyph name="L" format="2">
  <advance width="507"/>
  <unicode hex="004C"/>
  <anchor x="297" y="0" name="bottom"/>
  <anchor x="116" y="745" name="top"/>
  <outline>
    <contour>
      <point x="125" y="690" type="line"/>
      <point x="100" y="690" type="line"/>
      <point x="100" y="102" type="line" smooth="yes"/>
      <point x="100" y="43"/>
      <point x="143" y="0"/>
      <point x="202" y="0" type="curve" smooth="yes"/>
      <point x="294" y="0"/>
      <point x="387" y="0"/>
      <point x="479" y="4" type="curve"/>
      <point x="479" y="22" type="line"/>
      <point x="207" y="22" type="line" smooth="yes"/>
      <point x="159" y="22"/>
      <point x="125" y="56"/>
      <point x="125" y="104" type="curve" smooth="yes"/>
    </contour>
  </outline>
</glyph>
<glyph name="N" format="2">
  <advance width="688"/>
  <unicode hex="004E"/>
  <anchor x="344" y="0" name="bottom"/>
  <anchor x="358" y="740" name="top"/>
  <outline>
    <contour>
      <point x="585" y="690" type="line"/>
      <point x="560" y="690" type="line"/>
      <point x="560" y="112" type="line"/>
      <point x="560" y="82"/>
      <point x="560" y="52"/>
      <point x="560" y="22" type="curve"/>
      <point x="532" y="22" type="line"/>
      <point x="517" y="49"/>
      <point x="503" y="76"/>
      <point x="488" y="103" type="curve"/>
      <point x="175" y="679" type="line" smooth="yes"/>
      <point x="171" y="687"/>
      <point x="165" y="690"/>
      <point x="157" y="690" type="curve" smooth="yes"/>
      <point x="118" y="690" type="line" smooth="yes"/>
      <point x="108" y="690"/>
      <point x="103" y="685"/>
      <point x="103" y="675" type="curve" smooth="yes"/>
      <point x="103" y="0" type="line"/>
      <point x="128" y="0" type="line"/>
      <point x="128" y="599" type="line"/>
      <point x="128" y="622"/>
      <point x="128" y="645"/>
      <point x="128" y="668" type="curve"/>
      <point x="153" y="668" type="line"/>
      <point x="165" y="645"/>
      <point x="178" y="623"/>
      <point x="190" y="600" type="curve"/>
      <point x="510" y="11" type="line" smooth="yes"/>
      <point x="514" y="3"/>
      <point x="520" y="0"/>
      <point x="528" y="0" type="curve" smooth="yes"/>
      <point x="570" y="0" type="line" smooth="yes"/>
      <point x="580" y="0"/>
      <point x="585" y="5"/>
      <point x="585" y="15" type="curve" smooth="yes"/>
    </contour>
  </outline>
</glyph>
<glyph name="Q" format="2">
  <advance width="662"/>
  <unicode hex="0051"/>
  <outline>
    <contour>
      <point x="331" y="702" type="curve" smooth="yes"/>
      <point x="142" y="702"/>
      <point x="76" y="608"/>
      <point x="76" y="345" type="curve" smooth="yes"/>
      <point x="76" y="82"/>
      <point x="142" y="-12"/>
      <point x="331" y="-12" type="curve" smooth="yes"/>
      <point x="520" y="-12"/>
      <point x="586" y="82"/>
      <point x="586" y="345" type="curve" smooth="yes"/>
      <point x="586" y="608"/>
      <point x="520" y="702"/>
    </contour>
    <contour>
      <point x="298" y="-51" type="curve"/>
      <point x="286" y="-65" type="line"/>
      <point x="345" y="-114"/>
      <point x="427" y="-149"/>
      <point x="515" y="-161" type="curve"/>
      <point x="522" y="-136" type="line"/>
      <point x="429" y="-121"/>
      <point x="360" y="-95"/>
    </contour>
    <contour>
      <point x="331" y="679" type="curve" smooth="yes"/>
      <point x="501" y="679"/>
      <point x="560" y="593"/>
      <point x="560" y="345" type="curve" smooth="yes"/>
      <point x="560" y="97"/>
      <point x="501" y="11"/>
      <point x="331" y="11" type="curve" smooth="yes"/>
      <point x="161" y="11"/>
      <point x="102" y="97"/>
      <point x="102" y="345" type="curve" smooth="yes"/>
      <point x="102" y="593"/>
      <point x="161" y="679"/>
    </contour>
  </outline>
</glyph>
<glyph name="T" format="2">
  <advance width="564"/>
  <unicode hex="0054"/>
  <anchor x="282" y="0" name="bottom"/>
  <anchor x="282" y="345" name="center"/>
  <anchor x="283" y="740" name="top"/>
  <outline>
    <contour>
      <point x="294" y="690" type="line"/>
      <point x="269" y="690" type="line"/>
      <point x="269" y="0" type="line"/>
      <point x="294" y="0" type="line"/>
    </contour>
    <contour>
      <point x="537" y="690" type="line"/>
      <point x="27" y="690" type="line"/>
      <point x="27" y="668" type="line"/>
      <point x="537" y="668" type="line"/>
    </contour>
  </outline>
</glyph>
<glyph name="W" format="2">
  <advance width="930"/>
  <unicode hex="0057"/>
  <guideline x="467" y="587" angle="0"/>
  <anchor x="466" y="740" name="top"/>
  <outline>
    <contour>
      <point x="897" y="690" type="line"/>
      <point x="871" y="690" type="line"/>
      <point x="711" y="90" type="line" smooth="yes"/>
      <point x="705" y="67"/>
      <point x="699" y="45"/>
      <point x="693" y="22" type="curve"/>
      <point x="665" y="22" type="line"/>
      <point x="659" y="45"/>
      <point x="654" y="68"/>
      <point x="648" y="91" type="curve" smooth="yes"/>
      <point x="498" y="679" type="line" smooth="yes"/>
      <point x="496" y="686"/>
      <point x="491" y="690"/>
      <point x="484" y="690" type="curve" smooth="yes"/>
      <point x="446" y="690" type="line" smooth="yes"/>
      <point x="439" y="690"/>
      <point x="434" y="686"/>
      <point x="432" y="679" type="curve" smooth="yes"/>
      <point x="282" y="90" type="line" smooth="yes"/>
      <point x="276" y="67"/>
      <point x="271" y="45"/>
      <point x="265" y="22" type="curve"/>
      <point x="237" y="22" type="line"/>
      <point x="231" y="45"/>
      <point x="225" y="68"/>
      <point x="219" y="91" type="curve" smooth="yes"/>
      <point x="59" y="690" type="line"/>
      <point x="33" y="690" type="line"/>
      <point x="216" y="10" type="line" smooth="yes"/>
      <point x="218" y="4"/>
      <point x="223" y="0"/>
      <point x="230" y="0" type="curve" smooth="yes"/>
      <point x="272" y="0" type="line" smooth="yes"/>
      <point x="279" y="0"/>
      <point x="284" y="4"/>
      <point x="286" y="11" type="curve" smooth="yes"/>
      <point x="433" y="591" type="line" smooth="yes"/>
      <point x="440" y="617"/>
      <point x="446" y="642"/>
      <point x="453" y="668" type="curve"/>
      <point x="477" y="668" type="line"/>
      <point x="484" y="642"/>
      <point x="490" y="617"/>
      <point x="497" y="591" type="curve" smooth="yes"/>
      <point x="644" y="11" type="line" smooth="yes"/>
      <point x="646" y="4"/>
      <point x="651" y="0"/>
      <point x="658" y="0" type="curve" smooth="yes"/>
      <point x="700" y="0" type="line" smooth="yes"/>
      <point x="707" y="0"/>
      <point x="712" y="4"/>
      <point x="714" y="10" type="curve" smooth="yes"/>
    </contour>
  </outline>
</glyph>
<glyph name="X" format="2">
  <advance width="593"/>
  <unicode hex="0058"/>
  <outline>
    <contour>
      <point x="542" y="690" type="line"/>
      <point x="512" y="690" type="line"/>
      <point x="306" y="360" type="line"/>
      <point x="525" y="0" type="line"/>
      <point x="555" y="0" type="line"/>
      <point x="336" y="360" type="line"/>
    </contour>
    <contour>
      <point x="81" y="690" type="line"/>
      <point x="51" y="690" type="line"/>
      <point x="257" y="360" type="line"/>
      <point x="38" y="0" type="line"/>
      <point x="68" y="0" type="line"/>
      <point x="287" y="360" type="line"/>
    </contour>
    <contour>
      <point x="327" y="372" type="line"/>
      <point x="275" y="372" type="line"/>
      <point x="275" y="350" type="line"/>
      <point x="327" y="350" type="line"/>
    </contour>
  </outline>
</glyph>
<glyph name="Z" format="2">
  <advance width="558"/>
  <unicode hex="005A"/>
  <anchor x="278" y="0" name="bottom"/>
  <anchor x="279" y="740" name="top"/>
  <outline>
    <contour>
      <point x="474" y="668" type="line"/>
      <point x="52" y="23" type="line"/>
      <point x="80" y="22" type="line"/>
      <point x="502" y="667" type="line"/>
    </contour>
    <contour>
      <point x="507" y="23" type="line"/>
      <point x="52" y="23" type="line"/>
      <point x="52" y="0" type="line"/>
      <point x="507" y="0" type="line"/>
    </contour>
    <contour>
      <point x="502" y="690" type="line"/>
      <point x="55" y="690" type="line"/>
      <point x="55" y="667" type="line"/>
      <point x="502" y="667" type="line"/>
    </contour>
  </outline>
</glyph>
<glyph name="bracketleft" format="2">
  <advance width="312"/>
  <unicode hex="005B"/>
  <outline>
    <contour>
      <point x="262" y="768" type="line"/>
      <point x="137" y="768" type="line" smooth="yes"/>
      <point x="119" y="768"/>
      <point x="106" y="755"/>
      <point x="106" y="737" type="curve" smooth="yes"/>
      <point x="106" y="-134" type="line" smooth="yes"/>
      <point x="106" y="-152"/>
      <point x="119" y="-165"/>
      <point x="137" y="-165" type="curve" smooth="yes"/>
      <point x="262" y="-165" type="line"/>
      <point x="262" y="-143" type="line"/>
      <point x="142" y="-143" type="line" smooth="yes"/>
      <point x="135" y="-143"/>
      <point x="130" y="-138"/>
      <point x="130" y="-131" type="curve" smooth="yes"/>
      <point x="130" y="734" type="line" smooth="yes"/>
      <point x="130" y="741"/>
      <point x="135" y="746"/>
      <point x="142" y="746" type="curve" smooth="yes"/>
      <point x="262" y="746" type="line"/>
    </contour>
  </outline>
</glyph>
<glyph name="backslash" format="2">
  <advance width="494"/>
  <unicode hex="005C"/>
  <outline>
    <contour>
      <point x="63" y="690" type="line"/>
      <point x="38" y="690" type="line"/>
      <point x="431" y="-59" type="line"/>
      <point x="456" y="-59" type="line"/>
    </contour>
  </outline>
</glyph>
<glyph name="underscore" format="2">
  <advance width="431"/>
  <unicode hex="005F"/>
  <outline>
    <contour>
      <point x="431" y="0" type="line"/>
      <point x="0" y="0" type="line"/>
      <point x="0" y="-22" type="line"/>
      <point x="431" y="-22" type="line"/>
    </contour>
  </outline>
</glyph>
<glyph name="d" format="2">
  <advance width="561"/>
  <unicode hex="0064"/>
  <anchor x="286" y="-12" name="bottom"/>
  <anchor x="453" y="706" name="top"/>
  <outline>
    <contour>
      <point x="245" y="492" type="curve" smooth="yes"/>
      <point x="119" y="492"/>
      <point x="71" y="422"/>
      <point x="71" y="240" type="curve" smooth="yes"/>
      <point x="71" y="58"/>
      <point x="119" y="-12"/>
      <point x="245" y="-12" type="curve" smooth="yes"/>
      <point x="311" y="-12"/>
      <point x="373" y="21"/>
      <point x="444" y="84" type="curve"/>
      <point x="446" y="110" type="line"/>
      <point x="364" y="41"/>
      <point x="309" y="11"/>
      <point x="245" y="11" type="curve" smooth="yes"/>
      <point x="138" y="11"/>
      <point x="96" y="72"/>
      <point x="96" y="240" type="curve" smooth="yes"/>
      <point x="96" y="408"/>
      <point x="138" y="469"/>
      <point x="245" y="469" type="curve" smooth="yes"/>
      <point x="309" y="469"/>
      <point x="364" y="452"/>
      <point x="446" y="419" type="curve"/>
      <point x="446" y="442" type="line"/>
      <point x="375" y="473"/>
      <point x="311" y="492"/>
    </contour>
    <contour>
      <point x="466" y="700" type="line"/>
      <point x="442" y="700" type="line"/>
      <point x="442" y="535" type="line"/>
      <point x="442" y="500"/>
      <point x="441" y="477"/>
      <point x="445" y="442" type="curve"/>
      <point x="442" y="426" type="line"/>
      <point x="442" y="88" type="line"/>
      <point x="444" y="84" type="line"/>
      <point x="448" y="0" type="line"/>
      <point x="466" y="0" type="line"/>
    </contour>
  </outline>
</glyph>
<glyph name="f" format="2">
  <advance width="354"/>
  <unicode hex="0066"/>
  <outline>
    <contour>
      <point x="247" y="714" type="curve" smooth="yes"/>
      <point x="155" y="714"/>
      <point x="122" y="669"/>
      <point x="122" y="581" type="curve" smooth="yes"/>
      <point x="122" y="0" type="line"/>
      <point x="146" y="0" type="line"/>
      <point x="146" y="581" type="line" smooth="yes"/>
      <point x="146" y="663"/>
      <point x="175" y="692"/>
      <point x="255" y="692" type="curve" smooth="yes"/>
      <point x="365" y="692" type="line"/>
      <point x="365" y="710" type="line"/>
      <point x="331" y="713"/>
      <point x="275" y="714"/>
    </contour>
    <contour>
      <point x="324" y="480" type="line"/>
      <point x="128" y="480" type="line"/>
      <point x="35" y="475" type="line"/>
      <point x="35" y="458" type="line"/>
      <point x="324" y="458" type="line"/>
    </contour>
  </outline>
</glyph>
<glyph name="g" format="2">
  <advance width="545"/>
  <unicode hex="0067"/>
  <anchor x="270" y="558" name="top"/>
  <outline>
    <contour>
      <point x="269" y="492" type="curve" smooth="yes"/>
      <point x="131" y="492"/>
      <point x="77" y="441"/>
      <point x="77" y="343" type="curve" smooth="yes"/>
      <point x="77" y="244"/>
      <point x="132" y="196"/>
      <point x="269" y="196" type="curve" smooth="yes"/>
      <point x="406" y="196"/>
      <point x="459" y="244"/>
      <point x="459" y="343" type="curve" smooth="yes"/>
      <point x="459" y="441"/>
      <point x="407" y="492"/>
    </contour>
    <contour>
      <point x="269" y="470" type="curve" smooth="yes"/>
      <point x="392" y="470"/>
      <point x="435" y="427"/>
      <point x="435" y="343" type="curve" smooth="yes"/>
      <point x="435" y="258"/>
      <point x="391" y="218"/>
      <point x="269" y="218" type="curve" smooth="yes"/>
      <point x="147" y="218"/>
      <point x="101" y="258"/>
      <point x="101" y="343" type="curve" smooth="yes"/>
      <point x="101" y="427"/>
      <point x="146" y="470"/>
    </contour>
    <contour>
      <point x="516" y="480" type="line"/>
      <point x="360" y="480" type="line"/>
      <point x="395" y="458" type="line"/>
      <point x="513" y="462" type="line"/>
    </contour>
    <contour>
      <point x="136" y="230" type="line"/>
      <point x="74" y="183"/>
      <point x="70" y="86"/>
      <point x="175" y="67" type="curve" smooth="yes"/>
      <point x="374" y="32" type="line" smooth="yes"/>
      <point x="446" y="19"/>
      <point x="461" y="-10"/>
      <point x="461" y="-74" type="curve" smooth="yes"/>
      <point x="461" y="-159"/>
      <point x="409" y="-189"/>
      <point x="274" y="-189" type="curve" smooth="yes"/>
      <point x="133" y="-189"/>
      <point x="81" y="-159"/>
      <point x="81" y="-74" type="curve" smooth="yes"/>
      <point x="81" y="-11"/>
      <point x="90" y="19"/>
      <point x="138" y="47" type="curve" smooth="yes"/>
      <point x="189" y="78" type="line"/>
      <point x="164" y="85" type="line"/>
      <point x="122" y="62" type="line" smooth="yes"/>
      <point x="67" y="32"/>
      <point x="57" y="-7"/>
      <point x="57" y="-74" type="curve" smooth="yes"/>
      <point x="57" y="-176"/>
      <point x="115" y="-212"/>
      <point x="274" y="-212" type="curve" smooth="yes"/>
      <point x="426" y="-212"/>
      <point x="485" y="-176"/>
      <point x="485" y="-74" type="curve" smooth="yes"/>
      <point x="485" y="2"/>
      <point x="465" y="38"/>
      <point x="381" y="53" type="curve" smooth="yes"/>
      <point x="188" y="87" type="line" smooth="yes"/>
      <point x="93" y="104"/>
      <point x="102" y="177"/>
      <point x="156" y="227" type="curve"/>
    </contour>
  </outline>
</glyph>
<glyph name="k" format="2">
  <advance width="473"/>
  <unicode hex="006B"/>
  <anchor x="236" y="0" name="bottom"/>
  <outline>
    <contour>
      <point x="424" y="480" type="line"/>
      <point x="392" y="480" type="line"/>
      <point x="189" y="276" type="line"/>
      <point x="409" y="0" type="line"/>
      <point x="440" y="0" type="line"/>
      <point x="243" y="248" type="line" smooth="yes"/>
      <point x="237" y="256"/>
      <point x="226" y="267"/>
      <point x="220" y="273" type="curve"/>
      <point x="220" y="275" type="line"/>
      <point x="226" y="279"/>
      <point x="237" y="289"/>
      <point x="243" y="295" type="curve" smooth="yes"/>
    </contour>
    <contour>
      <point x="118" y="700" type="line"/>
      <point x="94" y="700" type="line"/>
      <point x="94" y="0" type="line"/>
      <point x="118" y="0" type="line"/>
      <point x="118" y="177" type="line" smooth="yes"/>
      <point x="118" y="210"/>
      <point x="118" y="239"/>
      <point x="115" y="275" type="curve"/>
      <point x="119" y="310"/>
      <point x="120" y="333"/>
      <point x="120" y="368" type="curve" smooth="yes"/>
    </contour>
    <contour>
      <point x="218" y="286" type="line"/>
      <point x="103" y="286" type="line"/>
      <point x="103" y="264" type="line"/>
      <point x="218" y="264" type="line"/>
    </contour>
  </outline>
</glyph>
<glyph name="l" format="2">
  <advance width="270"/>
  <unicode hex="006C"/>
  <anchor x="186" y="0" name="bottom"/>
  <anchor x="108" y="763" name="top"/>
  <outline>
    <contour>
      <point x="119" y="700" type="line"/>
      <point x="95" y="700" type="line"/>
      <point x="95" y="95" type="line" smooth="yes"/>
      <point x="95" y="30"/>
      <point x="135" y="-6"/>
      <point x="196" y="-6" type="curve" smooth="yes"/>
      <point x="214" y="-6"/>
      <point x="247" y="-4"/>
      <point x="260" y="0" type="curve"/>
      <point x="257" y="16" type="line"/>
      <point x="199" y="16" type="line" smooth="yes"/>
      <point x="148" y="16"/>
      <point x="119" y="44"/>
      <point x="119" y="96" type="curve" smooth="yes"/>
    </contour>
  </outline>
</glyph>
<glyph name="n" format="2">
  <advance width="570"/>
  <unicode hex="006E"/>
  <anchor x="285" y="0" name="bottom"/>
  <anchor x="293" y="558" name="top"/>
  <outline>
    <contour>
      <point x="350" y="492" type="curve" smooth="yes"/>
      <point x="275" y="492"/>
      <point x="199" y="458"/>
      <point x="116" y="392" type="curve"/>
      <point x="116" y="369" type="line"/>
      <point x="210" y="435"/>
      <point x="272" y="469"/>
      <point x="345" y="469" type="curve" smooth="yes"/>
      <point x="419" y="469"/>
      <point x="455" y="434"/>
      <point x="455" y="358" type="curve" smooth="yes"/>
      <point x="455" y="0" type="line"/>
      <point x="479" y="0" type="line"/>
      <point x="479" y="361" type="line" smooth="yes"/>
      <point x="479" y="447"/>
      <point x="435" y="492"/>
    </contour>
    <contour>
      <point x="113" y="480" type="line"/>
      <point x="95" y="480" type="line"/>
      <point x="95" y="0" type="line"/>
      <point x="119" y="0" type="line"/>
      <point x="119" y="376" type="line"/>
      <point x="116" y="392" type="line"/>
    </contour>
  </outline>
</glyph>
<glyph name="o" format="2">
  <advance width="560"/>
  <unicode hex="006F"/>
  <anchor x="280" y="0" name="bottom"/>
  <anchor x="311" y="2" name="ogonek"/>
  <anchor x="279" y="558" name="top"/>
  <outline>
    <contour>
      <point x="280" y="492" type="curve" smooth="yes"/>
      <point x="125" y="492"/>
      <point x="70" y="425"/>
      <point x="70" y="240" type="curve" smooth="yes"/>
      <point x="70" y="55"/>
      <point x="125" y="-12"/>
      <point x="280" y="-12" type="curve" smooth="yes"/>
      <point x="435" y="-12"/>
      <point x="490" y="55"/>
      <point x="490" y="240" type="curve" smooth="yes"/>
      <point x="490" y="425"/>
      <point x="435" y="492"/>
    </contour>
    <contour>
      <point x="280" y="469" type="curve" smooth="yes"/>
      <point x="416" y="469"/>
      <point x="465" y="413"/>
      <point x="465" y="240" type="curve" smooth="yes"/>
      <point x="465" y="67"/>
      <point x="416" y="11"/>
      <point x="280" y="11" type="curve" smooth="yes"/>
      <point x="144" y="11"/>
      <point x="95" y="67"/>
      <point x="95" y="240" type="curve" smooth="yes"/>
      <point x="95" y="413"/>
      <point x="144" y="469"/>
    </contour>
  </outline>
</glyph>
<glyph name="r" format="2">
  <advance width="383"/>
  <unicode hex="0072"/>
  <anchor x="108" y="0" name="bottom"/>
  <anchor x="221" y="558" name="top"/>
  <outline>
    <contour>
      <point x="113" y="480" type="line"/>
      <point x="95" y="480" type="line"/>
      <point x="95" y="0" type="line"/>
      <point x="119" y="0" type="line"/>
      <point x="119" y="376" type="line"/>
      <point x="116" y="392" type="line"/>
    </contour>
    <contour>
      <point x="360" y="492" type="line"/>
      <point x="341" y="492" type="line"/>
      <point x="269" y="492"/>
      <point x="196" y="455"/>
      <point x="116" y="392" type="curve"/>
      <point x="116" y="369" type="line"/>
      <point x="207" y="433"/>
      <point x="268" y="469"/>
      <point x="338" y="469" type="curve" smooth="yes"/>
      <point x="355" y="469" type="line"/>
    </contour>
  </outline>
</glyph>
<glyph name="v" format="2">
  <advance width="507"/>
  <unicode hex="0076"/>
  <outline>
    <contour>
      <point x="477" y="480" type="line"/>
      <point x="451" y="480" type="line"/>
      <point x="299" y="114" type="line" smooth="yes"/>
      <point x="286" y="83"/>
      <point x="273" y="53"/>
      <point x="260" y="22" type="curve"/>
      <point x="247" y="22" type="line"/>
      <point x="234" y="52"/>
      <point x="222" y="83"/>
      <point x="209" y="113" type="curve" smooth="yes"/>
      <point x="56" y="480" type="line"/>
      <point x="30" y="480" type="line"/>
      <point x="227" y="8" type="line" smooth="yes"/>
      <point x="230" y="3"/>
      <point x="234" y="0"/>
      <point x="240" y="0" type="curve" smooth="yes"/>
      <point x="267" y="0" type="line" smooth="yes"/>
      <point x="273" y="0"/>
      <point x="277" y="3"/>
      <point x="280" y="8" type="curve" smooth="yes"/>
    </contour>
  </outline>
</glyph>
<glyph name="w" format="2">
  <advance width="812"/>
  <unicode hex="0077"/>
  <guideline x="387" y="86" angle="0"/>
  <guideline x="406" y="385" angle="0"/>
  <anchor x="406" y="558" name="top"/>
  <outline>
    <contour>
      <point x="778" y="480" type="line"/>
      <point x="752" y="480" type="line"/>
      <point x="614" y="87" type="line"/>
      <point x="606" y="65"/>
      <point x="600" y="44"/>
      <point x="592" y="22" type="curve"/>
      <point x="578" y="22" type="line"/>
      <point x="571" y="44"/>
      <point x="564" y="65"/>
      <point x="557" y="87" type="curve"/>
      <point x="431" y="471" type="line" smooth="yes"/>
      <point x="429" y="476"/>
      <point x="424" y="480"/>
      <point x="418" y="480" type="curve" smooth="yes"/>
      <point x="394" y="480" type="line" smooth="yes"/>
      <point x="388" y="480"/>
      <point x="383" y="476"/>
      <point x="381" y="471" type="curve" smooth="yes"/>
      <point x="255" y="87" type="line" smooth="yes"/>
      <point x="248" y="65"/>
      <point x="241" y="44"/>
      <point x="234" y="22" type="curve"/>
      <point x="220" y="22" type="line"/>
      <point x="212" y="43"/>
      <point x="206" y="65"/>
      <point x="198" y="86" type="curve" smooth="yes"/>
      <point x="60" y="480" type="line"/>
      <point x="34" y="480" type="line"/>
      <point x="201" y="9" type="line" smooth="yes"/>
      <point x="203" y="3"/>
      <point x="208" y="0"/>
      <point x="214" y="0" type="curve" smooth="yes"/>
      <point x="240" y="0" type="line" smooth="yes"/>
      <point x="246" y="0"/>
      <point x="251" y="4"/>
      <point x="253" y="9" type="curve" smooth="yes"/>
      <point x="377" y="386" type="line"/>
      <point x="385" y="410"/>
      <point x="393" y="434"/>
      <point x="401" y="458" type="curve"/>
      <point x="411" y="458" type="line"/>
      <point x="419" y="434"/>
      <point x="426" y="410"/>
      <point x="434" y="386" type="curve"/>
      <point x="559" y="9" type="line" smooth="yes"/>
      <point x="561" y="4"/>
      <point x="566" y="0"/>
      <point x="572" y="0" type="curve" smooth="yes"/>
      <point x="598" y="0" type="line" smooth="yes"/>
      <point x="604" y="0"/>
      <point x="609" y="3"/>
      <point x="611" y="9" type="curve" smooth="yes"/>
    </contour>
  </outline>
</glyph>
<glyph name="y" format="2">
  <advance width="506"/>
  <unicode hex="0079"/>
  <anchor x="394" y="-11" name="bottom"/>
  <anchor x="256" y="558" name="top"/>
  <outline>
    <contour>
      <point x="477" y="480" type="line"/>
      <point x="451" y="480" type="line"/>
      <point x="282" y="76" type="line" smooth="yes"/>
      <point x="273" y="54"/>
      <point x="263" y="30"/>
      <point x="254" y="9" type="curve" smooth="yes"/>
      <point x="235" y="-38" type="line" smooth="yes"/>
      <point x="208" y="-108"/>
      <point x="175" y="-165"/>
      <point x="95" y="-196" type="curve"/>
      <point x="101" y="-210" type="line"/>
      <point x="187" y="-185"/>
      <point x="222" y="-126"/>
      <point x="256" y="-47" type="curve" smooth="yes"/>
    </contour>
    <contour>
      <point x="56" y="480" type="line"/>
      <point x="30" y="480" type="line"/>
      <point x="227" y="8" type="line" smooth="yes"/>
      <point x="230" y="3"/>
      <point x="234" y="0"/>
      <point x="240" y="0" type="curve" smooth="yes"/>
      <point x="256" y="0" type="line"/>
      <point x="266" y="22" type="line"/>
      <point x="247" y="22" type="line"/>
      <point x="240" y="39"/>
      <point x="232" y="57"/>
      <point x="225" y="74" type="curve" smooth="yes"/>
    </contour>
  </outline>
</glyph>
<glyph name="z" format="2">
  <advance width="499"/>
  <unicode hex="007A"/>
  <anchor x="255" y="-11" name="bottom"/>
  <anchor x="245" y="558" name="top"/>
  <outline>
    <contour>
      <point x="413" y="459" type="line"/>
      <point x="53" y="22" type="line"/>
      <point x="83" y="21" type="line"/>
      <point x="443" y="458" type="line"/>
    </contour>
    <contour>
      <point x="446" y="22" type="line"/>
      <point x="53" y="22" type="line"/>
      <point x="53" y="0" type="line"/>
      <point x="446" y="0" type="line"/>
    </contour>
    <contour>
      <point x="443" y="480" type="line"/>
      <point x="56" y="480" type="line"/>
      <point x="56" y="458" type="line"/>
      <point x="443" y="458" type="line"/>
    </contour>
  </outline>
</glyph>
<glyph name="braceright" format="2">
  <advance width="298"/>
  <unicode hex="007D"/>
  <outline>
    <contour>
      <point x="50" y="768" type="curve"/>
      <point x="50" y="750" type="line"/>
      <point x="130" y="750"/>
      <point x="153" y="713"/>
      <point x="153" y="642" type="curve" smooth="yes"/>
      <point x="153" y="437" type="line" smooth="yes"/>
      <point x="153" y="356"/>
      <point x="169" y="342"/>
      <point x="229" y="328" type="curve"/>
      <point x="166" y="306"/>
      <point x="149" y="293"/>
      <point x="149" y="223" type="curve" smooth="yes"/>
      <point x="149" y="-39" type="line" smooth="yes"/>
      <point x="149" y="-109"/>
      <point x="126" y="-147"/>
      <point x="46" y="-147" type="curve"/>
      <point x="46" y="-165" type="line"/>
      <point x="138" y="-165"/>
      <point x="173" y="-128"/>
      <point x="173" y="-39" type="curve" smooth="yes"/>
      <point x="173" y="233" type="line" smooth="yes"/>
      <point x="173" y="290"/>
      <point x="193" y="295"/>
      <point x="242" y="313" type="curve"/>
      <point x="242" y="343" type="line"/>
      <point x="189" y="359"/>
      <point x="177" y="359"/>
      <point x="177" y="427" type="curve" smooth="yes"/>
      <point x="177" y="642" type="line" smooth="yes"/>
      <point x="177" y="731"/>
      <point x="142" y="768"/>
    </contour>
  </outline>
</glyph>
<glyph name="asciitilde" format="2">
  <advance width="533"/>
  <unicode hex="007E"/>
  <outline>
    <contour>
      <point x="162" y="330" type="curve" smooth="yes"/>
      <point x="115" y="334"/>
      <point x="85" y="302"/>
      <point x="87" y="241" type="curve"/>
      <point x="104" y="241" type="line"/>
      <point x="104" y="290"/>
      <point x="121" y="312"/>
      <point x="162" y="308" type="curve" smooth="yes"/>
      <point x="240" y="303"/>
      <point x="270" y="245"/>
      <point x="372" y="240" type="curve" smooth="yes"/>
      <point x="419" y="236"/>
      <point x="449" y="267"/>
      <point x="447" y="325" type="curve"/>
      <point x="430" y="325" type="line"/>
      <point x="430" y="278"/>
      <point x="413" y="259"/>
      <point x="372" y="262" type="curve" smooth="yes"/>
      <point x="285" y="267"/>
      <point x="249" y="325"/>
    </contour>
  </outline>
</glyph>
<glyph name="exclamdown" format="2">
  <advance width="233"/>
  <unicode hex="00A1"/>
  <outline>
    <contour>
      <point x="127" y="277" type="line"/>
      <point x="106" y="277" type="line"/>
      <point x="104" y="126" type="line"/>
      <point x="104" y="-205" type="line"/>
      <point x="129" y="-205" type="line"/>
      <point x="129" y="126" type="line"/>
    </contour>
    <contour>
      <point x="122" y="480" type="curve" smooth="yes"/>
      <point x="112" y="480" type="line" smooth="yes"/>
      <point x="104" y="480"/>
      <point x="100" y="476"/>
      <point x="100" y="468" type="curve" smooth="yes"/>
      <point x="100" y="406" type="line" smooth="yes"/>
      <point x="100" y="398"/>
      <point x="104" y="394"/>
      <point x="112" y="394" type="curve" smooth="yes"/>
      <point x="122" y="394" type="line" smooth="yes"/>
      <point x="130" y="394"/>
      <point x="134" y="398"/>
      <point x="134" y="406" type="curve" smooth="yes"/>
      <point x="134" y="468" type="line" smooth="yes"/>
      <point x="134" y="476"/>
      <point x="130" y="480"/>
    </contour>
  </outline>
</glyph>
<glyph name="cent" format="2">
  <advance width="504"/>
  <unicode hex="00A2"/>
  <outline>
    <contour>
      <point x="288" y="602" type="curve" smooth="yes"/>
      <point x="129" y="602"/>
      <point x="69" y="535"/>
      <point x="69" y="350" type="curve" smooth="yes"/>
      <point x="69" y="165"/>
      <point x="129" y="98"/>
      <point x="289" y="98" type="curve" smooth="yes"/>
      <point x="337" y="98"/>
      <point x="390" y="105"/>
      <point x="434" y="115" type="curve"/>
      <point x="430" y="133" type="line"/>
      <point x="386" y="124"/>
      <point x="320" y="121"/>
      <point x="292" y="121" type="curve" smooth="yes"/>
      <point x="147" y="121"/>
      <point x="94" y="173"/>
      <point x="94" y="350" type="curve" smooth="yes"/>
      <point x="94" y="527"/>
      <point x="147" y="579"/>
      <point x="292" y="579" type="curve" smooth="yes"/>
      <point x="324" y="579"/>
      <point x="382" y="576"/>
      <point x="417" y="567" type="curve"/>
      <point x="423" y="585" type="line"/>
      <point x="381" y="598"/>
      <point x="324" y="602"/>
    </contour>
    <contour>
      <point x="271" y="113" type="line"/>
      <point x="250" y="113" type="line"/>
      <point x="242" y="0" type="line"/>
      <point x="263" y="0" type="line"/>
    </contour>
    <contour>
      <point x="304" y="589" type="line"/>
      <point x="283" y="589" type="line"/>
      <point x="250" y="110" type="line"/>
      <point x="271" y="110" type="line"/>
    </contour>
    <contour>
      <point x="311" y="690" type="line"/>
      <point x="290" y="690" type="line"/>
      <point x="283" y="586" type="line"/>
      <point x="304" y="586" type="line"/>
    </contour>
  </outline>
</glyph>
<glyph name="currency" format="2">
  <advance width="602"/>
  <unicode hex="00A4"/>
  <outline>
    <contour>
      <point x="300" y="523" type="curve" smooth="yes"/>
      <point x="393" y="523"/>
      <point x="469" y="446"/>
      <point x="469" y="352" type="curve" smooth="yes"/>
      <point x="469" y="258"/>
      <point x="393" y="181"/>
      <point x="300" y="182" type="curve" smooth="yes"/>
      <point x="206" y="181"/>
      <point x="130" y="258"/>
      <point x="130" y="352" type="curve" smooth="yes"/>
      <point x="130" y="446"/>
      <point x="206" y="523"/>
    </contour>
    <contour>
      <point x="98" y="569" type="line"/>
      <point x="84" y="554" type="line"/>
      <point x="165" y="473" type="line"/>
      <point x="180" y="487" type="line"/>
    </contour>
    <contour>
      <point x="503" y="569" type="line"/>
      <point x="423" y="489" type="line"/>
      <point x="437" y="475" type="line"/>
      <point x="517" y="554" type="line"/>
    </contour>
    <contour>
      <point x="169" y="235" type="line"/>
      <point x="83" y="149" type="line"/>
      <point x="98" y="135" type="line"/>
      <point x="183" y="221" type="line"/>
    </contour>
    <contour>
      <point x="433" y="233" type="line"/>
      <point x="419" y="219" type="line"/>
      <point x="503" y="135" type="line"/>
      <point x="518" y="149" type="line"/>
    </contour>
    <contour>
      <point x="300" y="543" type="curve" smooth="yes"/>
      <point x="194" y="543"/>
      <point x="109" y="458"/>
      <point x="109" y="352" type="curve" smooth="yes"/>
      <point x="109" y="247"/>
      <point x="194" y="162"/>
      <point x="300" y="162" type="curve" smooth="yes"/>
      <point x="405" y="162"/>
      <point x="490" y="247"/>
      <point x="490" y="352" type="curve" smooth="yes"/>
      <point x="490" y="458"/>
      <point x="406" y="543"/>
    </contour>
  </outline>
</glyph>
<glyph name="brokenbar" format="2">
  <advance width="236"/>
  <unicode hex="00A6"/>
  <outline>
    <contour>
      <point x="129" y="781" type="line"/>
      <point x="107" y="781" type="line"/>
      <point x="107" y="381" type="line"/>
      <point x="129" y="381" type="line"/>
    </contour>
    <contour>
      <point x="129" y="231" type="line"/>
      <point x="107" y="231" type="line"/>
      <point x="107" y="-169" type="line"/>
      <point x="129" y="-169" type="line"/>
    </contour>
  </outline>
</glyph>
<glyph name="dieresis" format="2">
  <advance width="399"/>
  <unicode hex="00A8"/>
  <anchor x="200" y="557" name="_top"/>
  <outline>
    <contour>
      <point x="293" y="673" type="curve" smooth="yes"/>
      <point x="283" y="673" type="line" smooth="yes"/>
      <point x="276" y="673"/>
      <point x="273" y="669"/>
      <point x="273" y="662" type="curve" smooth="yes"/>
      <point x="273" y="606" type="line" smooth="yes"/>
      <point x="273" y="599"/>
      <point x="276" y="595"/>
      <point x="283" y="595" type="curve" smooth="yes"/>
      <point x="293" y="595" type="line" smooth="yes"/>
      <point x="300" y="595"/>
      <point x="303" y="599"/>
      <point x="303" y="606" type="curve" smooth="yes"/>
      <point x="303" y="662" type="line" smooth="yes"/>
      <point x="303" y="669"/>
      <point x="300" y="673"/>
    </contour>
    <contour>
      <point x="116" y="673" type="curve" smooth="yes"/>
      <point x="106" y="673" type="line" smooth="yes"/>
      <point x="99" y="673"/>
      <point x="96" y="669"/>
      <point x="96" y="662" type="curve" smooth="yes"/>
      <point x="96" y="606" type="line" smooth="yes"/>
      <point x="96" y="599"/>
      <point x="99" y="595"/>
      <point x="106" y="595" type="curve" smooth="yes"/>
      <point x="116" y="595" type="line" smooth="yes"/>
      <point x="123" y="595"/>
      <point x="126" y="599"/>
      <point x="126" y="606" type="curve" smooth="yes"/>
      <point x="126" y="662" type="line" smooth="yes"/>
      <point x="126" y="669"/>
      <point x="123" y="673"/>
    </contour>
  </outline>
</glyph>
<glyph name="ordfeminine" format="2">
  <advance width="444"/>
  <unicode hex="00AA"/>
  <outline>
    <contour>
      <point x="258" y="600" type="curve" smooth="yes"/>
      <point x="187" y="600"/>
      <point x="139" y="592"/>
      <point x="93" y="586" type="curve"/>
      <point x="96" y="570" type="line"/>
      <point x="146" y="576"/>
      <point x="205" y="580"/>
      <point x="256" y="580" type="curve" smooth="yes"/>
      <point x="315" y="580"/>
      <point x="333" y="548"/>
      <point x="333" y="508" type="curve" smooth="yes"/>
      <point x="333" y="346" type="line"/>
      <point x="333" y="341" type="line"/>
      <point x="338" y="270" type="line"/>
      <point x="355" y="270" type="line"/>
      <point x="355" y="508" type="line" smooth="yes"/>
      <point x="355" y="575"/>
      <point x="318" y="600"/>
    </contour>
    <contour>
      <point x="340" y="465" type="line"/>
      <point x="163" y="465" type="line" smooth="yes"/>
      <point x="109" y="465"/>
      <point x="79" y="437"/>
      <point x="79" y="389" type="curve" smooth="yes"/>
      <point x="79" y="348" type="line" smooth="yes"/>
      <point x="79" y="295"/>
      <point x="112" y="266"/>
      <point x="169" y="266" type="curve" smooth="yes"/>
      <point x="238" y="266"/>
      <point x="311" y="308"/>
      <point x="338" y="337" type="curve"/>
      <point x="338" y="355" type="line"/>
      <point x="300" y="318"/>
      <point x="227" y="285"/>
      <point x="172" y="286" type="curve" smooth="yes"/>
      <point x="126" y="287"/>
      <point x="102" y="308"/>
      <point x="102" y="349" type="curve" smooth="yes"/>
      <point x="102" y="389" type="line" smooth="yes"/>
      <point x="102" y="425"/>
      <point x="123" y="445"/>
      <point x="165" y="446" type="curve" smooth="yes"/>
      <point x="339" y="449" type="line"/>
    </contour>
  </outline>
</glyph>
<glyph name="logicalnot" format="2">
  <advance width="593"/>
  <unicode hex="00AC"/>
  <outline>
    <contour>
      <point x="503" y="307" type="line"/>
      <point x="86" y="307" type="line"/>
      <point x="86" y="285" type="line"/>
      <point x="503" y="285" type="line"/>
    </contour>
    <contour>
      <point x="503" y="294" type="line"/>
      <point x="480" y="294" type="line"/>
      <point x="480" y="129" type="line"/>
      <point x="503" y="129" type="line"/>
    </contour>
  </outline>
</glyph>
<glyph name="registered" format="2">
  <advance width="581"/>
  <unicode hex="00AE"/>
  <outline>
    <contour>
      <point x="291" y="701" type="curve" smooth="yes"/>
      <point x="167" y="701"/>
      <point x="68" y="602"/>
      <point x="68" y="479" type="curve" smooth="yes"/>
      <point x="68" y="355"/>
      <point x="167" y="256"/>
      <point x="291" y="256" type="curve" smooth="yes"/>
      <point x="414" y="256"/>
      <point x="513" y="355"/>
      <point x="513" y="479" type="curve" smooth="yes"/>
      <point x="513" y="602"/>
      <point x="414" y="701"/>
    </contour>
    <contour>
      <point x="208" y="619" type="line"/>
      <point x="190" y="619" type="line"/>
      <point x="190" y="336" type="line"/>
      <point x="208" y="336" type="line"/>
    </contour>
    <contour>
      <point x="291" y="685" type="curve" smooth="yes"/>
      <point x="403" y="685"/>
      <point x="495" y="593"/>
      <point x="495" y="479" type="curve" smooth="yes"/>
      <point x="495" y="364"/>
      <point x="403" y="272"/>
      <point x="291" y="272" type="curve" smooth="yes"/>
      <point x="178" y="272"/>
      <point x="86" y="364"/>
      <point x="86" y="479" type="curve" smooth="yes"/>
      <point x="86" y="593"/>
      <point x="178" y="685"/>
    </contour>
    <contour>
      <point x="302" y="622" type="curve" smooth="yes"/>
      <point x="250" y="622"/>
      <point x="226" y="622"/>
      <point x="190" y="619" type="curve"/>
      <point x="197" y="605" type="line"/>
      <point x="211" y="606"/>
      <point x="251" y="606"/>
      <point x="302" y="606" type="curve" smooth="yes"/>
      <point x="363" y="606"/>
      <point x="386" y="594"/>
      <point x="386" y="541" type="curve" smooth="yes"/>
      <point x="386" y="490"/>
      <point x="363" y="476"/>
      <point x="302" y="475" type="curve" smooth="yes"/>
      <point x="196" y="475" type="line"/>
      <point x="195" y="463" type="line"/>
      <point x="207" y="462"/>
      <point x="247" y="461"/>
      <point x="306" y="461" type="curve" smooth="yes"/>
      <point x="331" y="461"/>
      <point x="349" y="451"/>
      <point x="360" y="424" type="curve" smooth="yes"/>
      <point x="396" y="336" type="line"/>
      <point x="416" y="336" type="line"/>
      <point x="379" y="426" type="line" smooth="yes"/>
      <point x="371" y="447"/>
      <point x="357" y="462"/>
      <point x="340" y="465" type="curve"/>
      <point x="340" y="467" type="line"/>
      <point x="385" y="473"/>
      <point x="404" y="493"/>
      <point x="404" y="542" type="curve" smooth="yes"/>
      <point x="404" y="604"/>
      <point x="376" y="622"/>
    </contour>
  </outline>
</glyph>
<glyph name="macron" format="2">
  <advance width="400"/>
  <unicode hex="00AF"/>
  <anchor x="200" y="561" name="_top"/>
  <outline>
    <contour>
      <point x="330" y="648" type="line"/>
      <point x="70" y="648" type="line"/>
      <point x="70" y="625" type="line"/>
      <point x="330" y="625" type="line"/>
    </contour>
  </outline>
</glyph>
<glyph name="degree" format="2">
  <advance width="383"/>
  <unicode hex="00B0"/>
  <outline>
    <contour>
      <point x="192" y="702" type="curve" smooth="yes"/>
      <point x="124" y="702"/>
      <point x="68" y="646"/>
      <point x="68" y="579" type="curve" smooth="yes"/>
      <point x="68" y="511"/>
      <point x="124" y="455"/>
      <point x="192" y="455" type="curve" smooth="yes"/>
      <point x="259" y="455"/>
      <point x="315" y="511"/>
      <point x="315" y="579" type="curve" smooth="yes"/>
      <point x="315" y="646"/>
      <point x="259" y="702"/>
    </contour>
    <contour>
      <point x="192" y="682" type="curve" smooth="yes"/>
      <point x="249" y="682"/>
      <point x="295" y="636"/>
      <point x="295" y="579" type="curve" smooth="yes"/>
      <point x="295" y="524"/>
      <point x="249" y="475"/>
      <point x="192" y="475" type="curve" smooth="yes"/>
      <point x="134" y="475"/>
      <point x="88" y="524"/>
      <point x="88" y="579" type="curve" smooth="yes"/>
      <point x="88" y="636"/>
      <point x="134" y="682"/>
    </contour>
  </outline>
</glyph>
<glyph name="threesuperior" format="2">
  <advance width="387"/>
  <unicode hex="00B3"/>
  <outline>
    <contour>
      <point x="174" y="753" type="curve" smooth="yes"/>
      <point x="140" y="753"/>
      <point x="99" y="746"/>
      <point x="63" y="735" type="curve"/>
      <point x="68" y="718" type="line"/>
      <point x="94" y="725"/>
      <point x="139" y="733"/>
      <point x="175" y="733" type="curve" smooth="yes"/>
      <point x="248" y="733"/>
      <point x="272" y="719"/>
      <point x="274" y="662" type="curve" smooth="yes"/>
      <point x="275" y="625"/>
      <point x="269" y="573"/>
      <point x="190" y="571" type="curve" smooth="yes"/>
      <point x="107" y="569" type="line"/>
      <point x="107" y="551" type="line"/>
      <point x="190" y="550" type="line" smooth="yes"/>
      <point x="272" y="549"/>
      <point x="284" y="510"/>
      <point x="284" y="463" type="curve" smooth="yes"/>
      <point x="284" y="393"/>
      <point x="254" y="368"/>
      <point x="184" y="368" type="curve" smooth="yes"/>
      <point x="144" y="368"/>
      <point x="97" y="373"/>
      <point x="65" y="381" type="curve"/>
      <point x="58" y="364" type="line"/>
      <point x="92" y="355"/>
      <point x="139" y="347"/>
      <point x="185" y="347" type="curve" smooth="yes"/>
      <point x="272" y="347"/>
      <point x="310" y="386"/>
      <point x="309" y="463" type="curve" smooth="yes"/>
      <point x="308" y="517"/>
      <point x="289" y="550"/>
      <point x="241" y="562" type="curve"/>
      <point x="241" y="564" type="line"/>
      <point x="281" y="577"/>
      <point x="299" y="612"/>
      <point x="299" y="663" type="curve" smooth="yes"/>
      <point x="299" y="730"/>
      <point x="260" y="753"/>
    </contour>
  </outline>
</glyph>
<glyph name="acute" format="2">
  <advance width="277"/>
  <unicode hex="00B4"/>
  <anchor x="108" y="554" name="_top"/>
  <outline>
    <contour>
      <point x="209" y="708" type="line"/>
      <point x="60" y="563" type="line"/>
      <point x="74" y="550" type="line"/>
      <point x="227" y="691" type="line"/>
    </contour>
  </outline>
</glyph>
<glyph name="paragraph" format="2">
  <advance width="597"/>
  <unicode hex="00B6"/>
  <outline>
    <contour>
      <point x="353" y="702" type="curve" smooth="yes"/>
      <point x="138" y="702"/>
      <point x="54" y="635"/>
      <point x="54" y="450" type="curve" smooth="yes"/>
      <point x="54" y="284"/>
      <point x="123" y="213"/>
      <point x="296" y="200" type="curve"/>
      <point x="305" y="679" type="line"/>
      <point x="350" y="679"/>
      <point x="432" y="676"/>
      <point x="482" y="667" type="curve"/>
      <point x="488" y="685" type="line"/>
      <point x="446" y="698"/>
      <point x="389" y="702"/>
    </contour>
    <contour>
      <point x="311" y="685" type="line"/>
      <point x="286" y="685" type="line"/>
      <point x="286" y="-210" type="line"/>
      <point x="311" y="-210" type="line"/>
    </contour>
    <contour>
      <point x="488" y="685" type="line"/>
      <point x="463" y="685" type="line"/>
      <point x="463" y="0" type="line"/>
      <point x="488" y="0" type="line"/>
    </contour>
  </outline>
</glyph>
<glyph name="cedilla" format="2">
  <advance width="219"/>
  <unicode hex="00B8"/>
  <guideline x="77" y="-110" angle="56.4082"/>
  <anchor x="132" y="0" name="_bottom"/>
  <outline>
    <contour>
      <point x="103" y="-49" type="curve"/>
      <point x="100" y="-63" type="line"/>
      <point x="144" y="-64"/>
      <point x="159" y="-77"/>
      <point x="159" y="-114" type="curve" smooth="yes"/>
      <point x="159" y="-164"/>
      <point x="117" y="-207"/>
      <point x="46" y="-204" type="curve"/>
      <point x="42" y="-219" type="line"/>
      <point x="127" y="-230"/>
      <point x="180" y="-181"/>
      <point x="181" y="-114" type="curve" smooth="yes"/>
      <point x="182" y="-66"/>
      <point x="154" y="-46"/>
    </contour>
  </outline>
</glyph>
<glyph name="onesuperior" format="2">
  <advance width="287"/>
  <unicode hex="00B9"/>
  <outline>
    <contour>
      <point x="167" y="747" type="line"/>
      <point x="145" y="747" type="line"/>
      <point x="33" y="705" type="line"/>
      <point x="37" y="690" type="line"/>
      <point x="147" y="726" type="line"/>
      <point x="146" y="717"/>
      <point x="145" y="708"/>
      <point x="145" y="700" type="curve" smooth="yes"/>
      <point x="145" y="355" type="line"/>
      <point x="167" y="355" type="line"/>
    </contour>
  </outline>
</glyph>
<glyph name="ordmasculine" format="2">
  <advance width="449"/>
  <unicode hex="00BA"/>
  <outline>
    <contour>
      <point x="224" y="600" type="curve" smooth="yes"/>
      <point x="114" y="600"/>
      <point x="75" y="555"/>
      <point x="75" y="431" type="curve" smooth="yes"/>
      <point x="75" y="307"/>
      <point x="114" y="262"/>
      <point x="224" y="262" type="curve" smooth="yes"/>
      <point x="335" y="262"/>
      <point x="374" y="307"/>
      <point x="374" y="431" type="curve" smooth="yes"/>
      <point x="374" y="555"/>
      <point x="335" y="600"/>
    </contour>
    <contour>
      <point x="224" y="581" type="curve" smooth="yes"/>
      <point x="317" y="581"/>
      <point x="350" y="545"/>
      <point x="350" y="431" type="curve" smooth="yes"/>
      <point x="350" y="318"/>
      <point x="317" y="282"/>
      <point x="224" y="282" type="curve" smooth="yes"/>
      <point x="131" y="282"/>
      <point x="98" y="318"/>
      <point x="98" y="431" type="curve" smooth="yes"/>
      <point x="98" y="545"/>
      <point x="131" y="581"/>
    </contour>
  </outline>
</glyph>
<glyph name="onehalf" format="2">
  <advance width="871"/>
  <unicode hex="00BD"/>
  <outline>
    <contour>
      <point x="630" y="690" type="line"/>
      <point x="606" y="690" type="line"/>
      <point x="126" y="0" type="line"/>
      <point x="150" y="0" type="line"/>
    </contour>
    <contour>
      <point x="201" y="690" type="line"/>
      <point x="180" y="690" type="line"/>
      <point x="54" y="646" type="line"/>
      <point x="58" y="632" type="line"/>
      <point x="182" y="669" type="line"/>
      <point x="180" y="659"/>
      <point x="180" y="649"/>
      <point x="180" y="639" type="curve" smooth="yes"/>
      <point x="180" y="276" type="line"/>
      <point x="201" y="276" type="line"/>
    </contour>
    <contour>
      <point x="656" y="421" type="curve" smooth="yes"/>
      <point x="618" y="421"/>
      <point x="587" y="419"/>
      <point x="523" y="405" type="curve"/>
      <point x="527" y="389" type="line"/>
      <point x="584" y="400"/>
      <point x="616" y="402"/>
      <point x="658" y="402" type="curve" smooth="yes"/>
      <point x="722" y="402"/>
      <point x="766" y="396"/>
      <point x="768" y="340" type="curve" smooth="yes"/>
      <point x="770" y="292"/>
      <point x="742" y="248"/>
      <point x="681" y="184" type="curve" smooth="yes"/>
      <point x="523" y="23" type="line" smooth="yes"/>
      <point x="521" y="20"/>
      <point x="519" y="17"/>
      <point x="519" y="12" type="curve" smooth="yes"/>
      <point x="519" y="0" type="line"/>
      <point x="812" y="0" type="line"/>
      <point x="812" y="19" type="line"/>
      <point x="626" y="19" type="line"/>
      <point x="599" y="20"/>
      <point x="573" y="19"/>
      <point x="546" y="19" type="curve"/>
      <point x="699" y="175" type="line" smooth="yes"/>
      <point x="762" y="240"/>
      <point x="791" y="282"/>
      <point x="791" y="337" type="curve" smooth="yes"/>
      <point x="791" y="409"/>
      <point x="742" y="421"/>
    </contour>
  </outline>
</glyph>
<glyph name="questiondown" format="2">
  <advance width="504"/>
  <unicode hex="00BF"/>
  <outline>
    <contour>
      <point x="270" y="287" type="curve"/>
      <point x="246" y="287" type="line"/>
      <point x="246" y="110"/>
      <point x="56" y="86"/>
      <point x="56" y="-67" type="curve" smooth="yes"/>
      <point x="56" y="-173"/>
      <point x="124" y="-222"/>
      <point x="252" y="-222" type="curve" smooth="yes"/>
      <point x="362" y="-222"/>
      <point x="391" y="-214"/>
      <point x="455" y="-204" type="curve"/>
      <point x="450" y="-186" type="line"/>
      <point x="383" y="-195"/>
      <point x="353" y="-200"/>
      <point x="252" y="-200" type="curve" smooth="yes"/>
      <point x="135" y="-200"/>
      <point x="81" y="-158"/>
      <point x="81" y="-67" type="curve" smooth="yes"/>
      <point x="81" y="75"/>
      <point x="270" y="93"/>
    </contour>
    <contour>
      <point x="264" y="490" type="curve" smooth="yes"/>
      <point x="254" y="490" type="line" smooth="yes"/>
      <point x="246" y="490"/>
      <point x="242" y="486"/>
      <point x="242" y="478" type="curve" smooth="yes"/>
      <point x="242" y="416" type="line" smooth="yes"/>
      <point x="242" y="408"/>
      <point x="246" y="404"/>
      <point x="254" y="404" type="curve" smooth="yes"/>
      <point x="264" y="404" type="line" smooth="yes"/>
      <point x="272" y="404"/>
      <point x="276" y="408"/>
      <point x="276" y="416" type="curve" smooth="yes"/>
      <point x="276" y="478" type="line" smooth="yes"/>
      <point x="276" y="486"/>
      <point x="272" y="490"/>
    </contour>
  </outline>
</glyph>
<glyph name="AE" format="2">
  <advance width="905"/>
  <unicode hex="00C6"/>
  <anchor x="565" y="765" name="top"/>
  <outline>
    <contour>
      <point x="575" y="690" type="curve" smooth="yes"/>
      <point x="510" y="690"/>
      <point x="459" y="679"/>
      <point x="410" y="605" type="curve" smooth="yes"/>
      <point x="11" y="0" type="line"/>
      <point x="41" y="0" type="line"/>
      <point x="430" y="592" type="line" smooth="yes"/>
      <point x="456" y="632"/>
      <point x="484" y="655"/>
      <point x="506" y="664" type="curve"/>
      <point x="512" y="664" type="line"/>
      <point x="490" y="654"/>
      <point x="471" y="618"/>
      <point x="471" y="587" type="curve" smooth="yes"/>
      <point x="471" y="102" type="line" smooth="yes"/>
      <point x="471" y="43"/>
      <point x="514" y="0"/>
      <point x="573" y="0" type="curve" smooth="yes"/>
      <point x="665" y="0"/>
      <point x="755" y="0"/>
      <point x="847" y="4" type="curve"/>
      <point x="847" y="22" type="line"/>
      <point x="578" y="22" type="line" smooth="yes"/>
      <point x="530" y="22"/>
      <point x="496" y="56"/>
      <point x="496" y="104" type="curve" smooth="yes"/>
      <point x="496" y="586" type="line" smooth="yes"/>
      <point x="496" y="636"/>
      <point x="528" y="668"/>
      <point x="578" y="668" type="curve" smooth="yes"/>
      <point x="847" y="668" type="line"/>
      <point x="847" y="686" type="line"/>
      <point x="774" y="689"/>
      <point x="699" y="690"/>
    </contour>
    <contour>
      <point x="483" y="294" type="line"/>
      <point x="219" y="294" type="line"/>
      <point x="206" y="272" type="line"/>
      <point x="483" y="272" type="line"/>
    </contour>
    <contour>
      <point x="488" y="381" type="line"/>
      <point x="488" y="359" type="line"/>
      <point x="804" y="360" type="line"/>
      <point x="804" y="380" type="line"/>
    </contour>
  </outline>
</glyph>
<glyph name="Oslash" format="2">
  <advance width="662"/>
  <unicode hex="00D8"/>
  <anchor x="332" y="740" name="top"/>
  <outline>
    <contour>
      <point x="495" y="741" type="line"/>
      <point x="128" y="-41" type="line"/>
      <point x="149" y="-51" type="line"/>
      <point x="516" y="731" type="line"/>
    </contour>
    <component base="O"/>
  </outline>
</glyph>
<glyph name="Thorn" format="2">
  <advance width="583"/>
  <unicode hex="00DE"/>
  <outline>
    <contour>
      <point x="324" y="555" type="curve" smooth="yes"/>
      <point x="221" y="555"/>
      <point x="173" y="554"/>
      <point x="103" y="547" type="curve"/>
      <point x="117" y="529" type="line"/>
      <point x="144" y="531"/>
      <point x="223" y="532"/>
      <point x="324" y="532" type="curve" smooth="yes"/>
      <point x="451" y="532"/>
      <point x="497" y="495"/>
      <point x="497" y="352" type="curve" smooth="yes"/>
      <point x="497" y="209"/>
      <point x="451" y="174"/>
      <point x="324" y="172" type="curve" smooth="yes"/>
      <point x="255" y="172"/>
      <point x="181" y="172"/>
      <point x="116" y="172" type="curve"/>
      <point x="113" y="154" type="line"/>
      <point x="135" y="152"/>
      <point x="218" y="149"/>
      <point x="324" y="149" type="curve" smooth="yes"/>
      <point x="470" y="149"/>
      <point x="523" y="192"/>
      <point x="523" y="352" type="curve" smooth="yes"/>
      <point x="523" y="510"/>
      <point x="470" y="555"/>
    </contour>
    <contour>
      <point x="128" y="690" type="line"/>
      <point x="103" y="690" type="line"/>
      <point x="103" y="0" type="line"/>
      <point x="128" y="0" type="line"/>
    </contour>
  </outline>
</glyph>
<glyph name="germandbls" format="2">
  <advance width="651"/>
  <unicode hex="00DF"/>
  <outline>
    <contour>
      <point x="329" y="712" type="curve" smooth="yes"/>
      <point x="212" y="712"/>
      <point x="123" y="700"/>
      <point x="123" y="531" type="curve" smooth="yes"/>
      <point x="123" y="0" type="line"/>
      <point x="147" y="0" type="line"/>
      <point x="147" y="531" type="line" smooth="yes"/>
      <point x="147" y="660"/>
      <point x="192" y="690"/>
      <point x="329" y="690" type="curve" smooth="yes"/>
      <point x="443" y="690"/>
      <point x="514" y="671"/>
      <point x="514" y="601" type="curve" smooth="yes"/>
      <point x="514" y="535"/>
      <point x="495" y="513"/>
      <point x="433" y="492" type="curve" smooth="yes"/>
      <point x="338" y="460"/>
      <point x="280" y="453"/>
      <point x="280" y="365" type="curve" smooth="yes"/>
      <point x="280" y="302"/>
      <point x="314" y="277"/>
      <point x="368" y="261" type="curve" smooth="yes"/>
      <point x="500" y="221" type="line" smooth="yes"/>
      <point x="541" y="209"/>
      <point x="575" y="192"/>
      <point x="575" y="122" type="curve" smooth="yes"/>
      <point x="575" y="24"/>
      <point x="530" y="13"/>
      <point x="441" y="11" type="curve" smooth="yes"/>
      <point x="387" y="10"/>
      <point x="337" y="12"/>
      <point x="278" y="18" type="curve"/>
      <point x="276" y="0" type="line"/>
      <point x="345" y="-10"/>
      <point x="397" y="-11"/>
      <point x="441" y="-11" type="curve" smooth="yes"/>
      <point x="534" y="-11"/>
      <point x="600" y="0"/>
      <point x="600" y="122" type="curve" smooth="yes"/>
      <point x="600" y="198"/>
      <point x="563" y="226"/>
      <point x="503" y="244" type="curve" smooth="yes"/>
      <point x="370" y="284" type="line" smooth="yes"/>
      <point x="331" y="296"/>
      <point x="304" y="314"/>
      <point x="304" y="365" type="curve" smooth="yes"/>
      <point x="304" y="439"/>
      <point x="346" y="441"/>
      <point x="434" y="470" type="curve" smooth="yes"/>
      <point x="504" y="493"/>
      <point x="536" y="517"/>
      <point x="536" y="601" type="curve" smooth="yes"/>
      <point x="536" y="688"/>
      <point x="457" y="712"/>
    </contour>
    <contour>
      <point x="139" y="480" type="line"/>
      <point x="129" y="480" type="line"/>
      <point x="36" y="475" type="line"/>
      <point x="36" y="458" type="line"/>
      <point x="139" y="458" type="line"/>
    </contour>
  </outline>
</glyph>
<glyph name="ae" format="2">
  <advance width="880"/>
  <unicode hex="00E6"/>
  <anchor x="467" y="558" name="top"/>
  <outline>
    <contour>
      <point x="629" y="492" type="curve" smooth="yes"/>
      <point x="481" y="492"/>
      <point x="423" y="426"/>
      <point x="423" y="242" type="curve" smooth="yes"/>
      <point x="423" y="59"/>
      <point x="485" y="-12"/>
      <point x="637" y="-12" type="curve" smooth="yes"/>
      <point x="689" y="-12"/>
      <point x="775" y="-4"/>
      <point x="807" y="6" type="curve"/>
      <point x="803" y="24" type="line"/>
      <point x="766" y="18"/>
      <point x="705" y="11"/>
      <point x="640" y="11" type="curve" smooth="yes"/>
      <point x="506" y="11"/>
      <point x="448" y="70"/>
      <point x="448" y="243" type="curve" smooth="yes"/>
      <point x="448" y="409"/>
      <point x="496" y="469"/>
      <point x="630" y="469" type="curve" smooth="yes"/>
      <point x="737" y="469"/>
      <point x="791" y="431"/>
      <point x="793" y="354" type="curve" smooth="yes"/>
      <point x="795" y="277"/>
      <point x="763" y="249"/>
      <point x="675" y="249" type="curve" smooth="yes"/>
      <point x="437" y="249" type="line"/>
      <point x="437" y="227" type="line"/>
      <point x="675" y="227" type="line" smooth="yes"/>
      <point x="780" y="227"/>
      <point x="820" y="261"/>
      <point x="818" y="356" type="curve" smooth="yes"/>
      <point x="816" y="447"/>
      <point x="754" y="492"/>
    </contour>
    <contour>
      <point x="427" y="290" type="line"/>
      <point x="181" y="290" type="line" smooth="yes"/>
      <point x="108" y="290"/>
      <point x="66" y="249"/>
      <point x="66" y="177" type="curve" smooth="yes"/>
      <point x="66" y="115" type="line" smooth="yes"/>
      <point x="66" y="37"/>
      <point x="112" y="-6"/>
      <point x="191" y="-6" type="curve" smooth="yes"/>
      <point x="294" y="-6"/>
      <point x="406" y="61"/>
      <point x="448" y="107" type="curve"/>
      <point x="448" y="132" type="line"/>
      <point x="390" y="72"/>
      <point x="275" y="16"/>
      <point x="191" y="18" type="curve" smooth="yes"/>
      <point x="125" y="19"/>
      <point x="91" y="52"/>
      <point x="91" y="115" type="curve" smooth="yes"/>
      <point x="91" y="177" type="line" smooth="yes"/>
      <point x="91" y="234"/>
      <point x="122" y="265"/>
      <point x="181" y="266" type="curve" smooth="yes"/>
      <point x="426" y="270" type="line"/>
    </contour>
    <contour>
      <point x="314" y="492" type="curve" smooth="yes"/>
      <point x="214" y="492"/>
      <point x="149" y="480"/>
      <point x="85" y="471" type="curve"/>
      <point x="88" y="453" type="line"/>
      <point x="159" y="462"/>
      <point x="241" y="469"/>
      <point x="313" y="469" type="curve" smooth="yes"/>
      <point x="398" y="469"/>
      <point x="423" y="419"/>
      <point x="423" y="358" type="curve" smooth="yes"/>
      <point x="423" y="224" type="line"/>
      <point x="447" y="225" type="line"/>
      <point x="447" y="358" type="line" smooth="yes"/>
      <point x="447" y="454"/>
      <point x="396" y="492"/>
    </contour>
  </outline>
</glyph>
<glyph name="divide" format="2">
  <advance width="589"/>
  <unicode hex="00F7"/>
  <outline>
    <contour>
      <point x="503" y="307" type="line"/>
      <point x="86" y="307" type="line"/>
      <point x="86" y="285" type="line"/>
      <point x="503" y="285" type="line"/>
    </contour>
    <contour>
      <point x="298" y="176" type="curve" smooth="yes"/>
      <point x="288" y="176" type="line" smooth="yes"/>
      <point x="280" y="176"/>
      <point x="276" y="172"/>
      <point x="276" y="164" type="curve" smooth="yes"/>
      <point x="276" y="102" type="line" smooth="yes"/>
      <point x="276" y="94"/>
      <point x="280" y="90"/>
      <point x="288" y="90" type="curve" smooth="yes"/>
      <point x="298" y="90" type="line" smooth="yes"/>
      <point x="306" y="90"/>
      <point x="310" y="94"/>
      <point x="310" y="102" type="curve" smooth="yes"/>
      <point x="310" y="164" type="line" smooth="yes"/>
      <point x="310" y="172"/>
      <point x="306" y="176"/>
    </contour>
    <contour>
      <point x="298" y="502" type="curve" smooth="yes"/>
      <point x="288" y="502" type="line" smooth="yes"/>
      <point x="280" y="502"/>
      <point x="276" y="498"/>
      <point x="276" y="490" type="curve" smooth="yes"/>
      <point x="276" y="428" type="line" smooth="yes"/>
      <point x="276" y="420"/>
      <point x="280" y="416"/>
      <point x="288" y="416" type="curve" smooth="yes"/>
      <point x="298" y="416" type="line" smooth="yes"/>
      <point x="306" y="416"/>
      <point x="310" y="420"/>
      <point x="310" y="428" type="curve" smooth="yes"/>
      <point x="310" y="490" type="line" smooth="yes"/>
      <point x="310" y="498"/>
      <point x="306" y="502"/>
    </contour>
  </outline>
</glyph>
<glyph name="thorn" format="2">
  <advance width="562"/>
  <unicode hex="00FE"/>
  <outline>
    <contour>
      <point x="316" y="492" type="curve" smooth="yes"/>
      <point x="250" y="492"/>
      <point x="186" y="462"/>
      <point x="115" y="402" type="curve"/>
      <point x="115" y="379" type="line"/>
      <point x="197" y="442"/>
      <point x="252" y="469"/>
      <point x="316" y="469" type="curve" smooth="yes"/>
      <point x="423" y="469"/>
      <point x="465" y="408"/>
      <point x="465" y="240" type="curve" smooth="yes"/>
      <point x="465" y="72"/>
      <point x="423" y="11"/>
      <point x="316" y="11" type="curve" smooth="yes"/>
      <point x="252" y="11"/>
      <point x="197" y="28"/>
      <point x="115" y="61" type="curve"/>
      <point x="115" y="42" type="line"/>
      <point x="186" y="7"/>
      <point x="250" y="-12"/>
      <point x="316" y="-12" type="curve" smooth="yes"/>
      <point x="442" y="-12"/>
      <point x="490" y="58"/>
      <point x="490" y="240" type="curve" smooth="yes"/>
      <point x="490" y="422"/>
      <point x="442" y="492"/>
    </contour>
    <contour>
      <point x="119" y="700" type="line"/>
      <point x="95" y="700" type="line"/>
      <point x="95" y="-210" type="line"/>
      <point x="119" y="-210" type="line"/>
      <point x="119" y="-51" type="line" smooth="yes"/>
      <point x="119" y="-16"/>
      <point x="120" y="7"/>
      <point x="116" y="42" type="curve"/>
      <point x="119" y="54" type="line"/>
      <point x="119" y="391" type="line"/>
      <point x="116" y="403" type="line"/>
      <point x="120" y="438"/>
      <point x="119" y="461"/>
      <point x="119" y="496" type="curve" smooth="yes"/>
    </contour>
  </outline>
</glyph>
<glyph name="dcroat" format="2">
  <advance width="553"/>
  <unicode hex="0111"/>
  <outline>
    <contour>
      <point x="540" y="610" type="line"/>
      <point x="265" y="610" type="line"/>
      <point x="265" y="590" type="line"/>
      <point x="540" y="590" type="line"/>
    </contour>
    <component base="d"/>
  </outline>
</glyph>
<glyph name="Hbar" format="2">
  <advance width="665"/>
  <unicode hex="0126"/>
  <outline>
    <contour>
      <point x="638" y="545" type="line"/>
      <point x="27" y="545" type="line"/>
      <point x="27" y="525" type="line"/>
      <point x="638" y="525" type="line"/>
    </contour>
    <component base="H" xOffset="4"/>
  </outline>
</glyph>
<glyph name="hbar" format="2">
  <advance width="573"/>
  <unicode hex="0127"/>
  <outline>
    <contour>
      <point x="288" y="610" type="line"/>
      <point x="13" y="610" type="line"/>
      <point x="13" y="590" type="line"/>
      <point x="288" y="590" type="line"/>
    </contour>
    <component base="h" xOffset="4"/>
  </outline>
</glyph>
<glyph name="idotless" format="2">
  <advance width="220"/>
  <unicode hex="0131"/>
  <anchor x="111" y="0" name="bottom"/>
  <anchor x="122" y="0" name="ogonek"/>
  <anchor x="109" y="558" name="top"/>
  <outline>
    <contour>
      <point x="122" y="480" type="line"/>
      <point x="98" y="480" type="line"/>
      <point x="98" y="0" type="line"/>
      <point x="122" y="0" type="line"/>
    </contour>
  </outline>
</glyph>
<glyph name="kgreenlandic" format="2">
  <advance width="473"/>
  <unicode hex="0138"/>
  <outline>
    <contour>
      <point x="424" y="480" type="line"/>
      <point x="392" y="480" type="line"/>
      <point x="189" y="256" type="line"/>
      <point x="409" y="0" type="line"/>
      <point x="440" y="0" type="line"/>
      <point x="242" y="231" type="line" smooth="yes"/>
      <point x="235" y="239"/>
      <point x="225" y="250"/>
      <point x="219" y="256" type="curve"/>
      <point x="219" y="258" type="line"/>
      <point x="225" y="262"/>
      <point x="236" y="272"/>
      <point x="242" y="279" type="curve" smooth="yes"/>
    </contour>
    <contour>
      <point x="118" y="480" type="line"/>
      <point x="94" y="480" type="line"/>
      <point x="94" y="0" type="line"/>
      <point x="118" y="0" type="line"/>
      <point x="118" y="157" type="line" smooth="yes"/>
      <point x="118" y="190"/>
      <point x="118" y="219"/>
      <point x="115" y="255" type="curve"/>
      <point x="119" y="290"/>
      <point x="121" y="313"/>
      <point x="120" y="348" type="curve" smooth="yes"/>
    </contour>
    <contour>
      <point x="218" y="266" type="line"/>
      <point x="103" y="266" type="line"/>
      <point x="103" y="244" type="line"/>
      <point x="218" y="244" type="line"/>
    </contour>
  </outline>
</glyph>
<glyph name="lslash" format="2">
  <advance width="302"/>
  <unicode hex="0142"/>
  <outline>
    <contour>
      <point x="262" y="447" type="line"/>
      <point x="31" y="345" type="line"/>
      <point x="31" y="324" type="line"/>
      <point x="262" y="426" type="line"/>
    </contour>
    <component base="l" xOffset="24"/>
  </outline>
</glyph>
<glyph name="Eng" format="2">
  <advance width="688"/>
  <unicode hex="014A"/>
  <outline>
    <contour>
      <point x="585" y="690" type="line"/>
      <point x="560" y="690" type="line"/>
      <point x="560" y="112" type="line" smooth="yes"/>
      <point x="560" y="82"/>
      <point x="560" y="52"/>
      <point x="560" y="22" type="curve"/>
      <point x="532" y="22" type="line"/>
      <point x="517" y="49"/>
      <point x="503" y="76"/>
      <point x="488" y="103" type="curve" smooth="yes"/>
      <point x="175" y="679" type="line" smooth="yes"/>
      <point x="171" y="687"/>
      <point x="165" y="690"/>
      <point x="157" y="690" type="curve" smooth="yes"/>
      <point x="118" y="690" type="line" smooth="yes"/>
      <point x="108" y="690"/>
      <point x="103" y="685"/>
      <point x="103" y="675" type="curve" smooth="yes"/>
      <point x="103" y="0" type="line"/>
      <point x="128" y="0" type="line"/>
      <point x="128" y="598" type="line" smooth="yes"/>
      <point x="128" y="621"/>
      <point x="128" y="645"/>
      <point x="128" y="668" type="curve"/>
      <point x="153" y="668" type="line"/>
      <point x="165" y="645"/>
      <point x="178" y="623"/>
      <point x="190" y="600" type="curve" smooth="yes"/>
      <point x="510" y="11" type="line" smooth="yes"/>
      <point x="514" y="3"/>
      <point x="520" y="0"/>
      <point x="528" y="0" type="curve" smooth="yes"/>
      <point x="560" y="0" type="line"/>
      <point x="560" y="-100" type="line" smooth="yes"/>
      <point x="560" y="-167"/>
      <point x="527" y="-200"/>
      <point x="460" y="-200" type="curve" smooth="yes"/>
      <point x="402" y="-200" type="line"/>
      <point x="399" y="-216" type="line"/>
      <point x="417" y="-219"/>
      <point x="445" y="-222"/>
      <point x="463" y="-222" type="curve" smooth="yes"/>
      <point x="545" y="-223"/>
      <point x="585" y="-181"/>
      <point x="585" y="-101" type="curve" smooth="yes"/>
    </contour>
  </outline>
</glyph>
<glyph name="eng" format="2">
  <advance width="570"/>
  <unicode hex="014B"/>
  <outline>
    <contour>
      <point x="350" y="492" type="curve" smooth="yes"/>
      <point x="275" y="492"/>
      <point x="199" y="458"/>
      <point x="116" y="392" type="curve"/>
      <point x="113" y="480" type="line"/>
      <point x="95" y="480" type="line"/>
      <point x="95" y="0" type="line"/>
      <point x="119" y="0" type="line"/>
      <point x="119" y="371" type="line"/>
      <point x="211" y="436"/>
      <point x="273" y="469"/>
      <point x="345" y="469" type="curve" smooth="yes"/>
      <point x="419" y="469"/>
      <point x="455" y="434"/>
      <point x="455" y="358" type="curve" smooth="yes"/>
      <point x="455" y="-88" type="line" smooth="yes"/>
      <point x="455" y="-155"/>
      <point x="425" y="-188"/>
      <point x="365" y="-188" type="curve" smooth="yes"/>
      <point x="317" y="-188" type="line"/>
      <point x="314" y="-204" type="line"/>
      <point x="339" y="-207"/>
      <point x="353" y="-210"/>
      <point x="368" y="-210" type="curve" smooth="yes"/>
      <point x="443" y="-211"/>
      <point x="479" y="-169"/>
      <point x="479" y="-89" type="curve" smooth="yes"/>
      <point x="479" y="361" type="line" smooth="yes"/>
      <point x="479" y="447"/>
      <point x="435" y="492"/>
    </contour>
  </outline>
</glyph>
<glyph name="OE" format="2">
  <advance width="889"/>
  <unicode hex="0152"/>
  <guideline x="320" y="278" angle="290"/>
  <guideline x="314" y="401" angle="70"/>
  <outline>
    <contour>
      <point x="331" y="702" type="curve" smooth="yes"/>
      <point x="142" y="702"/>
      <point x="76" y="608"/>
      <point x="76" y="345" type="curve" smooth="yes"/>
      <point x="76" y="82"/>
      <point x="142" y="-12"/>
      <point x="331" y="-12" type="curve" smooth="yes"/>
      <point x="405" y="-12"/>
      <point x="442" y="-2"/>
      <point x="503" y="26" type="curve"/>
      <point x="493" y="46" type="line"/>
      <point x="434" y="21"/>
      <point x="402" y="11"/>
      <point x="331" y="11" type="curve" smooth="yes"/>
      <point x="161" y="11"/>
      <point x="102" y="97"/>
      <point x="102" y="345" type="curve" smooth="yes"/>
      <point x="102" y="596"/>
      <point x="161" y="679"/>
      <point x="331" y="679" type="curve" smooth="yes"/>
      <point x="400" y="679"/>
      <point x="433" y="669"/>
      <point x="490" y="645" type="curve"/>
      <point x="498" y="666" type="line"/>
      <point x="436" y="693"/>
      <point x="402" y="702"/>
    </contour>
    <contour>
      <point x="557" y="690" type="curve" smooth="yes"/>
      <point x="498" y="690"/>
      <point x="455" y="647"/>
      <point x="455" y="588" type="curve" smooth="yes"/>
      <point x="455" y="102" type="line" smooth="yes"/>
      <point x="455" y="43"/>
      <point x="498" y="0"/>
      <point x="557" y="0" type="curve" smooth="yes"/>
      <point x="649" y="0"/>
      <point x="739" y="0"/>
      <point x="831" y="4" type="curve"/>
      <point x="831" y="22" type="line"/>
      <point x="562" y="22" type="line" smooth="yes"/>
      <point x="514" y="22"/>
      <point x="480" y="56"/>
      <point x="480" y="104" type="curve" smooth="yes"/>
      <point x="480" y="586" type="line" smooth="yes"/>
      <point x="480" y="634"/>
      <point x="514" y="668"/>
      <point x="562" y="668" type="curve" smooth="yes"/>
      <point x="831" y="668" type="line"/>
      <point x="831" y="686" type="line"/>
      <point x="739" y="690"/>
      <point x="649" y="690"/>
    </contour>
    <contour>
      <point x="472" y="381" type="line"/>
      <point x="472" y="359" type="line"/>
      <point x="788" y="360" type="line"/>
      <point x="788" y="380" type="line"/>
    </contour>
  </outline>
</glyph>
<glyph name="Tbar" format="2">
  <advance width="564"/>
  <unicode hex="0166"/>
  <outline>
    <contour>
      <point x="443" y="405" type="line"/>
      <point x="114" y="405" type="line"/>
      <point x="114" y="385" type="line"/>
      <point x="443" y="385" type="line"/>
    </contour>
    <component base="T"/>
  </outline>
</glyph>
<glyph name="Schwa" format="2">
  <advance width="624"/>
  <unicode hex="018F"/>
  <outline>
    <contour>
      <point x="298" y="-12" type="curve" smooth="yes"/>
      <point x="491" y="-12"/>
      <point x="548" y="98"/>
      <point x="548" y="342" type="curve" smooth="yes"/>
      <point x="548" y="574"/>
      <point x="495" y="702"/>
      <point x="307" y="702" type="curve" smooth="yes"/>
      <point x="233" y="702"/>
      <point x="142" y="690"/>
      <point x="86" y="676" type="curve"/>
      <point x="90" y="659" type="line"/>
      <point x="142" y="667"/>
      <point x="221" y="677"/>
      <point x="303" y="677" type="curve" smooth="yes"/>
      <point x="473" y="677"/>
      <point x="522" y="565"/>
      <point x="522" y="341" type="curve" smooth="yes"/>
      <point x="522" y="117"/>
      <point x="476" y="11"/>
      <point x="297" y="11" type="curve" smooth="yes"/>
      <point x="159" y="11"/>
      <point x="99" y="83"/>
      <point x="96" y="183" type="curve" smooth="yes"/>
      <point x="93" y="282"/>
      <point x="134" y="340"/>
      <point x="220" y="340" type="curve" smooth="yes"/>
      <point x="530" y="340" type="line"/>
      <point x="530" y="363" type="line"/>
      <point x="228" y="363" type="line" smooth="yes"/>
      <point x="119" y="363"/>
      <point x="68" y="299"/>
      <point x="71" y="181" type="curve" smooth="yes"/>
      <point x="74" y="72"/>
      <point x="141" y="-12"/>
    </contour>
  </outline>
</glyph>
<glyph name="florin" format="2">
  <advance width="404"/>
  <unicode hex="0192"/>
  <outline>
    <contour>
      <point x="309" y="699" type="curve" smooth="yes"/>
      <point x="217" y="699"/>
      <point x="180" y="654"/>
      <point x="172" y="566" type="curve" smooth="yes"/>
      <point x="118" y="3" type="line" smooth="yes"/>
      <point x="110" y="-79"/>
      <point x="82" y="-108"/>
      <point x="9" y="-108" type="curve" smooth="yes"/>
      <point x="-61" y="-108" type="line"/>
      <point x="-62" y="-126" type="line"/>
      <point x="-41" y="-129"/>
      <point x="-5" y="-130"/>
      <point x="15" y="-130" type="curve" smooth="yes"/>
      <point x="100" y="-130"/>
      <point x="134" y="-85"/>
      <point x="142" y="3" type="curve" smooth="yes"/>
      <point x="196" y="566" type="line" smooth="yes"/>
      <point x="204" y="648"/>
      <point x="235" y="677"/>
      <point x="315" y="677" type="curve" smooth="yes"/>
      <point x="385" y="677" type="line"/>
      <point x="386" y="695" type="line"/>
      <point x="365" y="698"/>
      <point x="329" y="699"/>
    </contour>
    <contour>
      <point x="346" y="385" type="line"/>
      <point x="161" y="385" type="line"/>
      <point x="59" y="380" type="line"/>
      <point x="57" y="362" type="line"/>
      <point x="343" y="362" type="line"/>
    </contour>
  </outline>
</glyph>
<glyph name="Aringacute" format="2">
  <advance width="603"/>
  <unicode hex="01FA"/>
  <outline>
    <contour>
      <point x="323" y="630" type="curve" smooth="yes"/>
      <point x="280" y="630" type="line" smooth="yes"/>
      <point x="274" y="630"/>
      <point x="269" y="627"/>
      <point x="267" y="621" type="curve" smooth="yes"/>
      <point x="19" y="0" type="line"/>
      <point x="46" y="0" type="line"/>
      <point x="267" y="552" type="line" smooth="yes"/>
      <point x="275" y="571"/>
      <point x="280" y="589"/>
      <point x="287" y="608" type="curve"/>
      <point x="316" y="608" type="line"/>
      <point x="323" y="589"/>
      <point x="328" y="571"/>
      <point x="336" y="552" type="curve" smooth="yes"/>
      <point x="557" y="0" type="line"/>
      <point x="584" y="0" type="line"/>
      <point x="336" y="621" type="line" smooth="yes"/>
      <point x="334" y="627"/>
      <point x="329" y="630"/>
    </contour>
    <contour>
      <point x="486" y="214" type="line"/>
      <point x="116" y="214" type="line"/>
      <point x="116" y="192" type="line"/>
      <point x="486" y="192" type="line"/>
    </contour>
    <contour>
      <point x="387" y="960" type="line"/>
      <point x="255" y="870" type="line"/>
      <point x="266" y="854" type="line"/>
      <point x="400" y="939" type="line"/>
    </contour>
    <component base="ring" xOffset="160" yOffset="109"/>
  </outline>
</glyph>
<glyph name="aringacute" format="2">
  <advance width="538"/>
  <unicode hex="01FB"/>
  <outline>
    <contour>
      <point x="362" y="863" type="line"/>
      <point x="220" y="764" type="line"/>
      <point x="230" y="750" type="line"/>
      <point x="375" y="844" type="line"/>
    </contour>
    <component base="a"/>
    <component base="ring" xOffset="121" yOffset="-6"/>
  </outline>
</glyph>
<glyph name="schwa" format="2">
  <advance width="526"/>
  <unicode hex="0259"/>
  <outline>
    <contour>
      <point x="251" y="-12" type="curve" smooth="yes"/>
      <point x="399" y="-12"/>
      <point x="457" y="54"/>
      <point x="457" y="238" type="curve" smooth="yes"/>
      <point x="457" y="421"/>
      <point x="395" y="492"/>
      <point x="243" y="492" type="curve" smooth="yes"/>
      <point x="191" y="492"/>
      <point x="105" y="484"/>
      <point x="73" y="474" type="curve"/>
      <point x="77" y="456" type="line"/>
      <point x="114" y="462"/>
      <point x="175" y="469"/>
      <point x="240" y="469" type="curve" smooth="yes"/>
      <point x="374" y="469"/>
      <point x="432" y="410"/>
      <point x="432" y="237" type="curve" smooth="yes"/>
      <point x="432" y="71"/>
      <point x="384" y="11"/>
      <point x="250" y="11" type="curve" smooth="yes"/>
      <point x="143" y="11"/>
      <point x="89" y="46"/>
      <point x="87" y="126" type="curve" smooth="yes"/>
      <point x="85" y="194"/>
      <point x="106" y="231"/>
      <point x="165" y="231" type="curve" smooth="yes"/>
      <point x="443" y="231" type="line"/>
      <point x="443" y="253" type="line"/>
      <point x="165" y="253" type="line" smooth="yes"/>
      <point x="87" y="253"/>
      <point x="60" y="209"/>
      <point x="62" y="124" type="curve" smooth="yes"/>
      <point x="64" y="33"/>
      <point x="126" y="-12"/>
    </contour>
  </outline>
</glyph>
<glyph name="primemod" format="2">
  <advance width="235"/>
  <unicode hex="02B9"/>
  <anchor x="125" y="554" name="_top"/>
  <outline>
    <contour>
      <point x="161" y="746" type="line"/>
      <point x="137" y="746" type="line"/>
      <point x="83" y="538" type="line"/>
      <point x="103" y="538" type="line"/>
    </contour>
  </outline>
</glyph>
<glyph name="doubleprimemod" format="2">
  <advance width="336"/>
  <unicode hex="02BA"/>
  <anchor x="151" y="554" name="_top"/>
  <outline>
    <contour>
      <point x="262" y="746" type="line"/>
      <point x="238" y="746" type="line"/>
      <point x="184" y="538" type="line"/>
      <point x="204" y="538" type="line"/>
    </contour>
    <contour>
      <point x="161" y="746" type="line"/>
      <point x="137" y="746" type="line"/>
      <point x="83" y="538" type="line"/>
      <point x="103" y="538" type="line"/>
    </contour>
  </outline>
</glyph>
<glyph name="commaturnedmod" format="2">
  <advance width="208"/>
  <unicode hex="02BB"/>
  <anchor x="102" y="556" name="_top"/>
  <outline>
    <contour>
      <point x="99" y="542" type="curve" smooth="yes"/>
      <point x="108" y="542" type="line" smooth="yes"/>
      <point x="116" y="542"/>
      <point x="119" y="546"/>
      <point x="119" y="554" type="curve" smooth="yes"/>
      <point x="120" y="618" type="line" smooth="yes"/>
      <point x="120" y="624"/>
      <point x="117" y="628"/>
      <point x="113" y="628" type="curve"/>
      <point x="113" y="679"/>
      <point x="114" y="700"/>
      <point x="117" y="740" type="curve"/>
      <point x="105" y="745" type="line"/>
      <point x="94" y="706"/>
      <point x="88" y="654"/>
      <point x="87" y="618" type="curve" smooth="yes"/>
      <point x="86" y="554" type="line" smooth="yes"/>
      <point x="86" y="546"/>
      <point x="91" y="542"/>
    </contour>
  </outline>
</glyph>
<glyph name="ringhalfleft" format="2">
  <advance width="186"/>
  <unicode hex="02BF"/>
  <anchor x="97" y="564" name="_top"/>
  <outline>
    <contour>
      <point x="146" y="714" type="curve"/>
      <point x="146" y="733" type="line"/>
      <point x="93" y="733"/>
      <point x="50" y="690"/>
      <point x="50" y="638" type="curve" smooth="yes"/>
      <point x="50" y="585"/>
      <point x="93" y="543"/>
      <point x="146" y="543" type="curve"/>
      <point x="146" y="562" type="line"/>
      <point x="103" y="562"/>
      <point x="71" y="594"/>
      <point x="71" y="638" type="curve" smooth="yes"/>
      <point x="71" y="681"/>
      <point x="103" y="714"/>
    </contour>
  </outline>
</glyph>
<glyph name="circumflex" format="2">
  <advance width="392"/>
  <unicode hex="02C6"/>
  <anchor x="197" y="564" name="_top"/>
  <outline>
    <contour>
      <point x="205" y="704" type="line"/>
      <point x="187" y="704" type="line"/>
      <point x="51" y="587" type="line"/>
      <point x="63" y="575" type="line"/>
      <point x="192" y="677" type="line"/>
      <point x="200" y="677" type="line"/>
      <point x="330" y="575" type="line"/>
      <point x="341" y="587" type="line"/>
    </contour>
  </outline>
</glyph>
<glyph name="caron" format="2">
  <advance width="392"/>
  <unicode hex="02C7"/>
  <anchor x="195" y="564" name="_top"/>
  <outline>
    <contour>
      <point x="330" y="704" type="line"/>
      <point x="200" y="602" type="line"/>
      <point x="192" y="602" type="line"/>
      <point x="63" y="704" type="line"/>
      <point x="50" y="692" type="line"/>
      <point x="187" y="575" type="line"/>
      <point x="205" y="575" type="line"/>
      <point x="342" y="692" type="line"/>
    </contour>
  </outline>
</glyph>
<glyph name="fourthtonechinese" format="2">
  <advance width="277"/>
  <unicode hex="02CB"/>
  <anchor x="178" y="554" name="_top"/>
  <outline>
    <contour>
      <point x="68" y="708" type="line"/>
      <point x="50" y="691" type="line"/>
      <point x="203" y="550" type="line"/>
      <point x="217" y="563" type="line"/>
    </contour>
  </outline>
</glyph>
<glyph name="ogonek" format="2">
  <advance width="253"/>
  <unicode hex="02DB"/>
  <anchor x="164" y="0" name="_ogonek"/>
  <outline>
    <contour>
      <point x="146" y="2" type="line"/>
      <point x="92" y="-47"/>
      <point x="67" y="-89"/>
      <point x="55" y="-124" type="curve" smooth="yes"/>
      <point x="31" y="-191"/>
      <point x="70" y="-242"/>
      <point x="173" y="-194" type="curve"/>
      <point x="170" y="-182" type="line"/>
      <point x="94" y="-209"/>
      <point x="55" y="-188"/>
      <point x="77" y="-126" type="curve" smooth="yes"/>
      <point x="95" y="-76"/>
      <point x="128" y="-36"/>
      <point x="164" y="0" type="curve"/>
    </contour>
  </outline>
</glyph>
<glyph name="tilde" format="2">
  <advance width="399"/>
  <unicode hex="02DC"/>
  <anchor x="200" y="561" name="_top"/>
  <outline>
    <contour>
      <point x="130" y="687" type="curve" smooth="yes"/>
      <point x="83" y="691"/>
      <point x="53" y="659"/>
      <point x="55" y="598" type="curve"/>
      <point x="72" y="598" type="line"/>
      <point x="72" y="647"/>
      <point x="89" y="669"/>
      <point x="130" y="665" type="curve" smooth="yes"/>
      <point x="180" y="660"/>
      <point x="203" y="603"/>
      <point x="270" y="597" type="curve" smooth="yes"/>
      <point x="317" y="593"/>
      <point x="347" y="624"/>
      <point x="345" y="682" type="curve"/>
      <point x="328" y="682" type="line"/>
      <point x="328" y="635"/>
      <point x="311" y="616"/>
      <point x="270" y="619" type="curve" smooth="yes"/>
      <point x="211" y="623"/>
      <point x="189" y="682"/>
    </contour>
  </outline>
</glyph>
<glyph name="hungarumlaut" format="2">
  <advance width="410"/>
  <unicode hex="02DD"/>
  <anchor x="161" y="554" name="_top"/>
  <outline>
    <contour>
      <point x="175" y="715" type="line"/>
      <point x="64" y="558" type="line"/>
      <point x="80" y="548" type="line"/>
      <point x="197" y="700" type="line"/>
    </contour>
    <contour>
      <point x="315" y="715" type="line"/>
      <point x="204" y="558" type="line"/>
      <point x="220" y="548" type="line"/>
      <point x="337" y="700" type="line"/>
    </contour>
  </outline>
</glyph>
<glyph name="tildecomb" format="2">
  <unicode hex="0303"/>
  <anchor x="-210" y="561" name="_top"/>
  <outline>
    <contour>
      <point x="-280" y="687" type="curve" smooth="yes"/>
      <point x="-327" y="691"/>
      <point x="-357" y="659"/>
      <point x="-355" y="598" type="curve"/>
      <point x="-338" y="598" type="line"/>
      <point x="-338" y="647"/>
      <point x="-321" y="669"/>
      <point x="-280" y="665" type="curve" smooth="yes"/>
      <point x="-230" y="660"/>
      <point x="-207" y="603"/>
      <point x="-140" y="597" type="curve" smooth="yes"/>
      <point x="-93" y="593"/>
      <point x="-63" y="624"/>
      <point x="-65" y="682" type="curve"/>
      <point x="-82" y="682" type="line"/>
      <point x="-82" y="635"/>
      <point x="-99" y="616"/>
      <point x="-140" y="619" type="curve" smooth="yes"/>
      <point x="-199" y="623"/>
      <point x="-221" y="682"/>
    </contour>
  </outline>
</glyph>
<glyph name="macroncomb" format="2">
  <unicode hex="0304"/>
  <anchor x="-200" y="561" name="_top"/>
  <outline>
    <contour>
      <point x="-70" y="648" type="line"/>
      <point x="-330" y="648" type="line"/>
      <point x="-330" y="625" type="line"/>
      <point x="-70" y="625" type="line"/>
    </contour>
  </outline>
</glyph>
<glyph name="dotaccentcomb" format="2">
  <unicode hex="0307"/>
  <anchor x="-183" y="556" name="_top"/>
  <outline>
    <contour>
      <point x="-178" y="676" type="curve" smooth="yes"/>
      <point x="-188" y="676" type="line" smooth="yes"/>
      <point x="-196" y="676"/>
      <point x="-200" y="672"/>
      <point x="-200" y="664" type="curve" smooth="yes"/>
      <point x="-200" y="602" type="line" smooth="yes"/>
      <point x="-200" y="594"/>
      <point x="-196" y="590"/>
      <point x="-188" y="590" type="curve" smooth="yes"/>
      <point x="-178" y="590" type="line" smooth="yes"/>
      <point x="-170" y="590"/>
      <point x="-166" y="594"/>
      <point x="-166" y="602" type="curve" smooth="yes"/>
      <point x="-166" y="664" type="line" smooth="yes"/>
      <point x="-166" y="672"/>
      <point x="-170" y="676"/>
    </contour>
  </outline>
</glyph>
<glyph name="hookabovecomb" format="2">
  <unicode hex="0309"/>
  <anchor x="-148" y="564" name="_top"/>
  <outline>
    <contour>
      <point x="-159" y="580" type="curve"/>
      <point x="-154" y="566" type="line"/>
      <point x="-93" y="582"/>
      <point x="-67" y="624"/>
      <point x="-67" y="666" type="curve" smooth="yes"/>
      <point x="-67" y="728"/>
      <point x="-115" y="748"/>
      <point x="-190" y="730" type="curve"/>
      <point x="-186" y="715" type="line"/>
      <point x="-124" y="725"/>
      <point x="-89" y="711"/>
      <point x="-89" y="665" type="curve" smooth="yes"/>
      <point x="-89" y="629"/>
      <point x="-110" y="597"/>
    </contour>
  </outline>
</glyph>
<glyph name="ringcomb" format="2">
  <unicode hex="030A"/>
  <anchor x="-154" y="564" name="_top"/>
  <outline>
    <contour>
      <point x="-154" y="733" type="curve" smooth="yes"/>
      <point x="-207" y="733"/>
      <point x="-250" y="690"/>
      <point x="-250" y="638" type="curve" smooth="yes"/>
      <point x="-250" y="585"/>
      <point x="-207" y="543"/>
      <point x="-154" y="543" type="curve" smooth="yes"/>
      <point x="-100" y="543"/>
      <point x="-58" y="589"/>
      <point x="-58" y="638" type="curve" smooth="yes"/>
      <point x="-58" y="690"/>
      <point x="-101" y="733"/>
    </contour>
    <contour>
      <point x="-154" y="714" type="curve" smooth="yes"/>
      <point x="-112" y="714"/>
      <point x="-79" y="681"/>
      <point x="-79" y="638" type="curve" smooth="yes"/>
      <point x="-79" y="594"/>
      <point x="-112" y="562"/>
      <point x="-154" y="562" type="curve" smooth="yes"/>
      <point x="-197" y="562"/>
      <point x="-229" y="594"/>
      <point x="-229" y="638" type="curve" smooth="yes"/>
      <point x="-229" y="681"/>
      <point x="-197" y="714"/>
    </contour>
  </outline>
</glyph>
<glyph name="hungarumlautcomb" format="2">
  <unicode hex="030B"/>
  <anchor x="-253" y="554" name="_top"/>
  <outline>
    <contour>
      <point x="-239" y="715" type="line"/>
      <point x="-350" y="558" type="line"/>
      <point x="-334" y="548" type="line"/>
      <point x="-217" y="700" type="line"/>
    </contour>
    <contour>
      <point x="-99" y="715" type="line"/>
      <point x="-210" y="558" type="line"/>
      <point x="-194" y="548" type="line"/>
      <point x="-77" y="700" type="line"/>
    </contour>
  </outline>
</glyph>
<glyph name="caroncomb" format="2">
  <unicode hex="030C"/>
  <anchor x="-205" y="564" name="_top"/>
  <outline>
    <contour>
      <point x="-70" y="704" type="line"/>
      <point x="-200" y="602" type="line"/>
      <point x="-208" y="602" type="line"/>
      <point x="-337" y="704" type="line"/>
      <point x="-350" y="692" type="line"/>
      <point x="-213" y="575" type="line"/>
      <point x="-195" y="575" type="line"/>
      <point x="-58" y="692" type="line"/>
    </contour>
  </outline>
</glyph>
<glyph name="commaturnedabovecomb" format="2">
  <unicode hex="0312"/>
  <anchor x="-157" y="556" name="_top"/>
  <outline>
    <contour>
      <point x="-160" y="553" type="curve" smooth="yes"/>
      <point x="-153" y="553" type="line" smooth="yes"/>
      <point x="-147" y="553"/>
      <point x="-145" y="556"/>
      <point x="-145" y="563" type="curve" smooth="yes"/>
      <point x="-144" y="612" type="line" smooth="yes"/>
      <point x="-144" y="617"/>
      <point x="-146" y="619"/>
      <point x="-149" y="619" type="curve"/>
      <point x="-149" y="659"/>
      <point x="-148" y="675"/>
      <point x="-146" y="706" type="curve"/>
      <point x="-155" y="709" type="line"/>
      <point x="-164" y="679"/>
      <point x="-168" y="640"/>
      <point x="-169" y="612" type="curve" smooth="yes"/>
      <point x="-170" y="563" type="line" smooth="yes"/>
      <point x="-170" y="556"/>
      <point x="-166" y="553"/>
    </contour>
  </outline>
</glyph>
<glyph name="dotbelowcomb" format="2">
  <unicode hex="0323"/>
  <anchor x="-114" y="0" name="_bottom"/>
  <outline>
    <contour>
      <point x="-108" y="-64" type="curve" smooth="yes"/>
      <point x="-118" y="-64" type="line" smooth="yes"/>
      <point x="-126" y="-64"/>
      <point x="-130" y="-68"/>
      <point x="-130" y="-76" type="curve" smooth="yes"/>
      <point x="-130" y="-138" type="line" smooth="yes"/>
      <point x="-130" y="-146"/>
      <point x="-126" y="-150"/>
      <point x="-118" y="-150" type="curve" smooth="yes"/>
      <point x="-108" y="-150" type="line" smooth="yes"/>
      <point x="-100" y="-150"/>
      <point x="-96" y="-146"/>
      <point x="-96" y="-138" type="curve" smooth="yes"/>
      <point x="-96" y="-76" type="line" smooth="yes"/>
      <point x="-96" y="-68"/>
      <point x="-100" y="-64"/>
    </contour>
  </outline>
</glyph>
<glyph name="macronbelowcomb" format="2">
  <unicode hex="0331"/>
  <anchor x="-200" y="0" name="_bottom"/>
  <outline>
    <contour>
      <point x="-70" y="-86" type="line"/>
      <point x="-330" y="-86" type="line"/>
      <point x="-330" y="-109" type="line"/>
      <point x="-70" y="-109" type="line"/>
    </contour>
  </outline>
</glyph>
<glyph name="Delta" format="2">
  <advance width="614"/>
  <unicode hex="0394"/>
  <outline>
    <contour>
      <point x="321" y="690" type="line"/>
      <point x="293" y="690" type="line"/>
      <point x="37" y="22" type="line"/>
      <point x="37" y="0" type="line"/>
      <point x="577" y="0" type="line"/>
      <point x="577" y="22" type="line"/>
    </contour>
    <contour>
      <point x="307" y="663" type="curve"/>
      <point x="315" y="641"/>
      <point x="324" y="618"/>
      <point x="332" y="596" type="curve"/>
      <point x="551" y="22" type="line"/>
      <point x="63" y="22" type="line"/>
      <point x="282" y="595" type="line"/>
      <point x="290" y="618"/>
      <point x="299" y="640"/>
    </contour>
  </outline>
</glyph>
<glyph name="Omega" format="2">
  <advance width="718"/>
  <unicode hex="03A9"/>
  <outline>
    <contour>
      <point x="359" y="702" type="curve" smooth="yes"/>
      <point x="167" y="702"/>
      <point x="90" y="584"/>
      <point x="90" y="357" type="curve" smooth="yes"/>
      <point x="90" y="195"/>
      <point x="138" y="98"/>
      <point x="252" y="22" type="curve"/>
      <point x="232" y="22"/>
      <point x="210" y="22"/>
      <point x="190" y="22" type="curve" smooth="yes"/>
      <point x="55" y="22" type="line"/>
      <point x="55" y="0" type="line"/>
      <point x="283" y="0" type="line"/>
      <point x="283" y="22" type="line"/>
      <point x="168" y="103"/>
      <point x="116" y="182"/>
      <point x="116" y="354" type="curve" smooth="yes"/>
      <point x="116" y="575"/>
      <point x="185" y="679"/>
      <point x="359" y="679" type="curve" smooth="yes"/>
      <point x="528" y="679"/>
      <point x="602" y="575"/>
      <point x="602" y="355" type="curve" smooth="yes"/>
      <point x="602" y="199"/>
      <point x="559" y="103"/>
      <point x="435" y="22" type="curve"/>
      <point x="435" y="0" type="line"/>
      <point x="663" y="0" type="line"/>
      <point x="663" y="22" type="line"/>
      <point x="528" y="22" type="line" smooth="yes"/>
      <point x="507" y="22"/>
      <point x="487" y="22"/>
      <point x="466" y="22" type="curve"/>
      <point x="578" y="98"/>
      <point x="628" y="191"/>
      <point x="628" y="357" type="curve" smooth="yes"/>
      <point x="628" y="584"/>
      <point x="546" y="702"/>
    </contour>
  </outline>
</glyph>
<glyph name="mu" format="2">
  <advance width="597"/>
  <unicode hex="03BC"/>
  <outline>
    <contour>
      <point x="118" y="480" type="line"/>
      <point x="97" y="480" type="line"/>
      <point x="97" y="119" type="line"/>
      <point x="97" y="30"/>
      <point x="142" y="-12"/>
      <point x="230" y="-12" type="curve" smooth="yes"/>
      <point x="309" y="-12"/>
      <point x="420" y="35"/>
      <point x="464" y="141" type="curve"/>
      <point x="461" y="205" type="line"/>
      <point x="458" y="98"/>
      <point x="340" y="11"/>
      <point x="229" y="11" type="curve" smooth="yes"/>
      <point x="155" y="11"/>
      <point x="118" y="46"/>
      <point x="118" y="122" type="curve" smooth="yes"/>
    </contour>
    <contour>
      <point x="95" y="480" type="line"/>
      <point x="95" y="-197" type="line"/>
      <point x="112" y="-197" type="line"/>
      <point x="118" y="-105" type="line"/>
      <point x="118" y="480" type="line"/>
    </contour>
    <contour>
      <point x="485" y="480" type="line"/>
      <point x="461" y="480" type="line"/>
      <point x="461" y="157" type="line"/>
      <point x="464" y="141" type="line"/>
      <point x="464" y="84" type="line" smooth="yes"/>
      <point x="464" y="29"/>
      <point x="475" y="-6"/>
      <point x="525" y="-6" type="curve" smooth="yes"/>
      <point x="543" y="-6"/>
      <point x="564" y="-4"/>
      <point x="577" y="0" type="curve"/>
      <point x="574" y="15" type="line"/>
      <point x="530" y="15" type="line" smooth="yes"/>
      <point x="489" y="15"/>
      <point x="485" y="48"/>
      <point x="485" y="90" type="curve" smooth="yes"/>
    </contour>
  </outline>
</glyph>
<glyph name="Dze-cy" format="2">
  <advance width="554"/>
  <unicode hex="0405"/>
  <outline>
    <contour>
      <point x="274" y="701" type="curve" smooth="yes"/>
      <point x="134" y="703"/>
      <point x="66" y="690"/>
      <point x="66" y="524" type="curve" smooth="yes"/>
      <point x="66" y="412"/>
      <point x="103" y="358"/>
      <point x="200" y="347" type="curve" smooth="yes"/>
      <point x="353" y="326" type="line" smooth="yes"/>
      <point x="436" y="315"/>
      <point x="467" y="278"/>
      <point x="467" y="169" type="curve" smooth="yes"/>
      <point x="467" y="32"/>
      <point x="416" y="14"/>
      <point x="283" y="12" type="curve" smooth="yes"/>
      <point x="207" y="11"/>
      <point x="156" y="13"/>
      <point x="81" y="19" type="curve"/>
      <point x="78" y="0" type="line"/>
      <point x="163" y="-10"/>
      <point x="227" y="-11"/>
      <point x="282" y="-11" type="curve" smooth="yes"/>
      <point x="417" y="-11"/>
      <point x="492" y="5"/>
      <point x="492" y="169" type="curve" smooth="yes"/>
      <point x="492" y="290"/>
      <point x="454" y="338"/>
      <point x="353" y="350" type="curve" smooth="yes"/>
      <point x="200" y="371" type="line" smooth="yes"/>
      <point x="121" y="382"/>
      <point x="91" y="423"/>
      <point x="91" y="524" type="curve" smooth="yes"/>
      <point x="91" y="675"/>
      <point x="146" y="678"/>
      <point x="274" y="678" type="curve" smooth="yes"/>
      <point x="336" y="678"/>
      <point x="398" y="674"/>
      <point x="458" y="670" type="curve"/>
      <point x="461" y="689" type="line"/>
      <point x="401" y="696"/>
      <point x="337" y="700"/>
    </contour>
  </outline>
</glyph>
<glyph name="Lje-cy" format="2">
  <advance width="965"/>
  <unicode hex="0409"/>
  <outline>
    <contour>
      <point x="502" y="690" type="line"/>
      <point x="318" y="690" type="line" smooth="yes"/>
      <point x="254" y="690"/>
      <point x="218" y="655"/>
      <point x="212" y="587" type="curve" smooth="yes"/>
      <point x="185" y="280"/>
      <point x="182" y="217"/>
      <point x="125" y="122" type="curve" smooth="yes"/>
      <point x="87" y="58"/>
      <point x="55" y="34"/>
      <point x="26" y="18" type="curve"/>
      <point x="30" y="0" type="line"/>
      <point x="80" y="12"/>
      <point x="119" y="64"/>
      <point x="148" y="113" type="curve" smooth="yes"/>
      <point x="206" y="208"/>
      <point x="211" y="293"/>
      <point x="236" y="585" type="curve" smooth="yes"/>
      <point x="240" y="640"/>
      <point x="270" y="668"/>
      <point x="322" y="668" type="curve" smooth="yes"/>
      <point x="502" y="668" type="line"/>
    </contour>
    <contour>
      <point x="516" y="690" type="line"/>
      <point x="491" y="690" type="line"/>
      <point x="491" y="0" type="line"/>
      <point x="516" y="0" type="line"/>
    </contour>
    <contour>
      <point x="700" y="384" type="curve" smooth="yes"/>
      <point x="504" y="384" type="line"/>
      <point x="504" y="361" type="line"/>
      <point x="700" y="361" type="line" smooth="yes"/>
      <point x="840" y="361"/>
      <point x="881" y="315"/>
      <point x="881" y="188" type="curve" smooth="yes"/>
      <point x="881" y="47"/>
      <point x="830" y="15"/>
      <point x="700" y="15" type="curve" smooth="yes"/>
      <point x="603" y="15"/>
      <point x="532" y="16"/>
      <point x="505" y="18" type="curve"/>
      <point x="491" y="0" type="line"/>
      <point x="559" y="-7"/>
      <point x="601" y="-8"/>
      <point x="700" y="-8" type="curve" smooth="yes"/>
      <point x="849" y="-8"/>
      <point x="907" y="33"/>
      <point x="907" y="188" type="curve" smooth="yes"/>
      <point x="907" y="329"/>
      <point x="859" y="384"/>
    </contour>
  </outline>
</glyph>
<glyph name="Ve-cy" format="2">
  <advance width="612"/>
  <unicode hex="0412"/>
  <outline>
    <contour>
      <point x="297" y="698" type="curve" smooth="yes"/>
      <point x="207" y="698"/>
      <point x="165" y="697"/>
      <point x="103" y="690" type="curve"/>
      <point x="117" y="672" type="line"/>
      <point x="141" y="674"/>
      <point x="209" y="675"/>
      <point x="297" y="675" type="curve" smooth="yes"/>
      <point x="441" y="675"/>
      <point x="493" y="646"/>
      <point x="493" y="518" type="curve" smooth="yes"/>
      <point x="493" y="398"/>
      <point x="446" y="369"/>
      <point x="317" y="368" type="curve" smooth="yes"/>
      <point x="116" y="368" type="line"/>
      <point x="116" y="347" type="line"/>
      <point x="317" y="347" type="line" smooth="yes"/>
      <point x="461" y="345"/>
      <point x="513" y="309"/>
      <point x="513" y="172" type="curve" smooth="yes"/>
      <point x="513" y="44"/>
      <point x="464" y="15"/>
      <point x="327" y="15" type="curve" smooth="yes"/>
      <point x="225" y="15"/>
      <point x="145" y="16"/>
      <point x="117" y="18" type="curve"/>
      <point x="103" y="0" type="line"/>
      <point x="174" y="-7"/>
      <point x="223" y="-8"/>
      <point x="327" y="-8" type="curve" smooth="yes"/>
      <point x="483" y="-8"/>
      <point x="539" y="30"/>
      <point x="539" y="172" type="curve" smooth="yes"/>
      <point x="539" y="282"/>
      <point x="505" y="347"/>
      <point x="402" y="356" type="curve"/>
      <point x="402" y="360" type="line"/>
      <point x="484" y="368"/>
      <point x="519" y="419"/>
      <point x="519" y="518" type="curve" smooth="yes"/>
      <point x="519" y="660"/>
      <point x="460" y="698"/>
    </contour>
    <contour>
      <point x="128" y="690" type="line"/>
      <point x="103" y="690" type="line"/>
      <point x="103" y="0" type="line"/>
      <point x="128" y="0" type="line"/>
    </contour>
  </outline>
</glyph>
<glyph name="Ge-cy" format="2">
  <advance width="514"/>
  <unicode hex="0413"/>
  <anchor x="297" y="740" name="top"/>
  <outline>
    <contour>
      <point x="202" y="690" type="curve" smooth="yes"/>
      <point x="143" y="690"/>
      <point x="100" y="647"/>
      <point x="100" y="588" type="curve" smooth="yes"/>
      <point x="100" y="0" type="line"/>
      <point x="125" y="0" type="line"/>
      <point x="125" y="586" type="line" smooth="yes"/>
      <point x="125" y="634"/>
      <point x="159" y="668"/>
      <point x="207" y="668" type="curve" smooth="yes"/>
      <point x="485" y="668" type="line"/>
      <point x="487" y="686" type="line"/>
      <point x="391" y="690"/>
      <point x="298" y="690"/>
    </contour>
  </outline>
</glyph>
<glyph name="De-cy" format="2">
  <advance width="655"/>
  <unicode hex="0414"/>
  <guideline x="210" y="586" angle="0"/>
  <outline>
    <contour>
      <point x="535" y="690" type="line"/>
      <point x="302" y="690" type="line" smooth="yes"/>
      <point x="236" y="690"/>
      <point x="200" y="654"/>
      <point x="199" y="587" type="curve" smooth="yes"/>
      <point x="194" y="380"/>
      <point x="170" y="163"/>
      <point x="67" y="0" type="curve"/>
      <point x="96" y="0" type="line"/>
      <point x="196" y="166"/>
      <point x="219" y="382"/>
      <point x="223" y="587" type="curve" smooth="yes"/>
      <point x="224" y="640"/>
      <point x="252" y="668"/>
      <point x="304" y="668" type="curve" smooth="yes"/>
      <point x="510" y="668" type="line"/>
      <point x="510" y="0" type="line"/>
      <point x="535" y="0" type="line"/>
    </contour>
    <contour>
      <point x="49" y="7" type="line"/>
      <point x="25" y="7" type="line"/>
      <point x="25" y="-151" type="line"/>
      <point x="43" y="-151" type="line"/>
    </contour>
    <contour>
      <point x="617" y="22" type="line"/>
      <point x="25" y="22" type="line"/>
      <point x="25" y="0" type="line"/>
      <point x="617" y="0" type="line"/>
    </contour>
    <contour>
      <point x="617" y="7" type="line"/>
      <point x="593" y="7" type="line"/>
      <point x="599" y="-151" type="line"/>
      <point x="617" y="-151" type="line"/>
    </contour>
  </outline>
</glyph>
<glyph name="Ie-cy" format="2">
  <advance width="551"/>
  <unicode hex="0415"/>
  <anchor x="307" y="740" name="top"/>
  <outline>
    <contour>
      <point x="199" y="690" type="curve" smooth="yes"/>
      <point x="140" y="690"/>
      <point x="97" y="647"/>
      <point x="97" y="588" type="curve" smooth="yes"/>
      <point x="97" y="102" type="line" smooth="yes"/>
      <point x="97" y="43"/>
      <point x="140" y="0"/>
      <point x="199" y="0" type="curve" smooth="yes"/>
      <point x="297" y="0"/>
      <point x="395" y="0"/>
      <point x="493" y="4" type="curve"/>
      <point x="491" y="22" type="line"/>
      <point x="204" y="22" type="line" smooth="yes"/>
      <point x="156" y="22"/>
      <point x="122" y="56"/>
      <point x="122" y="104" type="curve" smooth="yes"/>
      <point x="122" y="586" type="line" smooth="yes"/>
      <point x="122" y="634"/>
      <point x="156" y="668"/>
      <point x="204" y="668" type="curve" smooth="yes"/>
      <point x="491" y="668" type="line"/>
      <point x="493" y="686" type="line"/>
      <point x="395" y="690"/>
      <point x="297" y="690"/>
    </contour>
    <contour>
      <point x="114" y="381" type="line"/>
      <point x="114" y="359" type="line"/>
      <point x="450" y="360" type="line"/>
      <point x="450" y="380" type="line"/>
    </contour>
  </outline>
</glyph>
<glyph name="Ii-cy" format="2">
  <advance width="678"/>
  <unicode hex="0418"/>
  <anchor x="341" y="740" name="top"/>
  <outline>
    <contour>
      <point x="575" y="690" type="line"/>
      <point x="551" y="690" type="line"/>
      <point x="169" y="105" type="line" smooth="yes"/>
      <point x="157" y="86"/>
      <point x="141" y="57"/>
      <point x="129" y="39" type="curve"/>
      <point x="128" y="39" type="line"/>
      <point x="128" y="63"/>
      <point x="128" y="86"/>
      <point x="128" y="110" type="curve" smooth="yes"/>
      <point x="128" y="690" type="line"/>
      <point x="103" y="690" type="line"/>
      <point x="103" y="0" type="line"/>
      <point x="127" y="0" type="line"/>
      <point x="514" y="591" type="line" smooth="yes"/>
      <point x="526" y="609"/>
      <point x="538" y="632"/>
      <point x="549" y="651" type="curve"/>
      <point x="550" y="651" type="line"/>
      <point x="550" y="628"/>
      <point x="550" y="606"/>
      <point x="550" y="583" type="curve" smooth="yes"/>
      <point x="550" y="0" type="line"/>
      <point x="575" y="0" type="line"/>
    </contour>
  </outline>
</glyph>
<glyph name="En-cy" format="2">
  <advance width="657"/>
  <unicode hex="041D"/>
  <outline>
    <contour>
      <point x="128" y="690" type="line"/>
      <point x="103" y="690" type="line"/>
      <point x="103" y="0" type="line"/>
      <point x="128" y="0" type="line"/>
    </contour>
    <contour>
      <point x="540" y="381" type="line"/>
      <point x="120" y="381" type="line"/>
      <point x="120" y="359" type="line"/>
      <point x="540" y="359" type="line"/>
    </contour>
    <contour>
      <point x="554" y="690" type="line"/>
      <point x="529" y="690" type="line"/>
      <point x="529" y="0" type="line"/>
      <point x="554" y="0" type="line"/>
    </contour>
  </outline>
</glyph>
<glyph name="Pe-cy" format="2">
  <advance width="661"/>
  <unicode hex="041F"/>
  <outline>
    <contour>
      <point x="128" y="690" type="line"/>
      <point x="103" y="690" type="line"/>
      <point x="103" y="0" type="line"/>
      <point x="128" y="0" type="line"/>
    </contour>
    <contour>
      <point x="544" y="690" type="line"/>
      <point x="120" y="690" type="line"/>
      <point x="120" y="668" type="line"/>
      <point x="544" y="668" type="line"/>
    </contour>
    <contour>
      <point x="558" y="690" type="line"/>
      <point x="533" y="690" type="line"/>
      <point x="533" y="0" type="line"/>
      <point x="558" y="0" type="line"/>
    </contour>
  </outline>
</glyph>
<glyph name="Es-cy" format="2">
  <advance width="561"/>
  <unicode hex="0421"/>
  <outline>
    <contour>
      <point x="331" y="702" type="curve" smooth="yes"/>
      <point x="142" y="702"/>
      <point x="76" y="608"/>
      <point x="76" y="345" type="curve" smooth="yes"/>
      <point x="76" y="82"/>
      <point x="142" y="-12"/>
      <point x="331" y="-12" type="curve" smooth="yes"/>
      <point x="415" y="-12"/>
      <point x="466" y="-6"/>
      <point x="519" y="6" type="curve"/>
      <point x="513" y="24" type="line"/>
      <point x="461" y="15"/>
      <point x="411" y="11"/>
      <point x="331" y="11" type="curve" smooth="yes"/>
      <point x="161" y="11"/>
      <point x="102" y="97"/>
      <point x="102" y="345" type="curve" smooth="yes"/>
      <point x="102" y="593"/>
      <point x="161" y="679"/>
      <point x="331" y="679" type="curve" smooth="yes"/>
      <point x="406" y="679"/>
      <point x="443" y="676"/>
      <point x="499" y="667" type="curve"/>
      <point x="505" y="685" type="line"/>
      <point x="453" y="697"/>
      <point x="410" y="702"/>
    </contour>
  </outline>
</glyph>
<glyph name="Te-cy" format="2">
  <advance width="564"/>
  <unicode hex="0422"/>
  <outline>
    <contour>
      <point x="294" y="690" type="line"/>
      <point x="269" y="690" type="line"/>
      <point x="269" y="0" type="line"/>
      <point x="294" y="0" type="line"/>
    </contour>
    <contour>
      <point x="537" y="690" type="line"/>
      <point x="27" y="690" type="line"/>
      <point x="27" y="668" type="line"/>
      <point x="537" y="668" type="line"/>
    </contour>
  </outline>
</glyph>
<glyph name="U-cy" format="2">
  <advance width="537"/>
  <unicode hex="0423"/>
  <anchor x="271" y="740" name="top"/>
  <outline>
    <contour>
      <point x="514" y="690" type="line"/>
      <point x="488" y="690" type="line"/>
      <point x="310" y="220" type="line"/>
      <point x="307" y="211" type="line"/>
      <point x="289" y="165" type="line" smooth="yes"/>
      <point x="232" y="19"/>
      <point x="222" y="1"/>
      <point x="93" y="22" type="curve"/>
      <point x="90" y="6" type="line"/>
      <point x="118" y="-3"/>
      <point x="159" y="-8"/>
      <point x="186" y="-6" type="curve" smooth="yes"/>
      <point x="256" y="-1"/>
      <point x="283" y="84"/>
      <point x="312" y="161" type="curve" smooth="yes"/>
    </contour>
    <contour>
      <point x="62" y="690" type="line"/>
      <point x="36" y="690" type="line"/>
      <point x="210" y="240" type="line" smooth="yes"/>
      <point x="218" y="218"/>
      <point x="237" y="205"/>
      <point x="260" y="205" type="curve" smooth="yes"/>
      <point x="310" y="205" type="line"/>
      <point x="321" y="227" type="line"/>
      <point x="262" y="227" type="line" smooth="yes"/>
      <point x="248" y="227"/>
      <point x="236" y="235"/>
      <point x="231" y="249" type="curve" smooth="yes"/>
    </contour>
  </outline>
</glyph>
<glyph name="Ef-cy" format="2">
  <advance width="821"/>
  <unicode hex="0424"/>
  <outline>
    <contour>
      <point x="410" y="652" type="curve" smooth="yes"/>
      <point x="165" y="652"/>
      <point x="75" y="575"/>
      <point x="75" y="355" type="curve" smooth="yes"/>
      <point x="75" y="135"/>
      <point x="165" y="58"/>
      <point x="410" y="58" type="curve" smooth="yes"/>
      <point x="656" y="58"/>
      <point x="746" y="135"/>
      <point x="746" y="355" type="curve" smooth="yes"/>
      <point x="746" y="575"/>
      <point x="656" y="652"/>
    </contour>
    <contour>
      <point x="410" y="630" type="curve" smooth="yes"/>
      <point x="637" y="630"/>
      <point x="720" y="567"/>
      <point x="720" y="355" type="curve" smooth="yes"/>
      <point x="720" y="143"/>
      <point x="637" y="80"/>
      <point x="410" y="80" type="curve" smooth="yes"/>
      <point x="184" y="80"/>
      <point x="101" y="143"/>
      <point x="101" y="355" type="curve" smooth="yes"/>
      <point x="101" y="567"/>
      <point x="184" y="630"/>
    </contour>
    <contour>
      <point x="423" y="758" type="line"/>
      <point x="398" y="758" type="line"/>
      <point x="398" y="646" type="line"/>
      <point x="398" y="635" type="line"/>
      <point x="398" y="74" type="line"/>
      <point x="398" y="66" type="line"/>
      <point x="398" y="-48" type="line"/>
      <point x="423" y="-48" type="line"/>
      <point x="423" y="66" type="line"/>
      <point x="423" y="74" type="line"/>
      <point x="423" y="635" type="line"/>
      <point x="423" y="646" type="line"/>
    </contour>
  </outline>
</glyph>
<glyph name="Sha-cy" format="2">
  <advance width="901"/>
  <unicode hex="0428"/>
  <outline>
    <contour>
      <point x="798" y="690" type="line"/>
      <point x="773" y="690" type="line"/>
      <point x="773" y="0" type="line"/>
      <point x="798" y="0" type="line"/>
    </contour>
    <contour>
      <point x="128" y="690" type="line"/>
      <point x="103" y="690" type="line"/>
      <point x="103" y="0" type="line"/>
      <point x="128" y="0" type="line"/>
    </contour>
    <contour>
      <point x="788" y="22" type="line"/>
      <point x="120" y="22" type="line"/>
      <point x="120" y="0" type="line"/>
      <point x="788" y="0" type="line"/>
    </contour>
    <contour>
      <point x="463" y="690" type="line"/>
      <point x="438" y="690" type="line"/>
      <point x="438" y="0" type="line"/>
      <point x="463" y="0" type="line"/>
    </contour>
  </outline>
</glyph>
<glyph name="Ereversed-cy" format="2">
  <advance width="570"/>
  <unicode hex="042D"/>
  <anchor x="261" y="740" name="top"/>
  <outline>
    <contour>
      <point x="229" y="702" type="curve" smooth="yes"/>
      <point x="150" y="702"/>
      <point x="105" y="697"/>
      <point x="53" y="685" type="curve"/>
      <point x="59" y="667" type="line"/>
      <point x="115" y="676"/>
      <point x="154" y="679"/>
      <point x="229" y="679" type="curve" smooth="yes"/>
      <point x="406" y="679"/>
      <point x="468" y="593"/>
      <point x="468" y="345" type="curve" smooth="yes"/>
      <point x="468" y="97"/>
      <point x="406" y="11"/>
      <point x="229" y="11" type="curve" smooth="yes"/>
      <point x="149" y="11"/>
      <point x="103" y="15"/>
      <point x="51" y="24" type="curve"/>
      <point x="45" y="6" type="line"/>
      <point x="98" y="-6"/>
      <point x="145" y="-12"/>
      <point x="229" y="-12" type="curve" smooth="yes"/>
      <point x="425" y="-12"/>
      <point x="494" y="82"/>
      <point x="494" y="345" type="curve" smooth="yes"/>
      <point x="494" y="608"/>
      <point x="425" y="702"/>
    </contour>
    <contour>
      <point x="472" y="381" type="line"/>
      <point x="150" y="380" type="line"/>
      <point x="150" y="360" type="line"/>
      <point x="472" y="359" type="line"/>
    </contour>
  </outline>
</glyph>
<glyph name="Iu-cy" format="2">
  <advance width="893"/>
  <unicode hex="042E"/>
  <outline>
    <contour>
      <point x="562" y="702" type="curve" smooth="yes"/>
      <point x="380" y="702"/>
      <point x="317" y="608"/>
      <point x="317" y="345" type="curve" smooth="yes"/>
      <point x="317" y="82"/>
      <point x="380" y="-12"/>
      <point x="562" y="-12" type="curve" smooth="yes"/>
      <point x="751" y="-12"/>
      <point x="817" y="82"/>
      <point x="817" y="345" type="curve" smooth="yes"/>
      <point x="817" y="608"/>
      <point x="751" y="702"/>
    </contour>
    <contour>
      <point x="129" y="690" type="line"/>
      <point x="104" y="690" type="line"/>
      <point x="104" y="0" type="line"/>
      <point x="129" y="0" type="line"/>
    </contour>
    <contour>
      <point x="343" y="371" type="line"/>
      <point x="121" y="371" type="line"/>
      <point x="121" y="349" type="line"/>
      <point x="343" y="349" type="line"/>
    </contour>
    <contour>
      <point x="562" y="679" type="curve" smooth="yes"/>
      <point x="732" y="679"/>
      <point x="791" y="593"/>
      <point x="791" y="345" type="curve" smooth="yes"/>
      <point x="791" y="97"/>
      <point x="732" y="11"/>
      <point x="562" y="11" type="curve" smooth="yes"/>
      <point x="399" y="11"/>
      <point x="343" y="97"/>
      <point x="343" y="345" type="curve" smooth="yes"/>
      <point x="343" y="593"/>
      <point x="399" y="679"/>
    </contour>
  </outline>
</glyph>
<glyph name="be-cy" format="2">
  <advance width="561"/>
  <unicode hex="0431"/>
  <outline>
    <contour>
      <point x="455" y="733" type="line"/>
      <point x="382" y="686"/>
      <point x="342" y="681"/>
      <point x="281" y="663" type="curve" smooth="yes"/>
      <point x="108" y="613"/>
      <point x="86" y="519"/>
      <point x="86" y="295" type="curve" smooth="yes"/>
      <point x="86" y="106"/>
      <point x="100" y="-12"/>
      <point x="288" y="-12" type="curve" smooth="yes"/>
      <point x="460" y="-12"/>
      <point x="490" y="86"/>
      <point x="490" y="227" type="curve" smooth="yes"/>
      <point x="490" y="404"/>
      <point x="443" y="467"/>
      <point x="303" y="467" type="curve" smooth="yes"/>
      <point x="155" y="467"/>
      <point x="121" y="396"/>
      <point x="109" y="343" type="curve"/>
      <point x="108" y="343" type="line"/>
      <point x="109" y="367"/>
      <point x="110" y="389"/>
      <point x="112" y="411" type="curve" smooth="yes"/>
      <point x="122" y="531"/>
      <point x="150" y="603"/>
      <point x="287" y="643" type="curve" smooth="yes"/>
      <point x="337" y="657"/>
      <point x="393" y="668"/>
      <point x="462" y="716" type="curve"/>
    </contour>
    <contour>
      <point x="299" y="444" type="curve" smooth="yes"/>
      <point x="424" y="444"/>
      <point x="465" y="391"/>
      <point x="465" y="233" type="curve" smooth="yes"/>
      <point x="465" y="65"/>
      <point x="419" y="11"/>
      <point x="291" y="11" type="curve" smooth="yes"/>
      <point x="161" y="11"/>
      <point x="111" y="66"/>
      <point x="111" y="232" type="curve" smooth="yes"/>
      <point x="111" y="357"/>
      <point x="139" y="444"/>
    </contour>
  </outline>
</glyph>
<glyph name="ve-cy" format="2">
  <advance width="547"/>
  <unicode hex="0432"/>
  <outline>
    <contour>
      <point x="265" y="485" type="curve" smooth="yes"/>
      <point x="186" y="485"/>
      <point x="149" y="484"/>
      <point x="94" y="479" type="curve"/>
      <point x="106" y="461" type="line"/>
      <point x="128" y="463"/>
      <point x="188" y="464"/>
      <point x="265" y="463" type="curve" smooth="yes"/>
      <point x="391" y="463"/>
      <point x="437" y="443"/>
      <point x="437" y="356" type="curve" smooth="yes"/>
      <point x="437" y="276"/>
      <point x="396" y="258"/>
      <point x="283" y="257" type="curve" smooth="yes"/>
      <point x="105" y="257" type="line"/>
      <point x="105" y="237" type="line"/>
      <point x="283" y="237" type="line" smooth="yes"/>
      <point x="409" y="237"/>
      <point x="454" y="211"/>
      <point x="454" y="120" type="curve" smooth="yes"/>
      <point x="454" y="36"/>
      <point x="411" y="16"/>
      <point x="291" y="16" type="curve" smooth="yes"/>
      <point x="201" y="15"/>
      <point x="131" y="16"/>
      <point x="106" y="18" type="curve"/>
      <point x="94" y="0" type="line"/>
      <point x="157" y="-5"/>
      <point x="200" y="-6"/>
      <point x="292" y="-6" type="curve" smooth="yes"/>
      <point x="430" y="-6"/>
      <point x="479" y="21"/>
      <point x="479" y="119" type="curve" smooth="yes"/>
      <point x="479" y="195"/>
      <point x="449" y="239"/>
      <point x="358" y="246" type="curve"/>
      <point x="358" y="248" type="line"/>
      <point x="431" y="254"/>
      <point x="462" y="289"/>
      <point x="462" y="357" type="curve" smooth="yes"/>
      <point x="462" y="458"/>
      <point x="410" y="485"/>
    </contour>
    <contour>
      <point x="117" y="479" type="line"/>
      <point x="94" y="479" type="line"/>
      <point x="94" y="0" type="line"/>
      <point x="117" y="0" type="line"/>
    </contour>
  </outline>
</glyph>
<glyph name="ge-cy" format="2">
  <advance width="438"/>
  <unicode hex="0433"/>
  <anchor x="257" y="558" name="top"/>
  <outline>
    <contour>
      <point x="184" y="480" type="curve" smooth="yes"/>
      <point x="126" y="480"/>
      <point x="92" y="445"/>
      <point x="92" y="386" type="curve" smooth="yes"/>
      <point x="92" y="0" type="line"/>
      <point x="116" y="0" type="line"/>
      <point x="116" y="383" type="line" smooth="yes"/>
      <point x="116" y="434"/>
      <point x="139" y="458"/>
      <point x="189" y="458" type="curve" smooth="yes"/>
      <point x="408" y="458" type="line"/>
      <point x="408" y="477" type="line"/>
      <point x="331" y="480"/>
      <point x="260" y="480"/>
    </contour>
  </outline>
</glyph>
<glyph name="de-cy" format="2">
  <advance width="549"/>
  <unicode hex="0434"/>
  <outline>
    <contour>
      <point x="430" y="480" type="line"/>
      <point x="262" y="480" type="line" smooth="yes"/>
      <point x="203" y="480"/>
      <point x="172" y="448"/>
      <point x="169" y="389" type="curve" smooth="yes"/>
      <point x="163" y="251"/>
      <point x="141" y="111"/>
      <point x="57" y="0" type="curve"/>
      <point x="86" y="0" type="line"/>
      <point x="167" y="111"/>
      <point x="188" y="253"/>
      <point x="193" y="388" type="curve" smooth="yes"/>
      <point x="195" y="434"/>
      <point x="219" y="459"/>
      <point x="265" y="459" type="curve" smooth="yes"/>
      <point x="430" y="459" type="line"/>
    </contour>
    <contour>
      <point x="53" y="5" type="line"/>
      <point x="30" y="5" type="line"/>
      <point x="30" y="-145" type="line"/>
      <point x="48" y="-145" type="line"/>
    </contour>
    <contour>
      <point x="496" y="21" type="line"/>
      <point x="30" y="21" type="line"/>
      <point x="30" y="0" type="line"/>
      <point x="496" y="0" type="line"/>
    </contour>
    <contour>
      <point x="496" y="5" type="line"/>
      <point x="473" y="5" type="line"/>
      <point x="478" y="-145" type="line"/>
      <point x="496" y="-145" type="line"/>
    </contour>
    <contour>
      <point x="442" y="480" type="line"/>
      <point x="418" y="480" type="line"/>
      <point x="418" y="0" type="line"/>
      <point x="442" y="0" type="line"/>
    </contour>
  </outline>
</glyph>
<glyph name="zhe-cy" format="2">
  <advance width="759"/>
  <unicode hex="0436"/>
  <anchor x="739" y="0" name="bottomright"/>
  <anchor x="380" y="558" name="top"/>
  <outline>
    <contour>
      <point x="701" y="480" type="curve"/>
      <point x="674" y="480" type="line"/>
      <point x="626" y="373"/>
      <point x="580" y="261"/>
      <point x="477" y="261" type="curve"/>
      <point x="476" y="240" type="line"/>
      <point x="590" y="241"/>
      <point x="626" y="134"/>
      <point x="687" y="0" type="curve"/>
      <point x="714" y="0" type="line"/>
      <point x="657" y="128"/>
      <point x="615" y="243"/>
      <point x="517" y="250" type="curve"/>
      <point x="517" y="251" type="line"/>
      <point x="607" y="259"/>
      <point x="655" y="376"/>
    </contour>
    <contour>
      <point x="86" y="480" type="curve"/>
      <point x="59" y="480" type="line"/>
      <point x="105" y="376"/>
      <point x="153" y="259"/>
      <point x="243" y="251" type="curve"/>
      <point x="243" y="250" type="line"/>
      <point x="145" y="243"/>
      <point x="103" y="128"/>
      <point x="46" y="0" type="curve"/>
      <point x="73" y="0" type="line"/>
      <point x="134" y="134"/>
      <point x="170" y="241"/>
      <point x="284" y="240" type="curve"/>
      <point x="283" y="261" type="line"/>
      <point x="180" y="261"/>
      <point x="134" y="373"/>
    </contour>
    <contour>
      <point x="378" y="261" type="line"/>
      <point x="260" y="261" type="line"/>
      <point x="260" y="240" type="line"/>
      <point x="378" y="240" type="line"/>
    </contour>
    <contour>
      <point x="395" y="480" type="line"/>
      <point x="371" y="480" type="line"/>
      <point x="371" y="319" type="line" smooth="yes"/>
      <point x="371" y="293"/>
      <point x="371" y="276"/>
      <point x="375" y="251" type="curve"/>
      <point x="372" y="226"/>
      <point x="371" y="205"/>
      <point x="371" y="182" type="curve" smooth="yes"/>
      <point x="371" y="0" type="line"/>
      <point x="395" y="0" type="line"/>
      <point x="395" y="182" type="line" smooth="yes"/>
      <point x="395" y="205"/>
      <point x="394" y="226"/>
      <point x="391" y="251" type="curve"/>
      <point x="395" y="276"/>
      <point x="395" y="293"/>
      <point x="395" y="319" type="curve" smooth="yes"/>
    </contour>
    <contour>
      <point x="500" y="261" type="line"/>
      <point x="390" y="261" type="line"/>
      <point x="390" y="240" type="line"/>
      <point x="500" y="240" type="line"/>
    </contour>
  </outline>
</glyph>
<glyph name="ze-cy" format="2">
  <advance width="472"/>
  <unicode hex="0437"/>
  <anchor x="245" y="0" name="bottom"/>
  <anchor x="231" y="558" name="top"/>
  <outline>
    <contour>
      <point x="197" y="486" type="curve" smooth="yes"/>
      <point x="157" y="486"/>
      <point x="112" y="484"/>
      <point x="64" y="476" type="curve"/>
      <point x="68" y="458" type="line"/>
      <point x="94" y="462"/>
      <point x="144" y="464"/>
      <point x="191" y="464" type="curve" smooth="yes"/>
      <point x="329" y="464"/>
      <point x="373" y="447"/>
      <point x="373" y="358" type="curve" smooth="yes"/>
      <point x="373" y="279"/>
      <point x="338" y="258"/>
      <point x="221" y="257" type="curve" smooth="yes"/>
      <point x="128" y="256" type="line"/>
      <point x="128" y="237" type="line"/>
      <point x="221" y="236" type="line" smooth="yes"/>
      <point x="342" y="235"/>
      <point x="386" y="211"/>
      <point x="386" y="121" type="curve" smooth="yes"/>
      <point x="386" y="48"/>
      <point x="346" y="16"/>
      <point x="218" y="16" type="curve" smooth="yes"/>
      <point x="152" y="16"/>
      <point x="84" y="21"/>
      <point x="60" y="22" type="curve"/>
      <point x="56" y="4" type="line"/>
      <point x="104" y="-3"/>
      <point x="172" y="-6"/>
      <point x="219" y="-6" type="curve" smooth="yes"/>
      <point x="364" y="-6"/>
      <point x="412" y="34"/>
      <point x="412" y="118" type="curve" smooth="yes"/>
      <point x="412" y="200"/>
      <point x="379" y="239"/>
      <point x="295" y="246" type="curve"/>
      <point x="295" y="248" type="line"/>
      <point x="376" y="255"/>
      <point x="398" y="294"/>
      <point x="398" y="361" type="curve" smooth="yes"/>
      <point x="398" y="459"/>
      <point x="348" y="486"/>
    </contour>
  </outline>
</glyph>
<glyph name="ii-cy" format="2">
  <advance width="581"/>
  <unicode hex="0438"/>
  <anchor x="281" y="558" name="top"/>
  <outline>
    <contour>
      <point x="487" y="480" type="line"/>
      <point x="465" y="480" type="line"/>
      <point x="152" y="80" type="line" smooth="yes"/>
      <point x="141" y="66"/>
      <point x="129" y="50"/>
      <point x="119" y="35" type="curve"/>
      <point x="118" y="35" type="line"/>
      <point x="118" y="54"/>
      <point x="118" y="72"/>
      <point x="118" y="91" type="curve" smooth="yes"/>
      <point x="118" y="480" type="line"/>
      <point x="94" y="480" type="line"/>
      <point x="94" y="0" type="line"/>
      <point x="116" y="0" type="line"/>
      <point x="433" y="404" type="line" smooth="yes"/>
      <point x="443" y="417"/>
      <point x="454" y="432"/>
      <point x="462" y="445" type="curve"/>
      <point x="463" y="445" type="line"/>
      <point x="463" y="428"/>
      <point x="463" y="410"/>
      <point x="463" y="393" type="curve" smooth="yes"/>
      <point x="463" y="0" type="line"/>
      <point x="487" y="0" type="line"/>
    </contour>
  </outline>
</glyph>
<glyph name="ka-cy" format="2">
  <advance width="515"/>
  <unicode hex="043A"/>
  <anchor x="274" y="558" name="top"/>
  <outline>
    <contour>
      <point x="457" y="480" type="curve"/>
      <point x="431" y="480" type="line"/>
      <point x="378" y="373"/>
      <point x="329" y="261"/>
      <point x="216" y="261" type="curve"/>
      <point x="214" y="240" type="line"/>
      <point x="339" y="241"/>
      <point x="379" y="134"/>
      <point x="444" y="0" type="curve"/>
      <point x="471" y="0" type="line"/>
      <point x="410" y="128"/>
      <point x="364" y="243"/>
      <point x="258" y="250" type="curve"/>
      <point x="258" y="251" type="line"/>
      <point x="355" y="259"/>
      <point x="407" y="376"/>
    </contour>
    <contour>
      <point x="118" y="480" type="line"/>
      <point x="94" y="480" type="line"/>
      <point x="94" y="0" type="line"/>
      <point x="118" y="0" type="line"/>
      <point x="118" y="182" type="line" smooth="yes"/>
      <point x="118" y="205"/>
      <point x="118" y="226"/>
      <point x="115" y="251" type="curve"/>
      <point x="117" y="276"/>
      <point x="118" y="293"/>
      <point x="118" y="319" type="curve" smooth="yes"/>
    </contour>
    <contour>
      <point x="241" y="261" type="line"/>
      <point x="105" y="261" type="line"/>
      <point x="105" y="240" type="line"/>
      <point x="241" y="240" type="line"/>
    </contour>
  </outline>
</glyph>
<glyph name="el-cy" format="2">
  <advance width="537"/>
  <unicode hex="043B"/>
  <outline>
    <contour>
      <point x="429" y="480" type="line"/>
      <point x="267" y="480" type="line" smooth="yes"/>
      <point x="203" y="480"/>
      <point x="176" y="449"/>
      <point x="168" y="390" type="curve" smooth="yes"/>
      <point x="160" y="331"/>
      <point x="153" y="184"/>
      <point x="111" y="100" type="curve" smooth="yes"/>
      <point x="96" y="70"/>
      <point x="70" y="37"/>
      <point x="23" y="16" type="curve"/>
      <point x="27" y="-5" type="line"/>
      <point x="75" y="10"/>
      <point x="110" y="48"/>
      <point x="131" y="89" type="curve" smooth="yes"/>
      <point x="172" y="170"/>
      <point x="180" y="291"/>
      <point x="191" y="389" type="curve" smooth="yes"/>
      <point x="196" y="435"/>
      <point x="217" y="459"/>
      <point x="265" y="459" type="curve" smooth="yes"/>
      <point x="429" y="459" type="line"/>
    </contour>
    <contour>
      <point x="442" y="480" type="line"/>
      <point x="418" y="480" type="line"/>
      <point x="418" y="0" type="line"/>
      <point x="442" y="0" type="line"/>
    </contour>
  </outline>
</glyph>
<glyph name="em-cy" format="2">
  <advance width="720"/>
  <unicode hex="043C"/>
  <outline>
    <contour>
      <point x="598" y="480" type="curve" smooth="yes"/>
      <point x="562" y="480" type="line" smooth="yes"/>
      <point x="556" y="480"/>
      <point x="551" y="477"/>
      <point x="549" y="471" type="curve"/>
      <point x="399" y="131" type="line" smooth="yes"/>
      <point x="389" y="109"/>
      <point x="380" y="87"/>
      <point x="370" y="64" type="curve"/>
      <point x="350" y="64" type="line"/>
      <point x="341" y="86"/>
      <point x="331" y="108"/>
      <point x="321" y="130" type="curve" smooth="yes"/>
      <point x="171" y="471" type="line"/>
      <point x="169" y="477"/>
      <point x="165" y="480"/>
      <point x="159" y="480" type="curve" smooth="yes"/>
      <point x="122" y="480" type="line" smooth="yes"/>
      <point x="113" y="480"/>
      <point x="108" y="475"/>
      <point x="108" y="467" type="curve" smooth="yes"/>
      <point x="83" y="0" type="line"/>
      <point x="107" y="0" type="line"/>
      <point x="131" y="458" type="line"/>
      <point x="151" y="458" type="line"/>
      <point x="330" y="53" type="line" smooth="yes"/>
      <point x="333" y="47"/>
      <point x="336" y="44"/>
      <point x="342" y="44" type="curve" smooth="yes"/>
      <point x="378" y="44" type="line" smooth="yes"/>
      <point x="384" y="44"/>
      <point x="387" y="47"/>
      <point x="390" y="53" type="curve" smooth="yes"/>
      <point x="569" y="458" type="line"/>
      <point x="589" y="458" type="line"/>
      <point x="613" y="0" type="line"/>
      <point x="637" y="0" type="line"/>
      <point x="612" y="467" type="line" smooth="yes"/>
      <point x="612" y="475"/>
      <point x="606" y="480"/>
    </contour>
  </outline>
</glyph>
<glyph name="pe-cy" format="2">
  <advance width="564"/>
  <unicode hex="043F"/>
  <outline>
    <contour>
      <point x="470" y="480" type="line"/>
      <point x="446" y="480" type="line"/>
      <point x="446" y="0" type="line"/>
      <point x="470" y="0" type="line"/>
    </contour>
    <contour>
      <point x="118" y="480" type="line"/>
      <point x="94" y="480" type="line"/>
      <point x="94" y="0" type="line"/>
      <point x="118" y="0" type="line"/>
    </contour>
    <contour>
      <point x="454" y="480" type="line"/>
      <point x="113" y="480" type="line"/>
      <point x="113" y="459" type="line"/>
      <point x="454" y="459" type="line"/>
    </contour>
  </outline>
</glyph>
<glyph name="te-cy" format="2">
  <advance width="470"/>
  <unicode hex="0442"/>
  <outline>
    <contour>
      <point x="247" y="480" type="line"/>
      <point x="222" y="480" type="line"/>
      <point x="222" y="0" type="line"/>
      <point x="247" y="0" type="line"/>
    </contour>
    <contour>
      <point x="440" y="480" type="line"/>
      <point x="30" y="480" type="line"/>
      <point x="30" y="458" type="line"/>
      <point x="440" y="458" type="line"/>
    </contour>
  </outline>
</glyph>
<glyph name="ha-cy" format="2">
  <advance width="505"/>
  <unicode hex="0445"/>
  <outline>
    <contour>
      <point x="456" y="480" type="line"/>
      <point x="426" y="480" type="line"/>
      <point x="257" y="250" type="line"/>
      <point x="439" y="0" type="line"/>
      <point x="469" y="0" type="line"/>
      <point x="287" y="250" type="line"/>
    </contour>
    <contour>
      <point x="79" y="480" type="line"/>
      <point x="49" y="480" type="line"/>
      <point x="218" y="250" type="line"/>
      <point x="36" y="0" type="line"/>
      <point x="66" y="0" type="line"/>
      <point x="248" y="250" type="line"/>
    </contour>
    <contour>
      <point x="278" y="262" type="line"/>
      <point x="226" y="262" type="line"/>
      <point x="226" y="240" type="line"/>
      <point x="278" y="240" type="line"/>
    </contour>
  </outline>
</glyph>
<glyph name="tse-cy" format="2">
  <advance width="566"/>
  <unicode hex="0446"/>
  <outline>
    <contour>
      <point x="119" y="480" type="line"/>
      <point x="95" y="480" type="line"/>
      <point x="95" y="0" type="line"/>
      <point x="119" y="0" type="line"/>
    </contour>
    <contour>
      <point x="513" y="21" type="line"/>
      <point x="113" y="21" type="line"/>
      <point x="113" y="0" type="line"/>
      <point x="513" y="0" type="line"/>
    </contour>
    <contour>
      <point x="460" y="480" type="line"/>
      <point x="436" y="480" type="line"/>
      <point x="436" y="0" type="line"/>
      <point x="460" y="0" type="line"/>
    </contour>
    <contour>
      <point x="513" y="5" type="line"/>
      <point x="490" y="5" type="line"/>
      <point x="496" y="-143" type="line"/>
      <point x="513" y="-143" type="line"/>
    </contour>
  </outline>
</glyph>
<glyph name="hardsign-cy" format="2">
  <advance width="624"/>
  <unicode hex="044A"/>
  <outline>
    <contour>
      <point x="396" y="268" type="curve" smooth="yes"/>
      <point x="225" y="268" type="line"/>
      <point x="225" y="247" type="line"/>
      <point x="396" y="247" type="line" smooth="yes"/>
      <point x="510" y="247"/>
      <point x="544" y="217"/>
      <point x="544" y="132" type="curve" smooth="yes"/>
      <point x="544" y="38"/>
      <point x="502" y="16"/>
      <point x="396" y="16" type="curve" smooth="yes"/>
      <point x="311" y="16"/>
      <point x="249" y="17"/>
      <point x="225" y="18" type="curve"/>
      <point x="214" y="0" type="line"/>
      <point x="273" y="-5"/>
      <point x="310" y="-6"/>
      <point x="397" y="-6" type="curve" smooth="yes"/>
      <point x="521" y="-6"/>
      <point x="570" y="23"/>
      <point x="570" y="131" type="curve" smooth="yes"/>
      <point x="570" y="230"/>
      <point x="529" y="268"/>
    </contour>
    <contour>
      <point x="238" y="480" type="line"/>
      <point x="214" y="480" type="line"/>
      <point x="214" y="0" type="line"/>
      <point x="238" y="0" type="line"/>
    </contour>
    <contour>
      <point x="30" y="480" type="line"/>
      <point x="30" y="458" type="line"/>
      <point x="227" y="458" type="line"/>
      <point x="227" y="480" type="line"/>
    </contour>
  </outline>
</glyph>
<glyph name="ereversed-cy" format="2">
  <advance width="483"/>
  <unicode hex="044D"/>
  <anchor x="223" y="558" name="top"/>
  <outline>
    <contour>
      <point x="197" y="484" type="curve" smooth="yes"/>
      <point x="132" y="484"/>
      <point x="96" y="481"/>
      <point x="53" y="472" type="curve"/>
      <point x="58" y="453" type="line"/>
      <point x="104" y="459"/>
      <point x="136" y="461"/>
      <point x="197" y="461" type="curve" smooth="yes"/>
      <point x="339" y="461"/>
      <point x="388" y="404"/>
      <point x="388" y="238" type="curve" smooth="yes"/>
      <point x="388" y="72"/>
      <point x="339" y="15"/>
      <point x="197" y="15" type="curve" smooth="yes"/>
      <point x="132" y="15"/>
      <point x="95" y="18"/>
      <point x="52" y="24" type="curve"/>
      <point x="47" y="5" type="line"/>
      <point x="90" y="-4"/>
      <point x="129" y="-8"/>
      <point x="197" y="-8" type="curve" smooth="yes"/>
      <point x="357" y="-8"/>
      <point x="413" y="57"/>
      <point x="413" y="238" type="curve" smooth="yes"/>
      <point x="413" y="420"/>
      <point x="357" y="484"/>
    </contour>
    <contour>
      <point x="394" y="256" type="line"/>
      <point x="134" y="255" type="line"/>
      <point x="134" y="236" type="line"/>
      <point x="394" y="235" type="line"/>
    </contour>
  </outline>
</glyph>
<glyph name="iu-cy" format="2">
  <advance width="767"/>
  <unicode hex="044E"/>
  <outline>
    <contour>
      <point x="481" y="492" type="curve" smooth="yes"/>
      <point x="328" y="492"/>
      <point x="275" y="429"/>
      <point x="275" y="242" type="curve" smooth="yes"/>
      <point x="275" y="56"/>
      <point x="328" y="-8"/>
      <point x="481" y="-8" type="curve" smooth="yes"/>
      <point x="641" y="-8"/>
      <point x="697" y="56"/>
      <point x="697" y="242" type="curve" smooth="yes"/>
      <point x="697" y="429"/>
      <point x="641" y="492"/>
    </contour>
    <contour>
      <point x="119" y="480" type="line"/>
      <point x="95" y="480" type="line"/>
      <point x="95" y="0" type="line"/>
      <point x="119" y="0" type="line"/>
    </contour>
    <contour>
      <point x="298" y="259" type="line"/>
      <point x="112" y="259" type="line"/>
      <point x="112" y="238" type="line"/>
      <point x="298" y="238" type="line"/>
    </contour>
    <contour>
      <point x="481" y="470" type="curve" smooth="yes"/>
      <point x="622" y="470"/>
      <point x="671" y="413"/>
      <point x="671" y="242" type="curve" smooth="yes"/>
      <point x="671" y="71"/>
      <point x="622" y="14"/>
      <point x="481" y="14" type="curve" smooth="yes"/>
      <point x="347" y="14"/>
      <point x="301" y="71"/>
      <point x="301" y="242" type="curve" smooth="yes"/>
      <point x="301" y="413"/>
      <point x="347" y="470"/>
    </contour>
  </outline>
</glyph>
<glyph name="io-cy" format="2">
  <advance width="527"/>
  <unicode hex="0451"/>
  <outline>
    <contour>
      <point x="275" y="492" type="curve" smooth="yes"/>
      <point x="127" y="492"/>
      <point x="69" y="426"/>
      <point x="69" y="242" type="curve" smooth="yes"/>
      <point x="69" y="59"/>
      <point x="131" y="-12"/>
      <point x="283" y="-12" type="curve" smooth="yes"/>
      <point x="335" y="-12"/>
      <point x="421" y="-4"/>
      <point x="453" y="6" type="curve"/>
      <point x="449" y="24" type="line"/>
      <point x="412" y="18"/>
      <point x="351" y="11"/>
      <point x="286" y="11" type="curve" smooth="yes"/>
      <point x="152" y="11"/>
      <point x="94" y="70"/>
      <point x="94" y="243" type="curve" smooth="yes"/>
      <point x="94" y="409"/>
      <point x="142" y="469"/>
      <point x="276" y="469" type="curve" smooth="yes"/>
      <point x="383" y="469"/>
      <point x="437" y="434"/>
      <point x="439" y="354" type="curve" smooth="yes"/>
      <point x="441" y="286"/>
      <point x="420" y="249"/>
      <point x="361" y="249" type="curve" smooth="yes"/>
      <point x="83" y="249" type="line"/>
      <point x="83" y="227" type="line"/>
      <point x="361" y="227" type="line" smooth="yes"/>
      <point x="439" y="227"/>
      <point x="466" y="271"/>
      <point x="464" y="356" type="curve" smooth="yes"/>
      <point x="462" y="447"/>
      <point x="400" y="492"/>
    </contour>
    <contour>
      <point x="370" y="674" type="curve" smooth="yes"/>
      <point x="360" y="674" type="line" smooth="yes"/>
      <point x="353" y="674"/>
      <point x="350" y="670"/>
      <point x="350" y="663" type="curve" smooth="yes"/>
      <point x="350" y="607" type="line" smooth="yes"/>
      <point x="350" y="600"/>
      <point x="353" y="596"/>
      <point x="360" y="596" type="curve" smooth="yes"/>
      <point x="370" y="596" type="line" smooth="yes"/>
      <point x="377" y="596"/>
      <point x="380" y="600"/>
      <point x="380" y="607" type="curve" smooth="yes"/>
      <point x="380" y="663" type="line" smooth="yes"/>
      <point x="380" y="670"/>
      <point x="377" y="674"/>
    </contour>
    <contour>
      <point x="193" y="674" type="curve" smooth="yes"/>
      <point x="183" y="674" type="line" smooth="yes"/>
      <point x="176" y="674"/>
      <point x="173" y="670"/>
      <point x="173" y="663" type="curve" smooth="yes"/>
      <point x="173" y="607" type="line" smooth="yes"/>
      <point x="173" y="600"/>
      <point x="176" y="596"/>
      <point x="183" y="596" type="curve" smooth="yes"/>
      <point x="193" y="596" type="line" smooth="yes"/>
      <point x="200" y="596"/>
      <point x="203" y="600"/>
      <point x="203" y="607" type="curve" smooth="yes"/>
      <point x="203" y="663" type="line" smooth="yes"/>
      <point x="203" y="670"/>
      <point x="200" y="674"/>
    </contour>
  </outline>
</glyph>
<glyph name="e-cy" format="2">
  <advance width="484"/>
  <unicode hex="0454"/>
  <outline>
    <contour>
      <point x="287" y="484" type="curve" smooth="yes"/>
      <point x="127" y="484"/>
      <point x="71" y="420"/>
      <point x="71" y="238" type="curve" smooth="yes"/>
      <point x="71" y="57"/>
      <point x="127" y="-8"/>
      <point x="287" y="-8" type="curve" smooth="yes"/>
      <point x="355" y="-8"/>
      <point x="394" y="-4"/>
      <point x="437" y="5" type="curve"/>
      <point x="432" y="24" type="line"/>
      <point x="389" y="18"/>
      <point x="352" y="15"/>
      <point x="287" y="15" type="curve" smooth="yes"/>
      <point x="145" y="15"/>
      <point x="96" y="72"/>
      <point x="96" y="238" type="curve" smooth="yes"/>
      <point x="96" y="404"/>
      <point x="145" y="461"/>
      <point x="287" y="461" type="curve" smooth="yes"/>
      <point x="348" y="461"/>
      <point x="380" y="459"/>
      <point x="426" y="453" type="curve"/>
      <point x="431" y="472" type="line"/>
      <point x="388" y="481"/>
      <point x="352" y="484"/>
    </contour>
    <contour>
      <point x="90" y="256" type="line"/>
      <point x="90" y="235" type="line"/>
      <point x="350" y="236" type="line"/>
      <point x="350" y="255" type="line"/>
    </contour>
  </outline>
</glyph>
<glyph name="i-cy" format="2">
  <advance width="220"/>
  <unicode hex="0456"/>
  <outline>
    <contour>
      <point x="122" y="480" type="line"/>
      <point x="98" y="480" type="line"/>
      <point x="98" y="0" type="line"/>
      <point x="122" y="0" type="line"/>
    </contour>
    <contour>
      <point x="115" y="679" type="curve" smooth="yes"/>
      <point x="105" y="679" type="line" smooth="yes"/>
      <point x="97" y="679"/>
      <point x="93" y="675"/>
      <point x="93" y="667" type="curve" smooth="yes"/>
      <point x="93" y="605" type="line" smooth="yes"/>
      <point x="93" y="597"/>
      <point x="97" y="593"/>
      <point x="105" y="593" type="curve" smooth="yes"/>
      <point x="115" y="593" type="line" smooth="yes"/>
      <point x="123" y="593"/>
      <point x="127" y="597"/>
      <point x="127" y="605" type="curve" smooth="yes"/>
      <point x="127" y="667" type="line" smooth="yes"/>
      <point x="127" y="675"/>
      <point x="123" y="679"/>
    </contour>
  </outline>
</glyph>
<glyph name="yi-cy" format="2">
  <advance width="220"/>
  <unicode hex="0457"/>
  <outline>
    <contour>
      <point x="122" y="480" type="line"/>
      <point x="98" y="480" type="line"/>
      <point x="98" y="0" type="line"/>
      <point x="122" y="0" type="line"/>
    </contour>
    <contour>
      <point x="202" y="674" type="curve" smooth="yes"/>
      <point x="192" y="674" type="line" smooth="yes"/>
      <point x="185" y="674"/>
      <point x="182" y="670"/>
      <point x="182" y="663" type="curve" smooth="yes"/>
      <point x="182" y="607" type="line" smooth="yes"/>
      <point x="182" y="600"/>
      <point x="185" y="596"/>
      <point x="192" y="596" type="curve" smooth="yes"/>
      <point x="202" y="596" type="line" smooth="yes"/>
      <point x="209" y="596"/>
      <point x="212" y="600"/>
      <point x="212" y="607" type="curve" smooth="yes"/>
      <point x="212" y="663" type="line" smooth="yes"/>
      <point x="212" y="670"/>
      <point x="209" y="674"/>
    </contour>
    <contour>
      <point x="25" y="674" type="curve" smooth="yes"/>
      <point x="15" y="674" type="line" smooth="yes"/>
      <point x="8" y="674"/>
      <point x="5" y="670"/>
      <point x="5" y="663" type="curve" smooth="yes"/>
      <point x="5" y="607" type="line" smooth="yes"/>
      <point x="5" y="600"/>
      <point x="8" y="596"/>
      <point x="15" y="596" type="curve" smooth="yes"/>
      <point x="25" y="596" type="line" smooth="yes"/>
      <point x="32" y="596"/>
      <point x="35" y="600"/>
      <point x="35" y="607" type="curve" smooth="yes"/>
      <point x="35" y="663" type="line" smooth="yes"/>
      <point x="35" y="670"/>
      <point x="32" y="674"/>
    </contour>
  </outline>
</glyph>
<glyph name="lje-cy" format="2">
  <advance width="770"/>
  <unicode hex="0459"/>
  <outline>
    <contour>
      <point x="405" y="480" type="line"/>
      <point x="265" y="480" type="line" smooth="yes"/>
      <point x="209" y="480"/>
      <point x="181" y="454"/>
      <point x="176" y="404" type="curve" smooth="yes"/>
      <point x="155" y="196"/>
      <point x="154" y="162"/>
      <point x="110" y="91" type="curve" smooth="yes"/>
      <point x="86" y="54"/>
      <point x="64" y="37"/>
      <point x="32" y="19" type="curve"/>
      <point x="38" y="0" type="line"/>
      <point x="83" y="17"/>
      <point x="110" y="46"/>
      <point x="133" y="83" type="curve" smooth="yes"/>
      <point x="176" y="151"/>
      <point x="180" y="196"/>
      <point x="200" y="401" type="curve" smooth="yes"/>
      <point x="204" y="442"/>
      <point x="226" y="460"/>
      <point x="265" y="460" type="curve" smooth="yes"/>
      <point x="405" y="460" type="line"/>
    </contour>
    <contour>
      <point x="416" y="480" type="line"/>
      <point x="392" y="480" type="line"/>
      <point x="392" y="0" type="line"/>
      <point x="416" y="0" type="line"/>
    </contour>
    <contour>
      <point x="554" y="279" type="curve" smooth="yes"/>
      <point x="402" y="279" type="line"/>
      <point x="402" y="259" type="line"/>
      <point x="554" y="259" type="line" smooth="yes"/>
      <point x="659" y="259"/>
      <point x="690" y="226"/>
      <point x="690" y="136" type="curve" smooth="yes"/>
      <point x="690" y="26"/>
      <point x="644" y="15"/>
      <point x="526" y="15" type="curve" smooth="yes"/>
      <point x="490" y="15"/>
      <point x="423" y="16"/>
      <point x="403" y="17" type="curve"/>
      <point x="392" y="0" type="line"/>
      <point x="442" y="-5"/>
      <point x="493" y="-6"/>
      <point x="530" y="-6" type="curve" smooth="yes"/>
      <point x="654" y="-6"/>
      <point x="715" y="5"/>
      <point x="715" y="136" type="curve" smooth="yes"/>
      <point x="715" y="239"/>
      <point x="677" y="279"/>
    </contour>
  </outline>
</glyph>
<glyph name="Yat-cy" format="2">
  <advance width="621"/>
  <unicode hex="0462"/>
  <outline>
    <contour>
      <point x="363" y="-8" type="curve" smooth="yes"/>
      <point x="512" y="-8"/>
      <point x="570" y="33"/>
      <point x="570" y="188" type="curve" smooth="yes"/>
      <point x="570" y="329"/>
      <point x="522" y="384"/>
      <point x="363" y="384" type="curve" smooth="yes"/>
      <point x="157" y="384" type="line"/>
      <point x="157" y="361" type="line"/>
      <point x="363" y="361" type="line" smooth="yes"/>
      <point x="503" y="361"/>
      <point x="544" y="315"/>
      <point x="544" y="188" type="curve" smooth="yes"/>
      <point x="544" y="47"/>
      <point x="493" y="15"/>
      <point x="363" y="15" type="curve" smooth="yes"/>
      <point x="261" y="15"/>
      <point x="186" y="16"/>
      <point x="158" y="18" type="curve"/>
      <point x="144" y="0" type="line"/>
      <point x="215" y="-7"/>
      <point x="259" y="-8"/>
    </contour>
    <contour>
      <point x="144" y="0" type="line"/>
      <point x="169" y="0" type="line"/>
      <point x="169" y="730" type="line"/>
      <point x="144" y="730" type="line"/>
    </contour>
    <contour>
      <point x="24" y="567" type="line"/>
      <point x="422" y="567" type="line"/>
      <point x="422" y="590" type="line"/>
      <point x="24" y="590" type="line"/>
    </contour>
  </outline>
</glyph>
<glyph name="fita-cy" format="2">
  <advance width="560"/>
  <unicode hex="0473"/>
  <outline>
    <contour>
      <point x="280" y="-12" type="curve" smooth="yes"/>
      <point x="435" y="-12"/>
      <point x="490" y="55"/>
      <point x="490" y="240" type="curve" smooth="yes"/>
      <point x="490" y="425"/>
      <point x="435" y="492"/>
      <point x="280" y="492" type="curve" smooth="yes"/>
      <point x="125" y="492"/>
      <point x="70" y="425"/>
      <point x="70" y="240" type="curve" smooth="yes"/>
      <point x="70" y="55"/>
      <point x="125" y="-12"/>
    </contour>
    <contour>
      <point x="280" y="11" type="curve" smooth="yes"/>
      <point x="144" y="11"/>
      <point x="95" y="67"/>
      <point x="95" y="240" type="curve" smooth="yes"/>
      <point x="95" y="413"/>
      <point x="144" y="469"/>
      <point x="280" y="469" type="curve" smooth="yes"/>
      <point x="416" y="469"/>
      <point x="465" y="413"/>
      <point x="465" y="240" type="curve" smooth="yes"/>
      <point x="465" y="67"/>
      <point x="416" y="11"/>
    </contour>
    <contour>
      <point x="83" y="240" type="line"/>
      <point x="478" y="240" type="line"/>
      <point x="478" y="260" type="line"/>
      <point x="83" y="260" type="line"/>
    </contour>
  </outline>
</glyph>
<glyph name="gheupturn-cy" format="2">
  <advance width="438"/>
  <unicode hex="0491"/>
  <outline>
    <contour>
      <point x="184" y="480" type="curve" smooth="yes"/>
      <point x="126" y="480"/>
      <point x="92" y="445"/>
      <point x="92" y="386" type="curve" smooth="yes"/>
      <point x="92" y="0" type="line"/>
      <point x="116" y="0" type="line"/>
      <point x="116" y="383" type="line" smooth="yes"/>
      <point x="116" y="434"/>
      <point x="139" y="458"/>
      <point x="189" y="458" type="curve" smooth="yes"/>
      <point x="408" y="458" type="line"/>
      <point x="408" y="477" type="line"/>
      <point x="322" y="480"/>
      <point x="269" y="480"/>
    </contour>
    <contour>
      <point x="409" y="627" type="line"/>
      <point x="391" y="627" type="line"/>
      <point x="385" y="461" type="line"/>
      <point x="408" y="477" type="line"/>
    </contour>
  </outline>
</glyph>
<glyph name="Ghestroke-cy" format="2">
  <advance width="537"/>
  <unicode hex="0492"/>
  <outline>
    <contour>
      <point x="23" y="336" type="line"/>
      <point x="394" y="336" type="line"/>
      <point x="394" y="359" type="line"/>
      <point x="23" y="359" type="line"/>
    </contour>
    <component base="Ge-cy" xOffset="35"/>
  </outline>
</glyph>
<glyph name="Ghemiddlehook-cy" format="2">
  <advance width="580"/>
  <unicode hex="0494"/>
  <outline>
    <contour>
      <point x="269" y="-141" type="line"/>
      <point x="442" y="-135"/>
      <point x="521" y="-61"/>
      <point x="521" y="169" type="curve" smooth="yes"/>
      <point x="521" y="382"/>
      <point x="447" y="432"/>
      <point x="349" y="432" type="curve" smooth="yes"/>
      <point x="265" y="432"/>
      <point x="196" y="404"/>
      <point x="113" y="342" type="curve"/>
      <point x="113" y="319" type="line"/>
      <point x="191" y="373"/>
      <point x="251" y="409"/>
      <point x="346" y="409" type="curve" smooth="yes"/>
      <point x="432" y="409"/>
      <point x="496" y="370"/>
      <point x="496" y="168" type="curve" smooth="yes"/>
      <point x="496" y="-60"/>
      <point x="414" y="-110"/>
      <point x="267" y="-122" type="curve"/>
    </contour>
    <contour>
      <point x="202" y="690" type="curve" smooth="yes"/>
      <point x="143" y="690"/>
      <point x="100" y="647"/>
      <point x="100" y="588" type="curve" smooth="yes"/>
      <point x="100" y="0" type="line"/>
      <point x="125" y="0" type="line"/>
      <point x="125" y="586" type="line" smooth="yes"/>
      <point x="125" y="634"/>
      <point x="159" y="668"/>
      <point x="207" y="668" type="curve" smooth="yes"/>
      <point x="465" y="668" type="line"/>
      <point x="467" y="686" type="line"/>
      <point x="378" y="690"/>
      <point x="291" y="690"/>
    </contour>
  </outline>
</glyph>
<glyph name="Zhedescender-cy" format="2">
  <advance width="927"/>
  <unicode hex="0496"/>
  <outline>
    <contour>
      <point x="911" y="22" type="line"/>
      <point x="809" y="22" type="line"/>
      <point x="809" y="0" type="line"/>
      <point x="911" y="0" type="line"/>
    </contour>
    <contour>
      <point x="911" y="7" type="line"/>
      <point x="887" y="7" type="line"/>
      <point x="893" y="-151" type="line"/>
      <point x="911" y="-151" type="line"/>
    </contour>
    <component base="Zhe-cy"/>
  </outline>
</glyph>
<glyph name="Kaverticalstroke-cy" format="2">
  <advance width="568"/>
  <unicode hex="049C"/>
  <outline>
    <contour>
      <point x="503" y="0" type="curve"/>
      <point x="530" y="0" type="line"/>
      <point x="457" y="175"/>
      <point x="401" y="351"/>
      <point x="275" y="359" type="curve"/>
      <point x="275" y="361" type="line"/>
      <point x="381" y="372"/>
      <point x="445" y="520"/>
      <point x="513" y="690" type="curve"/>
      <point x="487" y="690" type="line"/>
      <point x="424" y="539"/>
      <point x="364" y="375"/>
      <point x="228" y="371" type="curve"/>
      <point x="225" y="349" type="line"/>
      <point x="376" y="350"/>
      <point x="425" y="187"/>
    </contour>
    <contour>
      <point x="103" y="0" type="line"/>
      <point x="127" y="0" type="line"/>
      <point x="127" y="263" type="line" smooth="yes"/>
      <point x="127" y="296"/>
      <point x="127" y="325"/>
      <point x="124" y="361" type="curve"/>
      <point x="126" y="396"/>
      <point x="127" y="419"/>
      <point x="127" y="454" type="curve" smooth="yes"/>
      <point x="127" y="690" type="line"/>
      <point x="103" y="690" type="line"/>
    </contour>
    <contour>
      <point x="112" y="349" type="line"/>
      <point x="257" y="349" type="line"/>
      <point x="257" y="371" type="line"/>
      <point x="112" y="371" type="line"/>
    </contour>
    <contour>
      <point x="237" y="166" type="line"/>
      <point x="257" y="166" type="line"/>
      <point x="257" y="553" type="line"/>
      <point x="237" y="553" type="line"/>
    </contour>
  </outline>
</glyph>
<glyph name="Kastroke-cy" format="2">
  <advance width="606"/>
  <unicode hex="049E"/>
  <outline>
    <contour>
      <point x="23" y="530" type="line"/>
      <point x="284" y="530" type="line"/>
      <point x="284" y="553" type="line"/>
      <point x="23" y="553" type="line"/>
    </contour>
    <component base="Ka-cy" xOffset="38"/>
  </outline>
</glyph>
<glyph name="kabashkir-cy" format="2">
  <advance width="607"/>
  <unicode hex="04A1"/>
  <outline>
    <contour>
      <point x="547" y="480" type="curve"/>
      <point x="521" y="480" type="line"/>
      <point x="468" y="373"/>
      <point x="419" y="261"/>
      <point x="306" y="261" type="curve"/>
      <point x="304" y="240" type="line"/>
      <point x="429" y="241"/>
      <point x="469" y="134"/>
      <point x="534" y="0" type="curve"/>
      <point x="561" y="0" type="line"/>
      <point x="500" y="128"/>
      <point x="454" y="243"/>
      <point x="348" y="250" type="curve"/>
      <point x="348" y="251" type="line"/>
      <point x="445" y="259"/>
      <point x="497" y="376"/>
    </contour>
    <contour>
      <point x="208" y="480" type="line"/>
      <point x="184" y="480" type="line"/>
      <point x="184" y="0" type="line"/>
      <point x="208" y="0" type="line"/>
      <point x="208" y="182" type="line" smooth="yes"/>
      <point x="208" y="205"/>
      <point x="208" y="226"/>
      <point x="205" y="251" type="curve"/>
      <point x="207" y="276"/>
      <point x="208" y="293"/>
      <point x="208" y="319" type="curve" smooth="yes"/>
    </contour>
    <contour>
      <point x="331" y="261" type="line"/>
      <point x="195" y="261" type="line"/>
      <point x="195" y="240" type="line"/>
      <point x="331" y="240" type="line"/>
    </contour>
    <contour>
      <point x="0" y="480" type="line"/>
      <point x="0" y="458" type="line"/>
      <point x="197" y="458" type="line"/>
      <point x="197" y="480" type="line"/>
    </contour>
  </outline>
</glyph>
<glyph name="endescender-cy" format="2">
  <advance width="566"/>
  <unicode hex="04A3"/>
  <outline>
    <contour>
      <point x="525" y="21" type="line"/>
      <point x="458" y="21" type="line"/>
      <point x="458" y="0" type="line"/>
      <point x="525" y="0" type="line"/>
    </contour>
    <contour>
      <point x="525" y="5" type="line"/>
      <point x="502" y="5" type="line"/>
      <point x="508" y="-143" type="line"/>
      <point x="525" y="-143" type="line"/>
    </contour>
    <component base="en-cy"/>
  </outline>
</glyph>
<glyph name="Enghe-cy" format="2">
  <advance width="874"/>
  <unicode hex="04A4"/>
  <outline>
    <contour>
      <point x="500" y="0" type="line"/>
      <point x="525" y="0" type="line"/>
      <point x="525" y="586" type="line" smooth="yes"/>
      <point x="525" y="634"/>
      <point x="559" y="668"/>
      <point x="607" y="668" type="curve" smooth="yes"/>
      <point x="845" y="668" type="line"/>
      <point x="847" y="686" type="line"/>
      <point x="764" y="690"/>
      <point x="685" y="690"/>
      <point x="602" y="690" type="curve" smooth="yes"/>
      <point x="543" y="690"/>
      <point x="500" y="647"/>
      <point x="500" y="588" type="curve" smooth="yes"/>
    </contour>
    <contour>
      <point x="103" y="0" type="line"/>
      <point x="128" y="0" type="line"/>
      <point x="128" y="690" type="line"/>
      <point x="103" y="690" type="line"/>
    </contour>
    <contour>
      <point x="120" y="359" type="line"/>
      <point x="510" y="359" type="line"/>
      <point x="510" y="381" type="line"/>
      <point x="120" y="381" type="line"/>
    </contour>
  </outline>
</glyph>
<glyph name="pemiddlehook-cy" format="2">
  <advance width="881"/>
  <unicode hex="04A7"/>
  <outline>
    <contour>
      <point x="592" y="-210" type="line"/>
      <point x="765" y="-204"/>
      <point x="844" y="-90"/>
      <point x="844" y="99" type="curve" smooth="yes"/>
      <point x="844" y="282"/>
      <point x="770" y="332"/>
      <point x="672" y="332" type="curve" smooth="yes"/>
      <point x="595" y="332"/>
      <point x="532" y="304"/>
      <point x="456" y="242" type="curve"/>
      <point x="456" y="219" type="line"/>
      <point x="527" y="273"/>
      <point x="582" y="309"/>
      <point x="669" y="309" type="curve" smooth="yes"/>
      <point x="755" y="309"/>
      <point x="819" y="270"/>
      <point x="819" y="98" type="curve" smooth="yes"/>
      <point x="819" y="-90"/>
      <point x="737" y="-179"/>
      <point x="590" y="-191" type="curve"/>
    </contour>
    <component base="pe-cy"/>
  </outline>
</glyph>
<glyph name="haabkhasian-cy" format="2">
  <advance width="676"/>
  <unicode hex="04A9"/>
  <outline>
    <contour>
      <point x="275" y="470" type="curve"/>
      <point x="275" y="491" type="line"/>
      <point x="132" y="491"/>
      <point x="70" y="431"/>
      <point x="70" y="256" type="curve" smooth="yes"/>
      <point x="70" y="75"/>
      <point x="144" y="-8"/>
      <point x="312" y="-8" type="curve" smooth="yes"/>
      <point x="455" y="-8"/>
      <point x="600" y="51"/>
      <point x="600" y="292" type="curve" smooth="yes"/>
      <point x="600" y="427"/>
      <point x="551" y="493"/>
      <point x="444" y="493" type="curve" smooth="yes"/>
      <point x="337" y="493"/>
      <point x="288" y="426"/>
      <point x="288" y="288" type="curve" smooth="yes"/>
      <point x="288" y="60"/>
      <point x="409" y="-8"/>
      <point x="553" y="-8" type="curve" smooth="yes"/>
      <point x="621" y="-8"/>
      <point x="655" y="13"/>
      <point x="672" y="26" type="curve"/>
      <point x="665" y="39" type="line"/>
      <point x="636" y="21"/>
      <point x="594" y="11"/>
      <point x="556" y="11" type="curve" smooth="yes"/>
      <point x="438" y="11"/>
      <point x="311" y="59"/>
      <point x="311" y="285" type="curve" smooth="yes"/>
      <point x="311" y="411"/>
      <point x="353" y="472"/>
      <point x="444" y="472" type="curve" smooth="yes"/>
      <point x="535" y="472"/>
      <point x="576" y="412"/>
      <point x="576" y="290" type="curve" smooth="yes"/>
      <point x="576" y="60"/>
      <point x="446" y="12"/>
      <point x="312" y="12" type="curve" smooth="yes"/>
      <point x="167" y="12"/>
      <point x="94" y="83"/>
      <point x="94" y="256" type="curve" smooth="yes"/>
      <point x="94" y="415"/>
      <point x="147" y="470"/>
    </contour>
  </outline>
</glyph>
<glyph name="Esdescender-cy" format="2">
  <advance width="561"/>
  <unicode hex="04AA"/>
  <outline>
    <contour>
      <point x="331" y="702" type="curve" smooth="yes"/>
      <point x="142" y="702"/>
      <point x="76" y="608"/>
      <point x="76" y="345" type="curve" smooth="yes"/>
      <point x="76" y="82"/>
      <point x="142" y="-12"/>
      <point x="331" y="-12" type="curve" smooth="yes"/>
      <point x="415" y="-12"/>
      <point x="466" y="-6"/>
      <point x="519" y="6" type="curve"/>
      <point x="513" y="24" type="line"/>
      <point x="461" y="15"/>
      <point x="411" y="11"/>
      <point x="331" y="11" type="curve" smooth="yes"/>
      <point x="161" y="11"/>
      <point x="102" y="97"/>
      <point x="102" y="345" type="curve" smooth="yes"/>
      <point x="102" y="593"/>
      <point x="161" y="679"/>
      <point x="331" y="679" type="curve" smooth="yes"/>
      <point x="406" y="679"/>
      <point x="443" y="676"/>
      <point x="499" y="667" type="curve"/>
      <point x="505" y="685" type="line"/>
      <point x="453" y="697"/>
      <point x="410" y="702"/>
    </contour>
    <contour>
      <point x="342" y="7" type="line"/>
      <point x="318" y="7" type="line"/>
      <point x="321" y="-151" type="line"/>
      <point x="339" y="-151" type="line"/>
    </contour>
  </outline>
</glyph>
<glyph name="Ustrait-cy" format="2">
  <advance width="541"/>
  <unicode hex="04AE"/>
  <outline>
    <contour>
      <point x="518" y="690" type="line"/>
      <point x="490" y="690" type="line"/>
      <point x="310" y="356" type="line" smooth="yes"/>
      <point x="299" y="335"/>
      <point x="285" y="311"/>
      <point x="273" y="289" type="curve"/>
      <point x="268" y="289" type="line"/>
      <point x="255" y="311"/>
      <point x="242" y="335"/>
      <point x="230" y="357" type="curve" smooth="yes"/>
      <point x="50" y="690" type="line"/>
      <point x="22" y="690" type="line"/>
      <point x="262" y="250" type="line"/>
      <point x="279" y="250" type="line"/>
    </contour>
    <contour>
      <point x="283" y="281" type="line"/>
      <point x="258" y="281" type="line"/>
      <point x="258" y="0" type="line"/>
      <point x="283" y="0" type="line"/>
    </contour>
  </outline>
</glyph>
<glyph name="Ustraitstroke-cy" format="2">
  <advance width="539"/>
  <unicode hex="04B0"/>
  <outline>
    <contour>
      <point x="454" y="263" type="line"/>
      <point x="104" y="263" type="line"/>
      <point x="104" y="243" type="line"/>
      <point x="454" y="243" type="line"/>
    </contour>
    <component base="Ustrait-cy" xOffset="1"/>
  </outline>
</glyph>
<glyph name="ustraitstroke-cy" format="2">
  <advance width="556"/>
  <unicode hex="04B1"/>
  <outline>
    <contour>
      <point x="526" y="480" type="line"/>
      <point x="498" y="480" type="line"/>
      <point x="318" y="146" type="line" smooth="yes"/>
      <point x="307" y="125"/>
      <point x="293" y="101"/>
      <point x="281" y="79" type="curve"/>
      <point x="276" y="79" type="line"/>
      <point x="263" y="101"/>
      <point x="250" y="125"/>
      <point x="238" y="147" type="curve" smooth="yes"/>
      <point x="58" y="480" type="line"/>
      <point x="30" y="480" type="line"/>
      <point x="270" y="40" type="line"/>
      <point x="287" y="40" type="line"/>
    </contour>
    <contour>
      <point x="291" y="71" type="line"/>
      <point x="266" y="71" type="line"/>
      <point x="266" y="-210" type="line"/>
      <point x="291" y="-210" type="line"/>
    </contour>
    <contour>
      <point x="453" y="53" type="line"/>
      <point x="103" y="53" type="line"/>
      <point x="103" y="33" type="line"/>
      <point x="453" y="33" type="line"/>
    </contour>
  </outline>
</glyph>
<glyph name="hadescender-cy" format="2">
  <advance width="505"/>
  <unicode hex="04B3"/>
  <outline>
    <contour>
      <point x="500" y="21" type="line"/>
      <point x="444" y="21" type="line"/>
      <point x="444" y="0" type="line"/>
      <point x="500" y="0" type="line"/>
    </contour>
    <contour>
      <point x="500" y="5" type="line"/>
      <point x="477" y="5" type="line"/>
      <point x="483" y="-143" type="line"/>
      <point x="500" y="-143" type="line"/>
    </contour>
    <component base="x"/>
  </outline>
</glyph>
<glyph name="Chedescender-cy" format="2">
  <advance width="612"/>
  <unicode hex="04B6"/>
  <outline>
    <contour>
      <point x="209" y="268" type="curve" smooth="yes"/>
      <point x="299" y="268"/>
      <point x="386" y="291"/>
      <point x="483" y="358" type="curve"/>
      <point x="483" y="381" type="line"/>
      <point x="378" y="314"/>
      <point x="310" y="291"/>
      <point x="214" y="291" type="curve" smooth="yes"/>
      <point x="129" y="291"/>
      <point x="90" y="330"/>
      <point x="90" y="416" type="curve" smooth="yes"/>
      <point x="90" y="690" type="line"/>
      <point x="65" y="690" type="line"/>
      <point x="65" y="413" type="line" smooth="yes"/>
      <point x="65" y="316"/>
      <point x="112" y="268"/>
    </contour>
    <contour>
      <point x="555" y="-151" type="line"/>
      <point x="573" y="-151" type="line"/>
      <point x="573" y="7" type="line"/>
      <point x="548" y="7" type="line"/>
    </contour>
    <contour>
      <point x="471" y="0" type="line"/>
      <point x="573" y="0" type="line"/>
      <point x="573" y="22" type="line"/>
      <point x="471" y="22" type="line"/>
    </contour>
    <contour>
      <point x="471" y="0" type="line"/>
      <point x="496" y="0" type="line"/>
      <point x="496" y="690" type="line"/>
      <point x="471" y="690" type="line"/>
    </contour>
  </outline>
</glyph>
<glyph name="chedescender-cy" format="2">
  <advance width="517"/>
  <unicode hex="04B7"/>
  <outline>
    <contour>
      <point x="89" y="480" type="line"/>
      <point x="65" y="480" type="line"/>
      <point x="65" y="284" type="line" smooth="yes"/>
      <point x="65" y="216"/>
      <point x="100" y="182"/>
      <point x="166" y="182" type="curve" smooth="yes"/>
      <point x="240" y="182"/>
      <point x="316" y="198"/>
      <point x="398" y="242" type="curve"/>
      <point x="397" y="263" type="line"/>
      <point x="310" y="220"/>
      <point x="252" y="206"/>
      <point x="172" y="206" type="curve" smooth="yes"/>
      <point x="116" y="206"/>
      <point x="89" y="231"/>
      <point x="89" y="288" type="curve" smooth="yes"/>
    </contour>
    <contour>
      <point x="411" y="480" type="line"/>
      <point x="387" y="480" type="line"/>
      <point x="387" y="0" type="line"/>
      <point x="411" y="0" type="line"/>
    </contour>
    <contour>
      <point x="464" y="21" type="line"/>
      <point x="398" y="21" type="line"/>
      <point x="398" y="0" type="line"/>
      <point x="464" y="0" type="line"/>
    </contour>
    <contour>
      <point x="464" y="5" type="line"/>
      <point x="441" y="5" type="line"/>
      <point x="447" y="-143" type="line"/>
      <point x="464" y="-143" type="line"/>
    </contour>
  </outline>
</glyph>
<glyph name="Shha-cy" format="2">
  <advance width="599"/>
  <unicode hex="04BA"/>
  <outline>
    <contour>
      <point x="390" y="422" type="curve" smooth="yes"/>
      <point x="300" y="422"/>
      <point x="213" y="399"/>
      <point x="116" y="332" type="curve"/>
      <point x="116" y="309" type="line"/>
      <point x="221" y="376"/>
      <point x="289" y="399"/>
      <point x="385" y="399" type="curve" smooth="yes"/>
      <point x="470" y="399"/>
      <point x="509" y="360"/>
      <point x="509" y="274" type="curve" smooth="yes"/>
      <point x="509" y="0" type="line"/>
      <point x="534" y="0" type="line"/>
      <point x="534" y="277" type="line" smooth="yes"/>
      <point x="534" y="374"/>
      <point x="487" y="422"/>
    </contour>
    <contour>
      <point x="128" y="690" type="line"/>
      <point x="103" y="690" type="line"/>
      <point x="103" y="0" type="line"/>
      <point x="128" y="0" type="line"/>
    </contour>
  </outline>
</glyph>
<glyph name="chedescenderabkhasian-cy" format="2">
  <advance width="591"/>
  <unicode hex="04BF"/>
  <outline>
    <contour>
      <point x="355" y="5" type="line"/>
      <point x="328" y="5" type="line"/>
      <point x="333" y="-168" type="line"/>
      <point x="350" y="-168" type="line"/>
    </contour>
    <component base="cheabkhasian-cy"/>
  </outline>
</glyph>
